SplineFontDB: 3.0
FontName: font3529
FullName: font3529
FamilyName: VerseIcons
Weight: Book
Copyright: 
Version: 1.0
ItalicAngle: 0
UnderlinePosition: 0
UnderlineWidth: 0
Ascent: 1638
Descent: 410
sfntRevision: 0x00010000
LayerCount: 2
Layer: 0 1 "Back"  1
Layer: 1 1 "Fore"  0
XUID: [1021 12 1503582637 460769]
FSType: 8
OS2Version: 2
OS2_WeightWidthSlopeOnly: 0
OS2_UseTypoMetrics: 1
CreationTime: 1413798764
ModificationTime: 1418163117
PfmFamily: 17
TTFWeight: 400
TTFWidth: 5
LineGap: 184
VLineGap: 0
Panose: 2 0 5 9 0 0 0 0 0 0
OS2TypoAscent: 1638
OS2TypoAOffset: 0
OS2TypoDescent: -410
OS2TypoDOffset: 0
OS2TypoLinegap: 184
OS2WinAscent: 2048
OS2WinAOffset: 0
OS2WinDescent: 57
OS2WinDOffset: 0
HheadAscent: 2048
HheadAOffset: 0
HheadDescent: -57
HheadDOffset: 0
OS2SubXSize: 1331
OS2SubYSize: 1433
OS2SubXOff: 0
OS2SubYOff: 286
OS2SupXSize: 1331
OS2SupYSize: 1433
OS2SupXOff: 0
OS2SupYOff: 983
OS2StrikeYSize: 102
OS2StrikeYPos: 530
OS2Vendor: 'PfEd'
OS2CodePages: 00000001.00000000
OS2UnicodeRanges: 00000001.00000000.00000000.00000000
MarkAttachClasses: 1
DEI: 91125
ShortTable: maxp 16
  1
  0
  64
  360
  13
  0
  0
  2
  0
  1
  1
  0
  64
  0
  0
  0
EndShort
LangName: 1033 "" "" "Regular" "FontForge 2.0 : font3529 : 20-10-2014" "" "Version 1.0" 
GaspTable: 1 65535 2 0
Encoding: UnicodeBmp
UnicodeInterp: none
NameList: Adobe Glyph List
DisplaySize: -24
AntiAlias: 1
FitToEm: 1
WinInfo: 0 61 11
BeginPrivate: 0
EndPrivate
BeginChars: 65538 84

StartChar: .notdef
Encoding: 0 -1 0
AltUni2: 000000.ffffffff.0
Width: 2048
Flags: W
LayerCount: 2
Fore
SplineSet
0 0 m 1,0,-1
 0 2048 l 1,1,-1
 2000 2048 l 1,2,-1
 2000 0 l 1,3,-1
 0 0 l 1,0,-1
EndSplineSet
Validated: 1
EndChar

StartChar: food
Encoding: 97 97 3
Width: 2048
GlyphClass: 2
Flags: W
LayerCount: 2
Fore
SplineSet
1460.5 1566 m 132,-1,1
 1482.5 1566 1482.5 1566 1499.5 1549 c 4,2,3
 1515.5 1533 1515.5 1533 1515.5 1509 c 132,-1,4
 1515.5 1485 1515.5 1485 1499.5 1468 c 6,5,-1
 1303.5 1265 l 5,6,-1
 1351.5 1215 l 5,7,-1
 1547.5 1418 l 6,8,9
 1563.5 1435 1563.5 1435 1586.5 1435 c 132,-1,10
 1609.5 1435 1609.5 1435 1625.5 1418 c 132,-1,11
 1641.5 1401 1641.5 1401 1641.5 1377 c 132,-1,12
 1641.5 1353 1641.5 1353 1625.5 1337 c 6,13,-1
 1430.5 1133 l 5,14,-1
 1478.5 1083 l 5,15,-1
 1674.5 1286 l 6,16,17
 1691.5 1303 1691.5 1303 1713.5 1303 c 132,-1,18
 1735.5 1303 1735.5 1303 1752.5 1286 c 132,-1,19
 1769.5 1269 1769.5 1269 1769.5 1245 c 132,-1,20
 1769.5 1221 1769.5 1221 1752.5 1205 c 5,21,-1
 1494.5 938 l 6,22,23
 1450.5 892 1450.5 892 1379.5 873 c 4,24,25
 1353.5 866 1353.5 866 1327.5 866 c 4,26,27
 1287.5 867 1287.5 867 1252.5 880 c 5,28,-1
 490.5 87 l 6,29,30
 480.5 77 480.5 77 466 77 c 132,-1,31
 451.5 77 451.5 77 441.5 87 c 6,32,-1
 344.5 187 l 6,33,34
 334.5 197 334.5 197 334.5 212 c 132,-1,35
 334.5 227 334.5 227 344.5 238 c 6,36,-1
 863.5 777 l 5,37,-1
 761.5 882 l 5,38,39
 725.5 868 725.5 868 686.5 868 c 4,40,41
 660.5 868 660.5 868 633.5 875 c 4,42,43
 566.5 891 566.5 891 519.5 940 c 4,44,45
 511.5 948 511.5 948 493.5 973 c 5,46,-1
 310.5 1244 l 6,47,48
 278.5 1291 278.5 1291 278.5 1348 c 4,49,50
 278.5 1356 278.5 1356 279.5 1365 c 4,51,52
 282.5 1431 282.5 1431 330.5 1481 c 4,53,54
 374.5 1527 374.5 1527 440.5 1535 c 4,55,56
 448.5 1536 448.5 1536 455.5 1536 c 4,57,58
 516.5 1532 516.5 1532 556.5 1503 c 5,59,-1
 557.5 1502 l 5,60,-1
 557.5 1502 l 5,61,-1
 557.5 1502 l 5,62,-1
 558.5 1502 l 5,63,-1
 819.5 1313 l 6,64,65
 836.5 1300 836.5 1300 851.5 1285 c 4,66,67
 897.5 1237 897.5 1237 913.5 1165 c 4,68,69
 919.5 1138 919.5 1138 919.5 1111 c 4,70,71
 919.5 1108 919.5 1108 919.5 1106 c 4,72,73
 919.567 1103.73 919.567 1103.73 919.567 1101.44 c 4,74,75
 919.567 1069.4 919.567 1069.4 906.5 1033 c 5,76,-1
 1008.5 927 l 5,77,-1
 1107.5 1030 l 5,78,79
 1094.5 1067 1094.5 1067 1094.5 1107 c 4,80,81
 1094.5 1134 1094.5 1134 1100.5 1163 c 4,82,83
 1115.5 1232 1115.5 1232 1163.5 1282 c 6,84,-1
 1421.5 1549 l 6,85,0
 1438.5 1566 1438.5 1566 1460.5 1566 c 132,-1,1
1231.5 695 m 5,86,-1
 1672.5 237 l 6,87,88
 1682.5 226 1682.5 226 1682.5 211.5 c 132,-1,89
 1682.5 197 1682.5 197 1672.5 187 c 6,90,-1
 1575.5 87 l 6,91,92
 1565.5 77 1565.5 77 1551.5 77 c 132,-1,93
 1537.5 77 1537.5 77 1527.5 87 c 6,94,-1
 1086.5 544 l 5,95,-1
 1231.5 695 l 5,86,-1
EndSplineSet
EndChar

StartChar: tech
Encoding: 98 98 4
Width: 2048
GlyphClass: 2
Flags: W
LayerCount: 2
Fore
SplineSet
334 1558 m 6,0,1
 1714 1558 l 6,2,3
 1737 1558 1737 1558 1753 1542 c 132,-1,4
 1769 1526 1769 1526 1769 1503 c 6,5,-1
 1769 504 l 6,6,7
 1769 481 1769 481 1752.5 464.5 c 132,-1,8
 1736 448 1736 448 1714 448 c 6,9,-1
 334 448 l 6,10,11
 311 448 311 448 295 464 c 132,-1,12
 279 480 279 480 279 503 c 6,13,-1
 279 1503 l 6,14,15
 279 1526 279 1526 295 1542 c 132,-1,16
 311 1558 311 1558 334 1558 c 6,0,1
484 1353 m 5,17,-1
 484 737 l 5,18,-1
 1564 737 l 5,19,-1
 1564 1353 l 5,20,-1
 484 1353 l 5,17,-1
874 338 m 5,21,-1
 1163 338 l 5,22,-1
 1163 274 l 5,23,-1
 1523 177 l 6,24,25
 1541 172 1541 172 1552.5 157.5 c 132,-1,26
 1564 143 1564 143 1564 124 c 6,27,-1
 1564 68 l 5,28,-1
 484 68 l 5,29,-1
 484 124 l 6,30,31
 484 143 484 143 495.5 157.5 c 132,-1,32
 507 172 507 172 525 177 c 6,33,-1
 874 271 l 5,34,-1
 874 338 l 5,21,-1
EndSplineSet
EndChar

StartChar: sport
Encoding: 99 99 5
Width: 2048
GlyphClass: 2
Flags: W
LayerCount: 2
Fore
SplineSet
1004.05 1573 m 4,0,1
 1046.05 1573 1046.05 1573 1072.05 1541 c 6,2,-1
 1345.05 1215 l 6,3,4
 1366.05 1191 1366.05 1191 1366.05 1158 c 4,5,6
 1366.05 1117 1366.05 1117 1333.05 1089 c 6,7,-1
 857.05 688 l 5,8,-1
 857.05 498 l 6,9,10
 857.05 456 857.05 456 824.05 428 c 6,11,-1
 423.05 91 l 6,12,13
 412.05 82 412.05 82 398.05 83.5 c 132,-1,14
 384.05 85 384.05 85 375.05 96 c 6,15,-1
 287.05 200 l 6,16,17
 278.05 211 278.05 211 279.05 225 c 132,-1,18
 280.05 239 280.05 239 291.05 248 c 6,19,-1
 653.05 552 l 5,20,-1
 653.05 852 l 6,21,22
 653.05 895 653.05 895 684.05 921 c 6,23,-1
 1060.05 1237 l 5,24,-1
 989.05 1321 l 5,25,-1
 723.05 1097 l 6,26,27
 712.05 1088 712.05 1088 698.05 1089.5 c 132,-1,28
 684.05 1091 684.05 1091 675.05 1102 c 6,29,-1
 587.05 1206 l 6,30,31
 578.05 1217 578.05 1217 579.05 1231 c 132,-1,32
 580.05 1245 580.05 1245 591.05 1254 c 6,33,-1
 946.05 1552 l 6,34,35
 972.05 1573 972.05 1573 1004.05 1573 c 4,0,1
1594.05 1483 m 132,-1,37
 1666.05 1483 1666.05 1483 1717.55 1432 c 132,-1,38
 1769.05 1381 1769.05 1381 1769.05 1308 c 132,-1,39
 1769.05 1235 1769.05 1235 1717.55 1184 c 132,-1,40
 1666.05 1133 1666.05 1133 1594.05 1133 c 132,-1,41
 1522.05 1133 1522.05 1133 1471.05 1184 c 132,-1,42
 1420.05 1235 1420.05 1235 1420.05 1308 c 132,-1,43
 1420.05 1381 1420.05 1381 1471.05 1432 c 132,-1,36
 1522.05 1483 1522.05 1483 1594.05 1483 c 132,-1,37
1473.05 1062 m 5,44,-1
 1473.05 839 l 5,45,-1
 1735.05 839 l 6,46,47
 1749.05 839 1749.05 839 1759.05 829 c 132,-1,48
 1769.05 819 1769.05 819 1769.05 805 c 6,49,-1
 1769.05 668 l 6,50,51
 1769.05 654 1769.05 654 1759.05 644 c 132,-1,52
 1749.05 634 1749.05 634 1735.05 634 c 6,53,-1
 1358.05 634 l 6,54,55
 1321.05 634 1321.05 634 1295.05 660 c 132,-1,56
 1269.05 686 1269.05 686 1269.05 723 c 6,57,-1
 1269.05 848 l 6,58,59
 1269.05 890 1269.05 890 1301.05 917 c 6,60,-1
 1473.05 1062 l 5,44,-1
1102.05 750 m 5,61,-1
 1290.05 525 l 5,62,63
 1311.49 498 1311.49 498 1311.49 467.847 c 4,64,65
 1311.49 460.029 1311.49 460.029 1310.05 452 c 4,66,67
 1304.05 419 1304.05 419 1279.05 399 c 4,68,69
 1227.05 355 1227.05 355 1123.05 267 c 132,-1,70
 1019.05 179 1019.05 179 966.05 135 c 4,71,72
 955.05 126 955.05 126 941.05 127.5 c 132,-1,73
 927.05 129 927.05 129 918.05 140 c 6,74,-1
 830.05 244 l 6,75,76
 821.05 255 821.05 255 822.05 269 c 132,-1,77
 823.05 283 823.05 283 834.05 292 c 6,78,-1
 1060.05 482 l 5,79,-1
 1003.05 550 l 6,80,81
 982.05 576 982.05 576 982.05 608 c 4,82,83
 982.05 650 982.05 650 1014.05 676 c 6,84,-1
 1102.05 750 l 5,61,-1
EndSplineSet
EndChar

StartChar: news
Encoding: 100 100 6
Width: 2048
GlyphClass: 2
Flags: W
LayerCount: 2
Fore
SplineSet
335.01 1562 m 6,0,1
 1493.01 1562 l 6,2,3
 1516.01 1562 1516.01 1562 1532.01 1546 c 132,-1,4
 1548.01 1530 1548.01 1530 1548.01 1507 c 6,5,-1
 1548.01 238 l 6,6,7
 1548.01 215 1548.01 215 1564.01 199 c 132,-1,8
 1580.01 183 1580.01 183 1603.01 183 c 132,-1,9
 1626.01 183 1626.01 183 1642.01 199 c 132,-1,10
 1658.01 215 1658.01 215 1658.01 238 c 6,11,-1
 1658.01 1357 l 5,12,-1
 1714.01 1357 l 6,13,14
 1736.01 1357 1736.01 1357 1752.51 1341 c 132,-1,15
 1769.01 1325 1769.01 1325 1769.01 1302 c 6,16,-1
 1769.01 238 l 6,17,18
 1769.01 169 1769.01 169 1720.51 120.5 c 132,-1,19
 1672.01 72 1672.01 72 1603.01 72 c 6,20,-1
 445.01 72 l 5,21,22
 443.677 71.9805 443.677 71.9805 442.35 71.9805 c 4,23,24
 376.039 71.9805 376.039 71.9805 327.51 121 c 132,-1,25
 278.99 170.01 278.99 170.01 278.99 235.353 c 4,26,27
 278.99 236.673 278.99 236.673 279.01 238 c 5,28,-1
 279.01 1507 l 6,29,30
 279.01 1530 279.01 1530 295.51 1546 c 132,-1,31
 312.01 1562 312.01 1562 335.01 1562 c 6,0,1
483.01 1357 m 5,32,-1
 483.01 857 l 5,33,-1
 858.01 857 l 5,34,-1
 858.01 1357 l 5,35,-1
 483.01 1357 l 5,32,-1
969.01 1357 m 5,36,-1
 969.01 1247 l 5,37,-1
 1347.01 1247 l 5,38,-1
 1347.01 1357 l 5,39,-1
 969.01 1357 l 5,36,-1
969.01 1162 m 5,40,-1
 969.01 1051 l 5,41,-1
 1347.01 1051 l 5,42,-1
 1347.01 1162 l 5,43,-1
 969.01 1162 l 5,40,-1
969.01 967 m 5,44,-1
 969.01 857 l 5,45,-1
 1347.01 857 l 5,46,-1
 1347.01 967 l 5,47,-1
 969.01 967 l 5,44,-1
480.01 772 m 5,48,-1
 480.01 662 l 5,49,-1
 858.01 662 l 5,50,-1
 858.01 772 l 5,51,-1
 480.01 772 l 5,48,-1
969.01 772 m 5,52,-1
 969.01 662 l 5,53,-1
 1347.01 662 l 5,54,-1
 1347.01 772 l 5,55,-1
 969.01 772 l 5,52,-1
480.01 577 m 5,56,-1
 480.01 467 l 5,57,-1
 858.01 467 l 5,58,-1
 858.01 577 l 5,59,-1
 480.01 577 l 5,56,-1
969.01 577 m 5,60,-1
 969.01 467 l 5,61,-1
 1347.01 467 l 5,62,-1
 1347.01 577 l 5,63,-1
 969.01 577 l 5,60,-1
480.01 382 m 5,64,-1
 480.01 272 l 5,65,-1
 858.01 272 l 5,66,-1
 858.01 382 l 5,67,-1
 480.01 382 l 5,64,-1
969.01 382 m 5,68,-1
 969.01 272 l 5,69,-1
 1347.01 272 l 5,70,-1
 1347.01 382 l 5,71,-1
 969.01 382 l 5,68,-1
EndSplineSet
EndChar

StartChar: local
Encoding: 101 101 7
Width: 2048
GlyphClass: 2
Flags: W
LayerCount: 2
Fore
SplineSet
837 1561 m 6,0,1
 1211 1561 l 6,2,3
 1225 1561 1225 1561 1235 1551 c 132,-1,4
 1245 1541 1245 1541 1245 1527 c 4,5,6
 1245 1507 1245 1507 1228 1497 c 6,7,-1
 1130 1440 l 5,8,-1
 1169 1138 l 5,9,10
 1241 1099 1241 1099 1284 1028 c 132,-1,11
 1327 957 1327 957 1327 872 c 5,12,13
 1024 872 l 5,14,-1
 721 872 l 5,15,16
 721 957 721 957 764 1028 c 132,-1,17
 807 1099 807 1099 879 1138 c 5,18,-1
 919 1440 l 5,19,-1
 820 1498 l 6,20,21
 803 1508 803 1508 803 1527 c 4,22,23
 803 1541 803 1541 813 1551 c 132,-1,24
 823 1561 823 1561 837 1561 c 6,0,1
957 760 m 5,25,-1
 965 636 l 5,26,27
 787 626 787 626 666.5 563 c 132,-1,28
 546 500 546 500 546 416 c 4,29,30
 546 356 546 356 610 305 c 132,-1,31
 674 254 674 254 784 224.5 c 132,-1,32
 894 195 894 195 1024 195 c 132,-1,33
 1154 195 1154 195 1264 224.5 c 132,-1,34
 1374 254 1374 254 1438 305 c 132,-1,35
 1502 356 1502 356 1502 416 c 4,36,37
 1502 500 1502 500 1381.5 563 c 132,-1,38
 1261 626 1261 626 1083 636 c 5,39,40
 1091 760 l 5,41,42
 1279 752 1279 752 1434 704.5 c 132,-1,43
 1589 657 1589 657 1679 580.5 c 132,-1,44
 1769 504 1769 504 1769 416 c 4,45,46
 1769 323 1769 323 1669 243.5 c 132,-1,47
 1569 164 1569 164 1397.5 117.5 c 132,-1,48
 1226 71 1226 71 1024 71 c 132,-1,49
 822 71 822 71 650.5 117.5 c 132,-1,50
 479 164 479 164 379 243.5 c 132,-1,51
 279 323 279 323 279 416 c 4,52,53
 279 504 279 504 369 580.5 c 132,-1,54
 459 657 459 657 614 704.5 c 132,-1,55
 769 752 769 752 957 760 c 5,25,-1
973 524 m 5,56,-1
 981 412 l 5,57,58
 985 394 985 394 1024 394 c 132,-1,59
 1063 394 1063 394 1067 412 c 5,60,-1
 1075 524 l 5,61,62
 1156 516 1156 516 1209.5 485.5 c 132,-1,63
 1263 455 1263 455 1263 416 c 4,64,65
 1263 370 1263 370 1193 338 c 132,-1,66
 1123 306 1123 306 1024 306 c 132,-1,67
 925 306 925 306 855 338 c 132,-1,68
 785 370 785 370 785 416 c 4,69,70
 785 455 785 455 838.5 485.5 c 132,-1,71
 892 516 892 516 973 524 c 5,56,-1
EndSplineSet
EndChar

StartChar: business
Encoding: 102 102 8
Width: 2048
GlyphClass: 2
Flags: W
LayerCount: 2
Fore
SplineSet
1514 1557 m 6,0,1
 1735 1557 l 6,2,3
 1749 1557 1749 1557 1759 1547 c 132,-1,4
 1769 1537 1769 1537 1769 1523 c 6,5,-1
 1769 1302 l 6,6,7
 1769 1288 1769 1288 1759 1278 c 132,-1,8
 1749 1268 1749 1268 1735 1268 c 132,-1,9
 1721 1268 1721 1268 1711 1278 c 6,10,-1
 1673 1316 l 5,11,-1
 1263 906 l 6,12,13
 1247 890 1247 890 1224 890 c 132,-1,14
 1201 890 1201 890 1185 906 c 6,15,16
 824 1267 l 5,17,-1
 279 722 l 5,18,-1
 279 759 l 5,19,-1
 279 1013 l 5,20,-1
 785 1518 l 6,21,22
 802 1535 802 1535 824 1535 c 132,-1,23
 846 1535 846 1535 863 1518 c 6,24,-1
 1224 1157 l 5,25,-1
 1528 1461 l 5,26,-1
 1490 1499 l 6,27,28
 1480 1509 1480 1509 1480 1523 c 132,-1,29
 1480 1537 1480 1537 1490 1547 c 132,-1,30
 1500 1557 1500 1557 1514 1557 c 6,0,1
1535 938 m 6,31,-1
 1714 938 l 6,32,33
 1737 938 1737 938 1753 921.5 c 132,-1,34
 1769 905 1769 905 1769 882 c 6,35,-1
 1769 123 l 6,36,37
 1769 100 1769 100 1753 83.5 c 132,-1,38
 1737 67 1737 67 1714 67 c 6,39,-1
 1535 67 l 6,40,41
 1512 67 1512 67 1496 83.5 c 132,-1,42
 1480 100 1480 100 1480 123 c 6,43,-1
 1480 882 l 6,44,45
 1480 905 1480 905 1496 921.5 c 132,-1,46
 1512 938 1512 938 1535 938 c 6,31,-1
735 937 m 6,47,-1
 913 937 l 6,48,49
 936 937 936 937 952.5 921 c 132,-1,50
 969 905 969 905 969 882 c 6,51,-1
 969 123 l 6,52,53
 969 100 969 100 952.5 83.5 c 132,-1,54
 936 67 936 67 913 67 c 6,55,-1
 735 67 l 6,56,57
 712 67 712 67 695.5 83.5 c 132,-1,58
 679 100 679 100 679 123 c 6,59,-1
 679 882 l 6,60,61
 679 904 679 904 695.5 920.5 c 132,-1,62
 712 937 712 937 735 937 c 6,47,-1
1135 730 m 6,63,-1
 1314 730 l 6,64,65
 1337 730 1337 730 1353 713.5 c 132,-1,66
 1369 697 1369 697 1369 674 c 6,67,-1
 1369 123 l 6,68,69
 1369 100 1369 100 1353 83.5 c 132,-1,70
 1337 67 1337 67 1314 67 c 6,71,-1
 1135 67 l 6,72,73
 1112 67 1112 67 1095.5 83.5 c 132,-1,74
 1079 100 1079 100 1079 123 c 6,75,-1
 1079 674 l 6,76,77
 1079 696 1079 696 1095.5 713 c 132,-1,78
 1112 730 1112 730 1135 730 c 6,63,-1
334 538 m 6,79,-1
 513 538 l 6,80,81
 536 538 536 538 552.5 521.5 c 132,-1,82
 569 505 569 505 569 482 c 6,83,-1
 569 123 l 6,84,85
 569 100 569 100 552.5 83.5 c 132,-1,86
 536 67 536 67 513 67 c 6,87,-1
 334 67 l 6,88,89
 311 67 311 67 295 83.5 c 132,-1,90
 279 100 279 100 279 123 c 6,91,-1
 279 482 l 6,92,93
 279 505 279 505 295 521.5 c 132,-1,94
 311 538 311 538 334 538 c 6,79,-1
EndSplineSet
EndChar

StartChar: entertainment
Encoding: 103 103 9
Width: 2048
GlyphClass: 2
Flags: W
LayerCount: 2
Fore
SplineSet
335 1553 m 4,0,1
 345 1553 345 1553 357 1548 c 4,2,3
 543 1462 543 1462 748 1462 c 4,4,5
 951 1462 951 1462 1140 1549 c 4,6,7
 1148 1553 1148 1553 1161 1553 c 4,8,9
 1184 1553 1184 1553 1201 1535 c 132,-1,10
 1218 1517 1218 1517 1217 1493 c 5,11,-1
 1217 827 l 6,12,13
 1217 691 1217 691 1154 575.5 c 132,-1,14
 1091 460 1091 460 983 393 c 132,-1,15
 875 326 875 326 748 326 c 132,-1,16
 621 326 621 326 513 393 c 132,-1,17
 405 460 405 460 342 575.5 c 132,-1,18
 279 691 279 691 279 827 c 6,19,-1
 279 1494 l 6,20,21
 279 1519 279 1519 295.5 1536 c 132,-1,22
 312 1553 312 1553 335 1553 c 4,0,1
1714 1291 m 4,23,24
 1737 1291 1737 1291 1753 1273.5 c 132,-1,25
 1769 1256 1769 1256 1769 1231 c 6,26,-1
 1769 564 l 6,27,28
 1769 428 1769 428 1706.5 312.5 c 132,-1,29
 1644 197 1644 197 1536 130 c 132,-1,30
 1428 63 1428 63 1301 63 c 4,31,32
 1195 63 1195 63 1101.5 111 c 132,-1,33
 1008 159 1008 159 942 243 c 5,34,35
 1029 276 1029 276 1103 337 c 5,36,-1
 1500 337 l 6,37,38
 1528 337 1528 337 1547.5 359.5 c 132,-1,39
 1567 382 1567 382 1567 414 c 4,40,41
 1567 428 1567 428 1564 440 c 4,42,43
 1541 528 1541 528 1463 577.5 c 4,44,45
 1388.03 625.078 1388.03 625.078 1302.9 625.078 c 4,46,47
 1299.46 625.078 1299.46 625.078 1296 625 c 5,48,49
 1327 723 1327 723 1327 827 c 6,50,-1
 1327 1152 l 5,51,-1
 1327 1201 l 5,52,53
 1515 1205 1515 1205 1693 1287 c 4,54,55
 1701 1291 1701 1291 1714 1291 c 4,23,24
537 1160 m 132,-1,57
 490 1160 490 1160 454 1134 c 132,-1,58
 418 1108 418 1108 407 1068 c 4,59,60
 405 1060 405 1060 405 1055 c 4,61,62
 405 1039 405 1039 415 1027.5 c 132,-1,63
 425 1016 425 1016 439 1016 c 6,64,-1
 635 1016 l 6,65,66
 649 1016 649 1016 659 1027.5 c 132,-1,67
 669 1039 669 1039 669 1055 c 4,68,69
 669 1060 669 1060 667 1068 c 4,70,71
 656 1108 656 1108 620 1134 c 132,-1,56
 584 1160 584 1160 537 1160 c 132,-1,57
959 1160 m 132,-1,73
 912 1160 912 1160 876 1134 c 132,-1,74
 840 1108 840 1108 829 1068 c 4,75,76
 827 1060 827 1060 827 1055 c 4,77,78
 827 1039 827 1039 837 1027.5 c 132,-1,79
 847 1016 847 1016 861 1016 c 6,80,-1
 1057 1016 l 6,81,82
 1071 1016 1071 1016 1081 1027.5 c 132,-1,83
 1091 1039 1091 1039 1091 1055 c 4,84,85
 1091 1060 1091 1060 1089 1068 c 4,86,87
 1078 1108 1078 1108 1042 1134 c 132,-1,72
 1006 1160 1006 1160 959 1160 c 132,-1,73
1414 883 m 6,88,89
 1400 883 1400 883 1390 871.5 c 132,-1,90
 1380 860 1380 860 1380 844 c 4,91,92
 1380 839 1380 839 1382 831 c 4,93,94
 1393 791 1393 791 1429 765 c 132,-1,95
 1465 739 1465 739 1512 739 c 132,-1,96
 1559 739 1559 739 1595 765 c 132,-1,97
 1631 791 1631 791 1642 831 c 4,98,99
 1644 839 1644 839 1644 844 c 4,100,101
 1644 860 1644 860 1634.5 871.5 c 132,-1,102
 1625 883 1625 883 1611 883 c 6,103,-1
 1414 883 l 6,88,89
550 787 m 6,104,105
 522 787 522 787 502.5 764.5 c 132,-1,106
 483 742 483 742 483 710 c 4,107,108
 483 696 483 696 486 684 c 4,109,110
 506 604 506 604 579.5 551.5 c 132,-1,111
 653 499 653 499 748 499 c 132,-1,112
 843 499 843 499 916.5 551.5 c 132,-1,113
 990 604 990 604 1010 684 c 4,114,115
 1014 700 1014 700 1014 710 c 4,116,117
 1014 741 1014 741 994 764 c 132,-1,118
 974 787 974 787 946 787 c 6,119,-1
 550 787 l 6,104,105
EndSplineSet
EndChar

StartChar: politics
Encoding: 104 104 10
Width: 2048
GlyphClass: 2
Flags: W
LayerCount: 2
Fore
SplineSet
748 68 m 5,0,-1
 748 446 l 5,1,-1
 858 446 l 5,2,-1
 858 68 l 5,3,-1
 748 68 l 5,0,-1
969 68 m 5,4,-1
 969 446 l 5,5,-1
 1079 446 l 5,6,-1
 1079 68 l 5,7,-1
 969 68 l 5,4,-1
1190 68 m 5,8,-1
 1190 446 l 5,9,-1
 1301 446 l 5,10,-1
 1301 68 l 5,11,-1
 1190 68 l 5,8,-1
526 703 m 6,12,13
 526 725 526 725 542.5 741.5 c 132,-1,14
 559 758 559 758 582 758 c 6,15,-1
 1466 758 l 6,16,17
 1489 758 1489 758 1505.5 742 c 132,-1,18
 1522 726 1522 726 1522 703 c 6,19,-1
 1522 625 l 5,20,-1
 1728 569 l 6,21,22
 1746 564 1746 564 1757.5 549.5 c 132,-1,23
 1769 535 1769 535 1769 516 c 6,24,-1
 1769 68 l 5,25,-1
 1411 68 l 5,26,-1
 1411 544 l 5,27,-1
 1024 647 l 5,28,-1
 637 544 l 5,29,-1
 637 68 l 5,30,-1
 279 68 l 5,31,-1
 279 516 l 6,32,33
 279 535 279 535 290.5 549.5 c 132,-1,34
 302 564 302 564 320 569 c 6,35,-1
 526 625 l 5,36,-1
 526 703 l 6,12,13
951 1384 m 5,37,-1
 991 1533 l 6,38,39
 998 1558 998 1558 1024 1558 c 132,-1,40
 1050 1558 1050 1558 1057 1533 c 6,41,-1
 1098 1381 l 5,42,43
 1245 1352 1245 1352 1341.5 1236 c 132,-1,44
 1438 1120 1438 1120 1438 968 c 6,45,-1
 1438 869 l 5,46,-1
 595 869 l 5,47,-1
 595 968 l 6,48,49
 595 1125 595 1125 696.5 1243 c 132,-1,50
 798 1361 798 1361 951 1384 c 5,51,-1
 951 1384 l 5,37,-1
EndSplineSet
EndChar

StartChar: health
Encoding: 105 105 11
Width: 2048
GlyphClass: 2
Flags: W
LayerCount: 2
Fore
SplineSet
1006.93 154.986 m 0,0,1
 996.629 158.668 996.629 158.668 986.842 166.945 c 0,2,3
 971.424 179.988 971.424 179.988 683.889 468.953 c 128,-1,4
 396.354 757.918 396.354 757.918 386.686 770.086 c 0,5,6
 338.723 830.451 338.723 830.451 315.273 896.18 c 0,7,8
 272.514 1016.05 272.514 1016.05 299.695 1137.92 c 128,-1,9
 326.877 1259.78 326.877 1259.78 416.324 1349.23 c 0,10,11
 529.971 1462.87 529.971 1462.87 691.336 1475.47 c 0,12,13
 869.541 1489.39 869.541 1489.39 1007.89 1369.3 c 2,14,-1
 1024.67 1354.74 l 1,15,-1
 1042.58 1370.56 l 2,16,17
 1128.22 1446.24 1128.22 1446.24 1246.28 1469.02 c 0,18,19
 1388.71 1496.51 1388.71 1496.51 1517.13 1431.77 c 0,20,21
 1634.72 1372.5 1634.72 1372.5 1700.05 1261.51 c 0,22,23
 1759.8 1159.99 1759.8 1159.99 1758.85 1039.64 c 128,-1,24
 1757.91 919.292 1757.91 919.292 1696.58 818.779 c 0,25,26
 1676.31 785.567 1676.31 785.567 1639.17 746.091 c 128,-1,27
 1602.02 706.614 1602.02 706.614 1411.66 515.99 c 2,28,-1
 1168.95 272.941 l 1,29,-1
 1119.2 322.154 l 1,30,-1
 1069.46 371.365 l 1,31,-1
 1118.65 321.65 l 1,32,-1
 1167.85 271.936 l 1,33,-1
 1113.76 217.82 l 2,34,35
 1059.68 163.706 1059.68 163.706 1049.86 158.361 c 0,36,37
 1029.09 147.062 1029.09 147.062 1006.93 154.986 c 0,0,1
EndSplineSet
EndChar

StartChar: tags
Encoding: 106 106 12
Width: 2048
GlyphClass: 2
Flags: W
LayerCount: 2
Fore
SplineSet
1024 1559 m 132,-1,1
 1226 1559 1226 1559 1397.5 1509 c 132,-1,2
 1569 1459 1569 1459 1669 1372.5 c 132,-1,3
 1769 1286 1769 1286 1769 1184 c 6,4,-1
 1769 967 l 6,5,6
 1769 865 1769 865 1669 778.5 c 132,-1,7
 1569 692 1569 692 1397.5 642 c 132,-1,8
 1226 592 1226 592 1024 592 c 4,9,10
 899 592 899 592 797 609 c 5,11,-1
 797 662 l 6,12,13
 797 705 797 705 858.5 736 c 132,-1,14
 920 767 920 767 1006 767 c 6,15,-1
 1024 767 l 6,16,17
 1188 767 1188 767 1304.5 825.5 c 132,-1,18
 1421 884 1421 884 1421 967 c 6,19,-1
 1421 1184 l 6,20,21
 1421 1267 1421 1267 1304.5 1325.5 c 132,-1,22
 1188 1384 1188 1384 1024 1384 c 132,-1,23
 860 1384 860 1384 743.5 1325.5 c 132,-1,24
 627 1267 627 1267 627 1184 c 6,25,-1
 627 1087 l 5,26,27
 417 1036 417 1036 280 946 c 5,28,29
 279 953 279 953 279 967 c 6,30,-1
 279 1184 l 6,31,32
 279 1286 279 1286 379 1372.5 c 132,-1,33
 479 1459 479 1459 650.5 1509 c 132,-1,0
 822 1559 822 1559 1024 1559 c 132,-1,1
1024 1037 m 4,34,35
 1143 1037 1143 1037 1251 1019 c 5,36,-1
 1251 967 l 6,37,38
 1251 924 1251 924 1189.5 893 c 132,-1,39
 1128 862 1128 862 1042 862 c 6,40,-1
 1024 862 l 6,41,42
 860 862 860 862 743.5 803.5 c 132,-1,43
 627 745 627 745 627 662 c 6,44,-1
 627 445 l 6,45,46
 627 362 627 362 743.5 303.5 c 132,-1,47
 860 245 860 245 1024 245 c 132,-1,48
 1188 245 1188 245 1304.5 303.5 c 132,-1,49
 1421 362 1421 362 1421 445 c 6,50,-1
 1421 541 l 5,51,52
 1628 591 1628 591 1768 683 c 5,53,54
 1769 676 1769 676 1769 662 c 6,55,-1
 1769 445 l 6,56,57
 1769 343 1769 343 1669 256.5 c 132,-1,58
 1569 170 1569 170 1397.5 119.5 c 132,-1,59
 1226 69 1226 69 1024 69 c 132,-1,60
 822 69 822 69 650.5 119.5 c 132,-1,61
 479 170 479 170 379 256.5 c 132,-1,62
 279 343 279 343 279 445 c 6,63,-1
 279 662 l 6,64,65
 279 764 279 764 379 850.5 c 132,-1,66
 479 937 479 937 650.5 987 c 132,-1,67
 822 1037 822 1037 1024 1037 c 4,34,35
EndSplineSet
EndChar

StartChar: link
Encoding: 107 107 13
Width: 2048
GlyphClass: 2
Flags: W
LayerCount: 2
Fore
SplineSet
1330 1556 m 4,0,1
 1512 1556 1512 1556 1640 1428 c 4,2,3
 1769 1299 1769 1299 1769 1117 c 132,-1,4
 1769 935 1769 935 1640 806 c 6,5,-1
 1461 627 l 6,6,7
 1332 498 1332 498 1150.5 498 c 132,-1,8
 969 498 969 498 840 627 c 4,9,10
 791 676 791 676 760 736 c 5,11,-1
 803 780 l 6,12,13
 839 816 839 816 890 816 c 132,-1,14
 941 816 941 816 977 780 c 6,15,-1
 985 772 l 6,16,17
 1053 704 1053 704 1150.5 704 c 132,-1,18
 1248 704 1248 704 1316 772 c 6,19,-1
 1495 951 l 6,20,21
 1563 1019 1563 1019 1563 1117 c 132,-1,22
 1563 1215 1563 1215 1495 1283 c 132,-1,23
 1427 1351 1427 1351 1329.5 1351 c 132,-1,24
 1232 1351 1232 1351 1164 1283 c 6,25,-1
 1084 1203 l 5,26,27
 993.286 1235.14 993.286 1235.14 898.49 1235.14 c 4,28,29
 860.571 1235.14 860.571 1235.14 822 1230 c 5,30,-1
 840 1248 l 5,31,-1
 1019 1428 l 6,32,33
 1147 1556 1147 1556 1330 1556 c 4,0,1
898 1124 m 4,34,35
 1080 1124 1080 1124 1208 996 c 4,36,37
 1256 948 1256 948 1288 886 c 5,38,-1
 1245 843 l 6,39,40
 1209 807 1209 807 1158 807 c 132,-1,41
 1107 807 1107 807 1071 843 c 6,42,-1
 1063 851 l 6,43,44
 995 919 995 919 897.5 919 c 132,-1,45
 800 919 800 919 732 851 c 6,46,-1
 553 671 l 6,47,48
 485 603 485 603 485 505.5 c 132,-1,49
 485 408 485 408 553 340 c 132,-1,50
 621 272 621 272 718.5 272 c 132,-1,51
 816 272 816 272 884 340 c 6,52,-1
 964 420 l 5,53,54
 1056.72 386.938 1056.72 386.938 1151.5 386.938 c 4,55,56
 1188.59 386.938 1188.59 386.938 1226 392 c 5,57,-1
 1208 374 l 5,58,-1
 1029 195 l 6,59,60
 900 66 900 66 718.5 66 c 132,-1,61
 537 66 537 66 408 195 c 132,-1,62
 279 324 279 324 279 505.5 c 132,-1,63
 279 687 279 687 408 816 c 6,64,-1
 587 996 l 6,65,66
 715 1124 715 1124 898 1124 c 4,34,35
EndSplineSet
EndChar

StartChar: video
Encoding: 108 108 14
Width: 2048
GlyphClass: 2
Flags: W
LayerCount: 2
Fore
SplineSet
339 1557 m 6,0,1
 1501 1557 l 6,2,3
 1523 1557 1523 1557 1534.5 1541.5 c 132,-1,4
 1546 1526 1546 1526 1546 1502 c 6,5,-1
 1546 233 l 6,6,7
 1546 211 1546 211 1564 194.5 c 132,-1,8
 1582 178 1582 178 1605 178 c 132,-1,9
 1628 178 1628 178 1646.5 194 c 132,-1,10
 1665 210 1665 210 1665 233 c 6,11,-1
 1665 1352 l 5,12,-1
 1710 1352 l 6,13,14
 1733 1352 1733 1352 1751 1335.5 c 132,-1,15
 1769 1319 1769 1319 1769 1297 c 6,16,-1
 1769 233 l 6,17,18
 1769 164 1769 164 1720.5 115.5 c 132,-1,19
 1672 67 1672 67 1605 67 c 6,20,-1
 443 67 l 5,21,22
 441.673 66.9805 441.673 66.9805 440.354 66.9805 c 4,23,24
 375.04 66.9805 375.04 66.9805 327.5 115.5 c 4,25,26
 279 165 279 165 279 233 c 6,27,-1
 279 1502 l 6,28,29
 279 1525 279 1525 297.5 1541 c 132,-1,30
 316 1557 316 1557 339 1557 c 6,0,1
398 1447 m 5,31,-1
 398 1245 l 5,32,-1
 592 1245 l 5,33,-1
 592 1447 l 5,34,-1
 398 1447 l 5,31,-1
1233 1447 m 5,35,-1
 1233 1245 l 5,36,-1
 1441 1245 l 5,37,-1
 1441 1447 l 5,38,-1
 1233 1447 l 5,35,-1
398 1091 m 5,39,-1
 398 890 l 5,40,-1
 592 890 l 5,41,-1
 592 1091 l 5,42,-1
 398 1091 l 5,39,-1
1233 1091 m 5,43,-1
 1233 890 l 5,44,-1
 1441 890 l 5,45,-1
 1441 1091 l 5,46,-1
 1233 1091 l 5,43,-1
398 735 m 5,47,-1
 398 534 l 5,48,-1
 592 534 l 5,49,-1
 592 735 l 5,50,-1
 398 735 l 5,47,-1
1233 735 m 5,51,-1
 1233 534 l 5,52,-1
 1441 534 l 5,53,-1
 1441 735 l 5,54,-1
 1233 735 l 5,51,-1
398 379 m 5,55,-1
 398 178 l 5,56,-1
 592 178 l 5,57,-1
 592 379 l 5,58,-1
 398 379 l 5,55,-1
1233 379 m 5,59,-1
 1233 178 l 5,60,-1
 1441 178 l 5,61,-1
 1441 379 l 5,62,-1
 1233 379 l 5,59,-1
EndSplineSet
EndChar

StartChar: slideshow
Encoding: 109 109 15
Width: 2048
GlyphClass: 2
Flags: W
LayerCount: 2
Fore
SplineSet
777 1564 m 6,0,1
 1714 1564 l 6,2,3
 1737 1564 1737 1564 1753 1545.5 c 132,-1,4
 1769 1527 1769 1527 1769 1501 c 6,5,-1
 1769 646 l 6,6,7
 1769 620 1769 620 1753 601.5 c 132,-1,8
 1737 583 1737 583 1714 583 c 6,9,-1
 1658 583 l 5,10,-1
 1658 1437 l 5,11,-1
 722 1437 l 5,12,-1
 722 1501 l 6,13,14
 722 1527 722 1527 738 1545.5 c 132,-1,15
 754 1564 754 1564 777 1564 c 6,0,1
556 1310 m 6,16,-1
 1492 1310 l 6,17,18
 1515 1310 1515 1310 1531.5 1291.5 c 132,-1,19
 1548 1273 1548 1273 1548 1247 c 6,20,-1
 1548 392 l 6,21,22
 1548 366 1548 366 1531.5 347.5 c 132,-1,23
 1515 329 1515 329 1492 329 c 6,24,-1
 1437 329 l 5,25,-1
 1437 1183 l 5,26,-1
 501 1183 l 5,27,-1
 501 1247 l 6,28,29
 501 1273 501 1273 517 1291.5 c 132,-1,30
 533 1310 533 1310 556 1310 c 6,16,-1
335 1056 m 6,31,-1
 1271 1056 l 6,32,33
 1294 1056 1294 1056 1310 1037 c 132,-1,34
 1326 1018 1326 1018 1326 992 c 6,35,-1
 1326 138 l 6,36,37
 1326 112 1326 112 1310 93 c 132,-1,38
 1294 74 1294 74 1271 74 c 6,39,-1
 335 74 l 6,40,41
 312 74 312 74 295.5 93 c 132,-1,42
 279 112 279 112 279 138 c 6,43,-1
 279 992 l 6,44,45
 279 1018 279 1018 295.5 1037 c 132,-1,46
 312 1056 312 1056 335 1056 c 6,31,-1
EndSplineSet
EndChar

StartChar: qa
Encoding: 110 110 16
Width: 2048
GlyphClass: 2
Flags: W
LayerCount: 2
Fore
SplineSet
781 1560 m 132,-1,1
 883 1560 883 1560 976 1520 c 132,-1,2
 1069 1480 1069 1480 1136 1413 c 132,-1,3
 1203 1346 1203 1346 1243 1253 c 132,-1,4
 1283 1160 1283 1160 1283 1058 c 4,5,6
 1283 851 1283 851 1136 704 c 6,7,-1
 781 349 l 5,8,-1
 781 557 l 5,9,10
 645 557 645 557 529 624 c 132,-1,11
 413 691 413 691 346 806.5 c 132,-1,12
 279 922 279 922 279 1058 c 4,13,14
 279 1160 279 1160 319 1253 c 132,-1,15
 359 1346 359 1346 426 1413 c 132,-1,16
 493 1480 493 1480 586 1520 c 132,-1,0
 679 1560 679 1560 781 1560 c 132,-1,1
1391 1010 m 5,17,18
 1549 1005 1549 1005 1659 892 c 132,-1,19
 1769 779 1769 779 1769 621 c 4,20,21
 1769 460 1769 460 1655 345.5 c 132,-1,22
 1541 231 1541 231 1380 231 c 5,23,-1
 1380 70 l 5,24,-1
 1104 346 l 6,25,26
 1062 388 1062 388 1033 444 c 5,27,-1
 1214 626 l 6,28,29
 1373 785 1373 785 1391 1010 c 5,17,18
EndSplineSet
EndChar

StartChar: series
Encoding: 111 111 17
Width: 2048
GlyphClass: 2
Flags: W
LayerCount: 2
Fore
SplineSet
1714.01 1563 m 2,0,1
 1737.01 1563 1737.01 1563 1753.01 1544.5 c 128,-1,2
 1769.01 1526 1769.01 1526 1769.01 1500 c 2,3,-1
 1769.01 264 l 2,4,5
 1769.01 185 1769.01 185 1720.51 129 c 128,-1,6
 1672.01 73 1672.01 73 1603.01 73 c 2,7,-1
 445.01 73 l 1,8,9
 443.865 72.9824 443.865 72.9824 442.724 72.9824 c 0,10,11
 377.155 72.9824 377.155 72.9824 328.01 129.5 c 128,-1,12
 278.99 185.873 278.99 185.873 278.99 260.988 c 0,13,14
 278.99 262.49 278.99 262.49 279.01 264 c 1,15,-1
 279.01 1245 l 2,16,17
 279.01 1271 279.01 1271 295.01 1290 c 128,-1,18
 311.01 1309 311.01 1309 334.01 1309 c 2,19,-1
 1492.01 1309 l 2,20,21
 1515.01 1309 1515.01 1309 1531.51 1290.5 c 128,-1,22
 1548.01 1272 1548.01 1272 1548.01 1246 c 2,23,-1
 1548.01 264 l 2,24,25
 1548.01 238 1548.01 238 1564.01 219 c 128,-1,26
 1580.01 200 1580.01 200 1603.01 200 c 128,-1,27
 1626.01 200 1626.01 200 1642.01 219 c 128,-1,28
 1658.01 238 1658.01 238 1658.01 264 c 2,29,-1
 1658.01 1436 l 1,30,-1
 1489.01 1436 l 1,31,-1
 500.01 1436 l 1,32,-1
 500.01 1499 l 2,33,34
 500.01 1525 500.01 1525 516.51 1544 c 128,-1,35
 533.01 1563 533.01 1563 556.01 1563 c 2,36,-1
 1714.01 1563 l 2,0,1
848.01 1011 m 1,37,38
 834.01 1010 834.01 1010 825.01 999 c 128,-1,39
 816.01 988 816.01 988 816.01 972 c 2,40,-1
 816.01 410 l 2,41,42
 816.01 394 816.01 394 826.01 382.5 c 128,-1,43
 836.01 371 836.01 371 850.01 371 c 0,44,45
 863.01 371 863.01 371 873.01 383 c 2,46,-1
 1118.01 664 l 2,47,48
 1128.01 676 1128.01 676 1128.01 691 c 128,-1,49
 1128.01 706 1128.01 706 1118.01 718 c 2,50,-1
 873.01 1000 l 2,51,52
 864.01 1011 864.01 1011 850.01 1011 c 2,53,-1
 848.01 1011 l 1,37,38
EndSplineSet
EndChar

StartChar: left
Encoding: 112 112 18
Width: 2048
GlyphClass: 2
Flags: W
LayerCount: 2
Fore
SplineSet
1435.31 1558 m 4,0,1
 1480.31 1558 1480.31 1558 1512.31 1538 c 6,2,-1
 1737.31 1394 l 6,3,4
 1768.31 1374 1768.31 1374 1768.31 1345 c 132,-1,5
 1768.31 1316 1768.31 1316 1737.31 1296 c 6,6,-1
 982.312 813 l 5,7,-1
 1737.31 330 l 6,8,9
 1768.31 310 1768.31 310 1768.31 281.5 c 132,-1,10
 1768.31 253 1768.31 253 1737.31 233 c 6,11,-1
 1512.31 89 l 6,12,13
 1480.31 69 1480.31 69 1435.31 69 c 132,-1,14
 1390.31 69 1390.31 69 1359.31 89 c 6,15,-1
 310.312 758 l 6,16,17
 275.312 780 275.312 780 280.312 813 c 5,18,19
 275.312 846 275.312 846 310.312 868 c 6,20,-1
 1359.31 1538 l 6,21,22
 1391.31 1558 1391.31 1558 1435.31 1558 c 4,0,1
EndSplineSet
EndChar

StartChar: play
Encoding: 113 113 19
Width: 2048
GlyphClass: 2
Flags: W
LayerCount: 2
Fore
SplineSet
439 1556 m 132,-1,1
 505 1556 505 1556 552 1530 c 6,2,-1
 1722 875 l 6,3,4
 1769 849 1769 849 1769 811 c 4,5,6
 1769 774 1769 774 1722 748 c 6,7,-1
 552 93 l 6,8,9
 503 66 503 66 439 66 c 4,10,11
 373 66 373 66 326 92.5 c 132,-1,12
 279 119 279 119 279 156 c 6,13,-1
 279 1467 l 6,14,15
 279 1504 279 1504 326 1530 c 132,-1,0
 373 1556 373 1556 439 1556 c 132,-1,1
EndSplineSet
EndChar

StartChar: star
Encoding: 114 114 20
Width: 2048
GlyphClass: 2
Flags: W
LayerCount: 2
Fore
SplineSet
1024 1560 m 132,-1,1
 1026 1560 1026 1560 1029 1559.5 c 132,-1,2
 1032 1559 1032 1559 1033 1559 c 6,3,-1
 1042 1559 l 5,4,5
 1045 1558 1045 1558 1056 1554 c 5,6,-1
 1057 1553 l 5,7,-1
 1058 1553 l 5,8,-1
 1060 1553 l 5,9,10
 1067 1550 1067 1550 1074 1545 c 4,11,12
 1075 1544 1075 1544 1077 1542.5 c 132,-1,13
 1079 1541 1079 1541 1080 1540 c 132,-1,14
 1081 1539 1081 1539 1083.5 1537 c 132,-1,15
 1086 1535 1086 1535 1087 1534 c 132,-1,16
 1088 1533 1088 1533 1090 1530 c 132,-1,17
 1092 1527 1092 1527 1093 1526 c 6,18,-1
 1099 1520 l 6,19,20
 1101 1518 1101 1518 1105 1507 c 5,21,-1
 1106 1505 l 6,22,23
 1107 1505 1107 1505 1107 1504 c 6,24,-1
 1260 1069 l 5,25,-1
 1680 1069 l 6,26,27
 1717 1069 1717 1069 1743 1042.5 c 132,-1,28
 1769 1016 1769 1016 1769 978 c 132,-1,29
 1769 940 1769 940 1743 914 c 5,30,-1
 1406 674 l 5,31,-1
 1548 196 l 5,32,33
 1555 179 1555 179 1555 161.625 c 132,-1,34
 1555 144.25 1555 144.25 1548 126.5 c 4,35,36
 1534 91 1534 91 1500 77 c 4,37,38
 1483 69.5 1483 69.5 1465.75 69.5 c 132,-1,39
 1448.5 69.5 1448.5 69.5 1431 77 c 5,40,-1
 1024 375 l 5,41,-1
 617 77 l 5,42,43
 599.5 69.5 599.5 69.5 582.25 69.5 c 132,-1,44
 565 69.5 565 69.5 548 77 c 4,45,46
 514 91 514 91 500 126.5 c 4,47,48
 493 144.25 493 144.25 493 161.625 c 132,-1,49
 493 179 493 179 500 196 c 5,50,-1
 642 674 l 5,51,-1
 306 914 l 5,52,53
 279 941 279 941 279 978 c 132,-1,54
 279 1015 279 1015 305.5 1042 c 132,-1,55
 332 1069 332 1069 369 1069 c 6,56,-1
 788 1069 l 5,57,-1
 941 1504 l 6,58,59
 941 1506 941 1506 943 1508 c 4,60,61
 947 1516 947 1516 950 1520 c 4,62,63
 951 1521 951 1521 952.5 1523.5 c 132,-1,64
 954 1526 954 1526 955 1527 c 132,-1,65
 956 1528 956 1528 958 1530.5 c 132,-1,66
 960 1533 960 1533 961 1534 c 4,67,68
 965 1538 965 1538 968 1540 c 4,69,70
 972 1544 972 1544 974 1545 c 4,71,72
 984 1551 984 1551 990 1553 c 4,73,74
 992 1554 992 1554 995.5 1555.5 c 132,-1,75
 999 1557 999 1557 1001.5 1558 c 132,-1,76
 1004 1559 1004 1559 1007 1559 c 6,77,-1
 1014 1559 l 6,78,79
 1016 1559 1016 1559 1019 1559.5 c 132,-1,0
 1022 1560 1022 1560 1024 1560 c 132,-1,1
EndSplineSet
EndChar

StartChar: ministar
Encoding: 115 115 21
Width: 2048
GlyphClass: 2
Flags: W
LayerCount: 2
Fore
SplineSet
1024 1555 m 132,-1,1
 1025 1555 1025 1555 1028 1554.5 c 132,-1,2
 1031 1554 1031 1554 1033 1554 c 4,3,4
 1039 1554 1039 1554 1042 1553 c 4,5,6
 1050 1551 1050 1551 1056 1549 c 4,7,8
 1057 1549 1057 1549 1058 1548 c 5,9,-1
 1059 1548 l 5,10,11
 1059 1547 1059 1547 1060 1547 c 4,12,13
 1070 1543 1070 1543 1074 1540 c 6,14,-1
 1080 1534 l 6,15,16
 1081 1533 1081 1533 1084 1531 c 132,-1,17
 1087 1529 1087 1529 1088 1528 c 132,-1,18
 1089 1527 1089 1527 1090.5 1524.5 c 132,-1,19
 1092 1522 1092 1522 1093 1521 c 6,20,-1
 1099 1515 l 6,21,22
 1103 1510 1103 1510 1106 1502 c 6,23,-1
 1107 1500 l 5,24,-1
 1107 1499 l 6,25,-1
 1260 1064 l 5,26,-1
 1680 1064 l 6,27,28
 1717 1064 1717 1064 1743 1037.5 c 132,-1,29
 1769 1011 1769 1011 1769 973 c 132,-1,30
 1769 935 1769 935 1743 909 c 5,31,-1
 1406 669 l 5,32,-1
 1548 191 l 5,33,34
 1555 174 1555 174 1555 156.625 c 132,-1,35
 1555 139.25 1555 139.25 1548 121.5 c 4,36,37
 1534 86 1534 86 1500 72 c 4,38,39
 1483 64.5 1483 64.5 1465.75 64.5 c 132,-1,40
 1448.5 64.5 1448.5 64.5 1431 72 c 5,41,-1
 1024 370 l 5,42,-1
 617 72 l 5,43,44
 600 64.5 600 64.5 583 64.5 c 4,45,-1
 549 72 l 4,46,47
 515 86 515 86 500.5 121 c 4,48,49
 493.123 138.807 493.123 138.807 493.123 156.614 c 4,50,51
 493.123 173.807 493.123 173.807 500 191 c 5,52,-1
 642 669 l 5,53,-1
 306 908 l 5,54,55
 279 935 279 935 279 973 c 4,56,57
 279 1010 279 1010 305.5 1037 c 132,-1,58
 332 1064 332 1064 369 1064 c 6,59,-1
 788 1064 l 5,60,-1
 941 1499 l 6,61,62
 941 1500 941 1500 943 1502 c 4,63,64
 944 1504 944 1504 946.5 1508.5 c 132,-1,65
 949 1513 949 1513 950 1515 c 4,66,67
 951 1516 951 1516 952.5 1518.5 c 132,-1,68
 954 1521 954 1521 955 1522 c 6,69,-1
 961 1528 l 6,70,71
 966 1533 966 1533 969 1535 c 6,72,-1
 974 1540 l 5,73,74
 984 1546 984 1546 990 1548 c 4,75,76
 1003 1552 1003 1552 1007 1553 c 4,77,78
 1009 1554 1009 1554 1014 1554 c 4,79,80
 1015 1554 1015 1554 1019 1554.5 c 132,-1,0
 1023 1555 1023 1555 1024 1555 c 132,-1,1
EndSplineSet
EndChar

StartChar: pause
Encoding: 116 116 22
Width: 2048
GlyphClass: 2
Flags: W
LayerCount: 2
Fore
SplineSet
362 1563 m 6,0,1
 755 1563 l 6,2,3
 789 1563 789 1563 813.5 1547 c 132,-1,4
 838 1531 838 1531 838 1508 c 6,5,-1
 838 128 l 6,6,7
 838 105 838 105 813.5 89 c 132,-1,8
 789 73 789 73 755 73 c 6,9,-1
 362 73 l 6,10,11
 328 73 328 73 303.5 89 c 132,-1,12
 279 105 279 105 279 128 c 6,13,-1
 279 1508 l 6,14,15
 279 1531 279 1531 303.5 1547 c 132,-1,16
 328 1563 328 1563 362 1563 c 6,0,1
1293 1563 m 6,17,-1
 1687 1563 l 6,18,19
 1721 1563 1721 1563 1745 1547 c 132,-1,20
 1769 1531 1769 1531 1769 1508 c 6,21,-1
 1769 128 l 6,22,23
 1769 105 1769 105 1745 89 c 132,-1,24
 1721 73 1721 73 1687 73 c 6,25,-1
 1293 73 l 6,26,27
 1259 73 1259 73 1234.5 89 c 132,-1,28
 1210 105 1210 105 1210 128 c 6,29,-1
 1210 1508 l 6,30,31
 1210 1531 1210 1531 1234.5 1547 c 132,-1,32
 1259 1563 1259 1563 1293 1563 c 6,17,-1
EndSplineSet
EndChar

StartChar: pin
Encoding: 117 117 23
Width: 2048
GlyphClass: 2
Flags: W
LayerCount: 2
Fore
SplineSet
319 1557 m 6,0,1
 1728 1557 l 6,2,3
 1747 1557 1747 1557 1760.5 1532 c 132,-1,4
 1774 1507 1774 1507 1774 1472 c 6,5,-1
 1774 698 l 6,6,7
 1774 663 1774 663 1760.5 638 c 132,-1,8
 1747 613 1747 613 1728 613 c 6,9,-1
 1049 613 l 5,10,-1
 1049 57 l 5,11,-1
 999 57 l 5,12,-1
 999 613 l 5,13,-1
 319 613 l 6,14,15
 300 613 300 613 287 638 c 132,-1,16
 274 663 274 663 274 698 c 6,17,-1
 274 1472 l 6,18,19
 274 1507 274 1507 287 1532 c 132,-1,20
 300 1557 300 1557 319 1557 c 6,0,1
EndSplineSet
EndChar

StartChar: replay
Encoding: 118 118 24
Width: 2048
GlyphClass: 2
Flags: W
LayerCount: 2
Fore
SplineSet
1097.67 46.7715 m 4,0,1
 926.014 60.1895 926.014 60.1895 774.924 146.524 c 132,-1,2
 623.834 232.859 623.834 232.859 523.863 374.652 c 6,3,-1
 515.418 386.633 l 5,4,-1
 571.52 442.777 l 6,5,6
 627.629 498.922 627.629 498.922 629.154 498.922 c 132,-1,7
 630.68 498.922 630.68 498.922 642.701 480.797 c 4,8,9
 761.652 301.396 761.652 301.396 962.68 234.359 c 4,10,11
 1037.29 209.479 1037.29 209.479 1122.99 203.549 c 4,12,13
 1347.09 188.043 1347.09 188.043 1535.69 329.299 c 4,14,15
 1601.64 378.695 1601.64 378.695 1651.08 444.699 c 4,16,17
 1726.24 545.059 1726.24 545.059 1756.72 658.578 c 4,18,19
 1794.31 798.615 1794.31 798.615 1766.86 938.157 c 132,-1,20
 1739.42 1077.7 1739.42 1077.7 1651.08 1195.65 c 4,21,22
 1601.64 1261.65 1601.64 1261.65 1535.69 1311.05 c 4,23,24
 1400.07 1412.62 1400.07 1412.62 1236.8 1433.55 c 132,-1,25
 1073.53 1454.48 1073.53 1454.48 919.662 1390.02 c 4,26,27
 787.887 1334.81 787.887 1334.81 692.354 1224.63 c 132,-1,28
 596.818 1114.46 596.818 1114.46 561.15 976.559 c 4,29,30
 543.918 909.925 543.918 909.925 543.918 883.938 c 4,31,32
 543.918 882.926 543.918 882.926 554.91 893.044 c 132,-1,33
 565.904 903.162 565.904 903.162 584.777 921.495 c 132,-1,34
 603.65 939.828 603.65 939.828 625.793 961.945 c 4,35,36
 707.662 1043.69 707.662 1043.69 715.055 1046.44 c 132,-1,37
 722.443 1049.19 722.443 1049.19 732.555 1047.54 c 132,-1,38
 742.668 1045.89 742.668 1045.89 784.217 1004.28 c 4,39,40
 816.871 971.584 816.871 971.584 823.023 962.223 c 132,-1,41
 829.174 952.863 829.174 952.863 827.111 939.013 c 4,42,43
 825.795 930.173 825.795 930.173 660.541 764.564 c 132,-1,44
 495.293 598.961 495.293 598.961 487.35 595.189 c 4,45,46
 471.627 587.731 471.627 587.731 454.703 594.052 c 4,47,48
 447.668 596.676 447.668 596.676 281.986 762.177 c 4,49,50
 147.752 896.26 147.752 896.26 128.654 918.245 c 132,-1,51
 109.557 940.23 109.557 940.23 113.758 955.834 c 4,52,53
 116.291 965.248 116.291 965.248 156.979 1005.56 c 132,-1,54
 197.666 1045.88 197.666 1045.88 207.779 1047.53 c 132,-1,55
 217.895 1049.19 217.895 1049.19 225.277 1046.44 c 132,-1,56
 232.672 1043.68 232.672 1043.68 309.312 967.172 c 6,57,-1
 385.961 890.658 l 5,58,-1
 387.639 905.414 l 6,59,60
 411.918 1118.99 411.918 1118.99 541.842 1289.73 c 132,-1,61
 671.766 1460.48 671.766 1460.48 870.875 1540.48 c 4,62,63
 1024.47 1602.2 1024.47 1602.2 1191.53 1595.29 c 132,-1,64
 1358.59 1588.37 1358.59 1588.37 1506.41 1514.18 c 4,65,66
 1616.9 1458.73 1616.9 1458.73 1707.8 1367.81 c 4,67,68
 1898.8 1176.77 1898.8 1176.77 1931.92 903.922 c 4,69,70
 1935 878.541 1935 878.541 1935 820.172 c 132,-1,71
 1935 761.804 1935 761.804 1931.92 736.422 c 4,72,73
 1909.29 550.067 1909.29 550.067 1812.58 400.15 c 4,74,75
 1717.2 252.305 1717.2 252.305 1567.66 160.064 c 4,76,77
 1351.79 26.9062 1351.79 26.9062 1097.67 46.7715 c 4,0,1
EndSplineSet
EndChar

StartChar: pause2
Encoding: 119 119 25
Width: 2048
GlyphClass: 2
Flags: W
LayerCount: 2
Fore
SplineSet
1024 1573 m 132,-1,1
 1177 1573 1177 1573 1315.5 1513.5 c 132,-1,2
 1454 1454 1454 1454 1554.5 1353.5 c 132,-1,3
 1655 1253 1655 1253 1714.5 1114.5 c 132,-1,4
 1774 976 1774 976 1774 823 c 132,-1,5
 1774 670 1774 670 1714.5 531.5 c 132,-1,6
 1655 393 1655 393 1554.5 292.5 c 132,-1,7
 1454 192 1454 192 1315.5 132.5 c 132,-1,8
 1177 73 1177 73 1024 73 c 132,-1,9
 871 73 871 73 732.5 132.5 c 132,-1,10
 594 192 594 192 493.5 292.5 c 132,-1,11
 393 393 393 393 333.5 531.5 c 132,-1,12
 274 670 274 670 274 823 c 132,-1,13
 274 976 274 976 333.5 1114.5 c 132,-1,14
 393 1253 393 1253 493.5 1353.5 c 132,-1,15
 594 1454 594 1454 732.5 1513.5 c 132,-1,0
 871 1573 871 1573 1024 1573 c 132,-1,1
1024 1421 m 4,16,17
 862 1421 862 1421 724.5 1341 c 132,-1,18
 587 1261 587 1261 507 1123 c 132,-1,19
 427 985 427 985 427 823 c 132,-1,20
 427 661 427 661 507 523.5 c 132,-1,21
 587 386 587 386 724.5 306 c 132,-1,22
 862 226 862 226 1024 226 c 132,-1,23
 1186 226 1186 226 1324 306 c 132,-1,24
 1462 386 1462 386 1542 523.5 c 132,-1,25
 1622 661 1622 661 1622 823 c 4,26,27
 1622 945 1622 945 1574.5 1055.5 c 132,-1,28
 1527 1166 1527 1166 1447 1246 c 132,-1,29
 1367 1326 1367 1326 1256.5 1373.5 c 132,-1,30
 1146 1421 1146 1421 1024 1421 c 4,16,17
836 1140 m 6,31,32
 948 1140 l 6,33,34
 958 1140 958 1140 964.5 1133.5 c 132,-1,35
 971 1127 971 1127 971 1117 c 6,36,-1
 971 529 l 6,37,38
 971 519 971 519 964.5 512.5 c 132,-1,39
 958 506 958 506 948 506 c 6,40,-1
 836 506 l 6,41,42
 826 506 826 506 819 512.5 c 132,-1,43
 812 519 812 519 812 529 c 6,44,-1
 812 1117 l 6,45,46
 812 1127 812 1127 819 1133.5 c 132,-1,47
 826 1140 826 1140 836 1140 c 6,31,32
1100 1140 m 6,48,-1
 1213 1140 l 6,49,50
 1223 1140 1223 1140 1229.5 1133.5 c 132,-1,51
 1236 1127 1236 1127 1236 1117 c 6,52,-1
 1236 529 l 6,53,54
 1236 519 1236 519 1229.5 512.5 c 132,-1,55
 1223 506 1223 506 1213 506 c 6,56,-1
 1100 506 l 6,57,58
 1090 506 1090 506 1083.5 512.5 c 132,-1,59
 1077 519 1077 519 1077 529 c 6,60,-1
 1077 1117 l 6,61,62
 1077 1127 1077 1127 1083.5 1133.5 c 132,-1,63
 1090 1140 1090 1140 1100 1140 c 6,48,-1
EndSplineSet
EndChar

StartChar: previous
Encoding: 120 120 26
Width: 2048
GlyphClass: 2
Flags: W
LayerCount: 2
Fore
SplineSet
331 1561 m 6,0,1
 602 1561 l 6,2,3
 625 1561 625 1561 642 1545 c 132,-1,4
 659 1529 659 1529 659 1506 c 6,5,-1
 659 117 l 6,6,7
 659 94 659 94 642 77.5 c 132,-1,8
 625 61 625 61 602 61 c 6,9,-1
 331 61 l 6,10,11
 308 61 308 61 291 77.5 c 132,-1,12
 274 94 274 94 274 117 c 6,13,-1
 274 1506 l 6,14,15
 274 1529 274 1529 291 1545 c 132,-1,16
 308 1561 308 1561 331 1561 c 6,0,1
1682 1561 m 4,17,18
 1720 1561 1720 1561 1747 1534.5 c 132,-1,19
 1774 1508 1774 1508 1774 1471 c 6,20,-1
 1774 152 l 6,21,22
 1774 114 1774 114 1747 87.5 c 132,-1,23
 1720 61 1720 61 1682 61 c 4,24,25
 1646 61 1646 61 1617 88 c 6,26,-1
 941 748 l 6,27,28
 914 773 914 773 914 812 c 4,29,30
 914 850 914 850 941 875 c 6,31,-1
 1617 1535 l 6,32,33
 1645 1561 1645 1561 1682 1561 c 4,17,18
EndSplineSet
EndChar

StartChar: cross
Encoding: 121 121 27
Width: 2048
GlyphClass: 2
Flags: W
LayerCount: 2
Fore
SplineSet
487 1565 m 4,0,1
 515 1565 515 1565 535 1545 c 6,2,-1
 1024 1056 l 5,3,-1
 1513 1545 l 6,4,5
 1533 1565 1533 1565 1561.5 1565 c 132,-1,6
 1590 1565 1590 1565 1610 1545 c 6,7,-1
 1754 1401 l 6,8,9
 1774 1381 1774 1381 1774 1352.5 c 132,-1,10
 1774 1324 1774 1324 1754 1304 c 6,11,-1
 1265 815 l 5,12,-1
 1754 326 l 6,13,14
 1774 306 1774 306 1774 277.5 c 132,-1,15
 1774 249 1774 249 1754 229 c 6,16,-1
 1610 85 l 6,17,18
 1590 65 1590 65 1561.5 65 c 132,-1,19
 1533 65 1533 65 1513 85 c 6,20,-1
 1024 574 l 5,21,-1
 535 85 l 6,22,23
 515 65 515 65 486.5 65 c 132,-1,24
 458 65 458 65 438 85 c 6,25,-1
 294 229 l 6,26,27
 274 249 274 249 274 277.5 c 132,-1,28
 274 306 274 306 294 326 c 6,29,-1
 783 815 l 5,30,-1
 294 1304 l 6,31,32
 274 1324 274 1324 274 1352.5 c 132,-1,33
 274 1381 274 1381 294 1401 c 6,34,-1
 438 1545 l 6,35,36
 458 1565 458 1565 487 1565 c 4,0,1
EndSplineSet
EndChar

StartChar: rightshift
Encoding: 122 122 28
Width: 2048
GlyphClass: 2
Flags: W
LayerCount: 2
Fore
SplineSet
802.057 1443 m 0,0,1
 882.057 1443 882.057 1443 914.057 1411 c 1,2,-1
 1725.06 777 l 1,3,4
 1774.06 737 1774.06 737 1774.06 693 c 0,5,6
 1774.06 650 1774.06 650 1725.06 610 c 1,7,-1
 914.057 -24 l 1,8,9
 881.057 -57 881.057 -57 802.057 -57 c 0,10,11
 768.057 -57 768.057 -57 739.057 -49 c 2,12,13
 336.057 56 l 2,14,15
 292.057 67 292.057 67 278.557 89.5 c 128,-1,16
 265.057 112 265.057 112 291.057 132 c 2,17,-1
 1008.06 693 l 1,18,-1
 291.057 1254 l 2,19,20
 265.057 1274 265.057 1274 278.557 1296.5 c 128,-1,21
 292.057 1319 292.057 1319 336.057 1330 c 2,22,-1
 739.057 1436 l 2,23,24
 764.057 1443 764.057 1443 802.057 1443 c 0,0,1
EndSplineSet
Validated: 1
EndChar

StartChar: leftshift
Encoding: 65 65 29
Width: 2048
GlyphClass: 2
Flags: W
LayerCount: 2
Fore
SplineSet
1245.88 1560 m 0,0,1
 1283.88 1560 1283.88 1560 1308.88 1553 c 2,2,-1
 1711.88 1447 l 2,3,4
 1755.88 1436 1755.88 1436 1769.38 1413.5 c 128,-1,5
 1782.88 1391 1782.88 1391 1757.88 1371 c 2,6,-1
 1039.88 810 l 1,7,-1
 1757.88 249 l 2,8,9
 1782.88 229 1782.88 229 1769.38 206.5 c 128,-1,10
 1755.88 184 1755.88 184 1711.88 173 c 2,11,-1
 1308.88 68 l 2,12,13
 1279.88 60 1279.88 60 1245.88 60 c 0,14,15
 1166.88 60 1166.88 60 1133.88 93 c 1,16,-1
 323.883 727 l 2,17,18
 273.883 767 273.883 767 273.883 810 c 0,19,20
 273.883 854 273.883 854 323.883 894 c 2,21,-1
 1133.88 1528 l 1,22,23
 1165.88 1560 1165.88 1560 1245.88 1560 c 0,0,1
EndSplineSet
EndChar

StartChar: search
Encoding: 66 66 30
Width: 2048
GlyphClass: 2
Flags: W
LayerCount: 2
Fore
SplineSet
861.5 1567 m 132,-1,1
 976.5 1567 976.5 1567 1084 1523.5 c 132,-1,2
 1191.5 1480 1191.5 1480 1276.5 1395 c 4,3,4
 1419.5 1252 1419.5 1252 1444 1051.5 c 4,5,6
 1448.82 1012.04 1448.82 1012.04 1448.82 973.886 c 4,7,8
 1448.82 818.137 1448.82 818.137 1368.5 684 c 5,9,-1
 1761.5 290 l 6,10,11
 1774.5 277 1774.5 277 1774.5 259 c 132,-1,12
 1774.5 241 1774.5 241 1761.5 228 c 6,13,-1
 1613.5 80 l 6,14,15
 1600.5 67 1600.5 67 1582.5 67 c 132,-1,16
 1564.5 67 1564.5 67 1551.5 80 c 6,17,-1
 1158.5 474 l 5,18,19
 1046.5 408 1046.5 408 918 395.5 c 4,20,21
 889.317 392.71 889.317 392.71 860.858 392.71 c 4,22,23
 761.821 392.71 761.821 392.71 665.5 426.5 c 4,24,25
 541.5 470 541.5 470 446.5 565 c 4,26,27
 333.5 678 333.5 678 293.5 829 c 4,28,29
 273.5 904.5 273.5 904.5 273.5 980 c 132,-1,30
 273.5 1055.5 273.5 1055.5 293.5 1131 c 4,31,32
 333.5 1282 333.5 1282 446.5 1395 c 4,33,34
 531.5 1480 531.5 1480 639 1523.5 c 132,-1,0
 746.5 1567 746.5 1567 861.5 1567 c 132,-1,1
861.5 1270 m 132,-1,36
 741.5 1270 741.5 1270 657 1185 c 132,-1,37
 572.5 1100 572.5 1100 572.5 980 c 132,-1,38
 572.5 860 572.5 860 657 775.5 c 132,-1,39
 741.5 691 741.5 691 861.5 691 c 132,-1,40
 981.5 691 981.5 691 1066.5 775.5 c 132,-1,41
 1151.5 860 1151.5 860 1151.5 980 c 132,-1,42
 1151.5 1100 1151.5 1100 1066.5 1185 c 132,-1,35
 981.5 1270 981.5 1270 861.5 1270 c 132,-1,36
EndSplineSet
EndChar

StartChar: backarrow
Encoding: 67 67 31
Width: 2048
GlyphClass: 2
Flags: W
LayerCount: 2
Fore
SplineSet
1026.17 1564 m 4,0,1
 1056.17 1564 1056.17 1564 1076.17 1544 c 6,2,-1
 1223.17 1399 l 6,3,4
 1243.17 1379 1243.17 1379 1243.17 1349.5 c 132,-1,5
 1243.17 1320 1243.17 1320 1223.17 1300 c 6,6,-1
 906.173 986 l 5,7,-1
 1734.17 986 l 6,8,9
 1751.17 986 1751.17 986 1762.67 965.5 c 132,-1,10
 1774.17 945 1774.17 945 1774.17 917 c 6,11,-1
 1774.17 712 l 6,12,13
 1774.17 683 1774.17 683 1762.17 662.5 c 132,-1,14
 1750.17 642 1750.17 642 1734.17 642 c 6,15,-1
 906.173 642 l 5,16,-1
 1223.17 328 l 6,17,18
 1243.17 308 1243.17 308 1243.17 279 c 132,-1,19
 1243.17 250 1243.17 250 1223.17 230 c 6,20,-1
 1076.17 85 l 6,21,22
 1056.17 65 1056.17 65 1026.67 65 c 132,-1,23
 997.173 65 997.173 65 977.173 85 c 6,24,-1
 294.173 759 l 6,25,26
 271.173 782 271.173 782 274.173 814 c 5,27,28
 271.173 847 271.173 847 294.173 870 c 6,29,-1
 977.173 1544 l 6,30,31
 997.173 1564 997.173 1564 1026.17 1564 c 4,0,1
EndSplineSet
EndChar

StartChar: add
Encoding: 68 68 32
Width: 2048
GlyphClass: 2
Flags: W
LayerCount: 2
Fore
SplineSet
1024 1568 m 132,-1,1
 1177 1568 1177 1568 1315.5 1508.5 c 132,-1,2
 1454 1449 1454 1449 1554.5 1348.5 c 132,-1,3
 1655 1248 1655 1248 1714.5 1109.5 c 132,-1,4
 1774 971 1774 971 1774 818 c 132,-1,5
 1774 665 1774 665 1714.5 526.5 c 132,-1,6
 1655 388 1655 388 1554.5 287.5 c 132,-1,7
 1454 187 1454 187 1315.5 127.5 c 132,-1,8
 1177 68 1177 68 1024 68 c 132,-1,9
 871 68 871 68 732.5 127.5 c 132,-1,10
 594 187 594 187 493.5 287.5 c 132,-1,11
 393 388 393 388 333.5 526.5 c 132,-1,12
 274 665 274 665 274 818 c 132,-1,13
 274 971 274 971 333.5 1109.5 c 132,-1,14
 393 1248 393 1248 493.5 1348.5 c 132,-1,15
 594 1449 594 1449 732.5 1508.5 c 132,-1,0
 871 1568 871 1568 1024 1568 c 132,-1,1
1024 1416 m 4,16,17
 862 1416 862 1416 724.5 1336 c 132,-1,18
 587 1256 587 1256 507 1118 c 132,-1,19
 427 980 427 980 427 818 c 132,-1,20
 427 656 427 656 507 518.5 c 132,-1,21
 587 381 587 381 724.5 301 c 132,-1,22
 862 221 862 221 1024 221 c 132,-1,23
 1186 221 1186 221 1324 301 c 132,-1,24
 1462 381 1462 381 1542 518.5 c 132,-1,25
 1622 656 1622 656 1622 818 c 4,26,27
 1622 940 1622 940 1574.5 1050.5 c 132,-1,28
 1527 1161 1527 1161 1447 1241 c 132,-1,29
 1367 1321 1367 1321 1256.5 1368.5 c 132,-1,30
 1146 1416 1146 1416 1024 1416 c 4,16,17
990 1136 m 6,31,32
 1059 1136 l 6,33,34
 1069 1136 1069 1136 1075.5 1129 c 132,-1,35
 1082 1122 1082 1122 1082 1112 c 6,36,-1
 1082 877 l 5,37,-1
 1318 877 l 6,38,39
 1328 877 1328 877 1334.5 870 c 132,-1,40
 1341 863 1341 863 1341 853 c 6,41,-1
 1341 784 l 6,42,43
 1341 774 1341 774 1334.5 767 c 132,-1,44
 1328 760 1328 760 1318 760 c 6,45,-1
 1082 760 l 5,46,-1
 1082 525 l 6,47,48
 1082 515 1082 515 1075.5 508 c 132,-1,49
 1069 501 1069 501 1059 501 c 6,50,-1
 990 501 l 6,51,52
 980 501 980 501 973 508 c 132,-1,53
 966 515 966 515 966 525 c 6,54,-1
 966 760 l 5,55,-1
 730 760 l 6,56,57
 720 760 720 760 713.5 767 c 132,-1,58
 707 774 707 774 707 784 c 6,59,-1
 707 853 l 6,60,61
 707 863 707 863 713.5 870 c 132,-1,62
 720 877 720 877 730 877 c 6,63,-1
 966 877 l 5,64,-1
 966 1112 l 6,65,66
 966 1122 966 1122 973 1129 c 132,-1,67
 980 1136 980 1136 990 1136 c 6,31,32
EndSplineSet
EndChar

StartChar: vs1
Encoding: 69 69 33
Width: 2048
GlyphClass: 2
Flags: W
LayerCount: 2
Fore
SplineSet
825 1556 m 6,0,1
 830 1556 830 1556 834 1553 c 4,2,3
 841 1548 841 1548 842 1541 c 6,4,-1
 869 1339 l 5,5,-1
 912 1005 l 5,6,-1
 928 887 l 5,7,8
 933 894 933 894 943.5 907 c 132,-1,9
 954 920 954 920 960 926 c 4,10,11
 1000 974 1000 974 1052 1031 c 4,12,13
 1100 1084 1100 1084 1151 1123 c 5,14,-1
 1206 1541 l 6,15,16
 1207 1548 1207 1548 1214 1553 c 4,17,18
 1220 1557 1220 1557 1227 1556 c 6,19,-1
 1403 1531 l 6,20,21
 1413 1529 1413 1529 1417 1524 c 4,22,23
 1422 1518 1422 1518 1420 1510 c 6,24,-1
 1377 1211 l 5,25,26
 1403 1213 1403 1213 1416 1213 c 4,27,28
 1487 1213 1487 1213 1554 1185 c 4,29,30
 1614 1160 1614 1160 1666 1108 c 5,31,32
 1716 1056 1716 1056 1742 995 c 4,33,34
 1769 931 1769 931 1769 857 c 260,35,36
 1769 783 1769 783 1742 718 c 4,37,38
 1716 657 1716 657 1666 605 c 4,39,40
 1617 554 1617 554 1554 528 c 4,41,42
 1487 500 1487 500 1416 500 c 6,43,-1
 1407 500 l 5,44,-1
 1343 500 l 5,45,-1
 1275 500 l 5,46,-1
 1240 256 l 6,47,48
 1233 205 1233 205 1201 160 c 4,49,50
 1172 118 1172 118 1125 92 c 132,-1,51
 1078 66 1078 66 1024 66 c 132,-1,52
 970 66 970 66 923 92 c 132,-1,53
 876 118 876 118 847 160 c 4,54,55
 815 205 815 205 808 256 c 6,56,-1
 783 433 l 5,57,58
 821 440 821 440 848 449 c 4,59,60
 911 469 911 469 972 513 c 5,61,-1
 977 516 l 5,62,-1
 1007 285 l 6,63,64
 1008 279 1008 279 1013 274 c 4,65,66
 1017 270 1017 270 1024 270 c 132,-1,67
 1031 270 1031 270 1035 274 c 4,68,69
 1040 279 1040 279 1041 285 c 6,70,-1
 1084 612 l 5,71,72
 1140 673 1140 673 1178 720 c 4,73,74
 1238 794 1238 794 1245 801 c 4,75,76
 1274 836 1274 836 1313 871 c 5,77,78
 1329 884 1329 884 1330 885 c 6,79,-1
 1306 719 l 5,80,-1
 1343 719 l 5,81,-1
 1407 719 l 5,82,-1
 1435 719 l 6,83,84
 1474 719 1474 719 1504 737 c 4,85,86
 1534 754 1534 754 1553 787 c 132,-1,87
 1572 820 1572 820 1572 857 c 4,88,89
 1572 896 1572 896 1553 927 c 4,90,91
 1534 957 1534 957 1500 975 c 4,92,93
 1464 994 1464 994 1422 994 c 4,94,95
 1381 994 1381 994 1340 975 c 4,96,97
 1299 955 1299 955 1267 926 c 4,98,99
 1224 887 1224 887 1198 856 c 4,100,101
 1180 836 1180 836 1131 776 c 4,102,103
 1076 708 1076 708 1032 661 c 4,104,105
 981 607 981 607 926 568 c 4,106,107
 866 525 866 525 801 504 c 5,108,109
 736 481 736 481 647 481 c 4,110,111
 564 481 564 481 497 511 c 5,112,113
 431 539 431 539 381 592 c 5,114,115
 334 640 334 640 306 711 c 5,116,117
 279 784 279 784 279 857 c 4,118,119
 279 933 279 933 308 1002 c 4,120,121
 336 1070 336 1070 387 1120 c 4,122,123
 439 1172 439 1172 504 1200 c 4,124,125
 573 1230 573 1230 647 1230 c 6,126,-1
 668 1230 l 5,127,-1
 628 1510 l 6,128,129
 627 1517 627 1517 632 1524 c 4,130,131
 636 1530 636 1530 645 1531 c 6,132,-1
 821 1556 l 5,133,-1
 825 1556 l 6,0,1
630 1011 m 6,134,135
 586 1011 586 1011 552 990 c 4,136,137
 516 968 516 968 497 935 c 5,138,139
 476 901 476 901 476 857 c 4,140,141
 476 815 476 815 498 777 c 4,142,143
 518 743 518 743 557 721 c 4,144,145
 598 699 598 699 647 699 c 4,146,147
 697 699 697 699 742 719 c 5,148,-1
 700 1011 l 5,149,-1
 630 1011 l 6,134,135
EndSplineSet
EndChar

StartChar: vs2
Encoding: 70 70 34
Width: 2048
GlyphClass: 2
Flags: W
LayerCount: 2
Fore
SplineSet
1024 1562 m 128,-1,1
 1177 1562 1177 1562 1314 1504 c 0,2,3
 1448 1447 1448 1447 1551 1344 c 128,-1,4
 1654 1241 1654 1241 1711 1107 c 0,5,6
 1769 970 1769 970 1769 817 c 128,-1,7
 1769 664 1769 664 1711 527 c 0,8,9
 1654 394 1654 394 1551 291 c 128,-1,10
 1448 188 1448 188 1314 131 c 0,11,12
 1175 72 1175 72 1024 72 c 128,-1,13
 873 72 873 72 734 131 c 0,14,15
 600 188 600 188 497 291 c 0,16,17
 395 393 395 393 338 527 c 0,18,19
 279 666 279 666 279 817 c 128,-1,20
 279 968 279 968 338 1107 c 0,21,22
 396 1243 396 1243 497 1344 c 0,23,24
 600 1447 600 1447 734 1504 c 0,25,0
 871 1562 871 1562 1024 1562 c 128,-1,1
1024 1433 m 128,-1,27
 857 1433 857 1433 715 1350.5 c 128,-1,28
 573 1268 573 1268 490.5 1126 c 128,-1,29
 408 984 408 984 408 817 c 0,30,31
 408 692 408 692 457 578 c 128,-1,32
 506 464 506 464 588.5 381.5 c 128,-1,33
 671 299 671 299 785 250.5 c 128,-1,34
 899 202 899 202 1024 202 c 128,-1,35
 1149 202 1149 202 1263 250.5 c 128,-1,36
 1377 299 1377 299 1459.5 381.5 c 128,-1,37
 1542 464 1542 464 1591 578 c 128,-1,38
 1640 692 1640 692 1640 817 c 0,39,40
 1640 984 1640 984 1557.5 1126 c 128,-1,41
 1475 1268 1475 1268 1333 1350.5 c 128,-1,26
 1191 1433 1191 1433 1024 1433 c 128,-1,27
905 1258 m 0,42,43
 907 1258 907 1258 911 1256 c 0,44,45
 913 1254 913 1254 915 1248 c 1,46,-1
 931 1129 l 1,47,-1
 957 932 l 1,48,-1
 967 862 l 1,49,50
 979 876 979 876 986 885 c 0,51,52
 1010 915 1010 915 1041 947 c 1,53,54
 1067 976 1067 976 1100 1001 c 1,55,-1
 1133 1248 l 2,56,57
 1134 1253 1134 1253 1138 1256 c 1,58,59
 1140 1259 1140 1259 1145 1257 c 1,60,-1
 1251 1243 l 1,61,62
 1256 1241 1256 1241 1259 1238 c 128,-1,63
 1262 1235 1262 1235 1261 1231 c 2,64,-1
 1235 1053 l 1,65,66
 1251 1055 1251 1055 1259 1055 c 0,67,68
 1302 1055 1302 1055 1341 1038 c 128,-1,69
 1380 1021 1380 1021 1408 993 c 128,-1,70
 1436 965 1436 965 1453 926 c 128,-1,71
 1470 887 1470 887 1470 845 c 0,72,73
 1470 801 1470 801 1453 762 c 128,-1,74
 1436 723 1436 723 1408 695 c 128,-1,75
 1380 667 1380 667 1341 650 c 128,-1,76
 1302 633 1302 633 1259 633 c 2,77,-1
 1253 633 l 1,78,-1
 1215 633 l 1,79,-1
 1174 633 l 1,80,-1
 1153 489 l 2,81,82
 1149 458 1149 458 1130 432 c 0,83,84
 1113 408 1113 408 1084 392 c 0,85,86
 1057 377 1057 377 1024 377 c 128,-1,87
 991 377 991 377 964 392 c 0,88,89
 935 408 935 408 918 432 c 0,90,91
 899 458 899 458 895 489 c 2,92,-1
 880 594 l 1,93,94
 899 597 899 597 918 603 c 0,95,96
 960 617 960 617 993 641 c 1,97,-1
 996 643 l 1,98,-1
 1014 506 l 2,99,100
 1015 503 1015 503 1018 500 c 128,-1,101
 1021 497 1021 497 1024 497 c 0,102,103
 1028 497 1028 497 1031 500 c 0,104,105
 1032 501 1032 501 1034 506 c 1,106,-1
 1060 700 l 1,107,108
 1094 735 1094 735 1116 764 c 0,109,110
 1127 778 1127 778 1156 811 c 0,111,112
 1179 838 1179 838 1197 853 c 0,113,114
 1198 855 1198 855 1201.5 857.5 c 128,-1,115
 1205 860 1205 860 1207 861 c 1,116,-1
 1193 763 l 1,117,-1
 1215 763 l 1,118,-1
 1253 763 l 1,119,-1
 1270 763 l 2,120,121
 1292 763 1292 763 1311 774 c 0,122,123
 1331 786 1331 786 1341 803 c 0,124,125
 1352 822 1352 822 1352 845 c 0,126,127
 1352 867 1352 867 1340 885 c 1,128,129
 1330 903 1330 903 1309 914 c 0,130,131
 1289 925 1289 925 1262 925 c 0,132,133
 1237 925 1237 925 1213 914 c 0,134,135
 1191 904 1191 904 1169 885 c 0,136,137
 1148 867 1148 867 1128 844 c 0,138,139
 1112 826 1112 826 1088 796 c 1,140,141
 1061 764 1061 764 1028 729 c 0,142,143
 996 696 996 696 965 673 c 128,-1,144
 934 650 934 650 891 636 c 0,145,146
 849 622 849 622 798 622 c 0,147,148
 748 622 748 622 708 640 c 1,149,150
 668 656 668 656 639 687 c 0,151,152
 608 719 608 719 594 758 c 0,153,154
 578 801 578 801 578 845 c 0,155,156
 578 886 578 886 596 930 c 0,157,158
 612 969 612 969 643 1000 c 128,-1,159
 674 1031 674 1031 713 1047 c 0,160,161
 757 1065 757 1065 798 1065 c 2,162,-1
 811 1065 l 1,163,-1
 787 1231 l 2,164,165
 786 1235 786 1235 789 1238 c 128,-1,166
 792 1241 792 1241 797 1243 c 1,167,-1
 903 1257 l 2,168,169
 904 1257 904 1257 904 1257.5 c 128,-1,170
 904 1258 904 1258 905 1258 c 0,42,43
788 935 m 2,171,172
 763 935 763 935 742 923 c 128,-1,173
 721 911 721 911 709 890 c 0,174,175
 696 867 696 867 696 845 c 0,176,177
 696 817 696 817 709 797 c 1,178,179
 720 777 720 777 745 764 c 0,180,181
 769 751 769 751 798 751 c 0,182,183
 830 751 830 751 855 763 c 1,184,-1
 830 935 l 1,185,-1
 788 935 l 2,171,172
EndSplineSet
EndChar

StartChar: verse
Encoding: 71 71 35
Width: 3953
GlyphClass: 2
Flags: W
LayerCount: 2
Fore
SplineSet
1297.95 99.332 m 0,0,1
 1097.17 144.531 1097.17 144.531 1030.13 342.402 c 0,2,3
 1018.95 375.402 1018.95 375.402 1018.95 816.402 c 128,-1,4
 1018.95 1257.41 1018.95 1257.41 1032.49 1300.46 c 0,5,6
 1077.54 1443.74 1077.54 1443.74 1217.17 1510.36 c 0,7,8
 1368.75 1582.7 1368.75 1582.7 1518.02 1515.03 c 128,-1,9
 1667.29 1447.36 1667.29 1447.36 1716.2 1284.13 c 0,10,11
 1726.01 1251.43 1726.01 1251.43 1728.4 999.971 c 128,-1,12
 1730.79 748.504 1730.79 748.504 1727.25 734.471 c 2,13,-1
 1723.73 720.402 l 1,14,-1
 1492.56 720.402 l 1,15,-1
 1261.4 720.402 l 1,16,-1
 1263.18 559.902 l 2,17,18
 1264.71 421.281 1264.71 421.281 1272.01 389.816 c 128,-1,19
 1279.3 358.357 1279.3 358.357 1315.2 335.594 c 0,20,21
 1384.91 291.385 1384.91 291.385 1443.99 347.283 c 0,22,23
 1479.86 381.221 1479.86 381.221 1483.76 483.402 c 2,24,-1
 1486.95 567.402 l 1,25,-1
 1605.31 569.031 l 1,26,-1
 1723.66 570.654 l 1,27,-1
 1727.67 554.682 l 2,28,29
 1733.52 531.379 1733.52 531.379 1727.89 452.33 c 128,-1,30
 1722.25 373.281 1722.25 373.281 1712.53 342.402 c 0,31,32
 1656.11 162.965 1656.11 162.965 1478.36 108.045 c 0,33,34
 1386.02 79.5098 1386.02 79.5098 1297.95 99.332 c 0,0,1
1480.95 1092.4 m 2,35,36
 1480.95 1239.4 1480.95 1239.4 1467.13 1263.51 c 0,37,38
 1437.67 1314.91 1437.67 1314.91 1376.89 1319.01 c 0,39,40
 1342.95 1321.29 1342.95 1321.29 1315.52 1303.66 c 0,41,42
 1280.09 1280.88 1280.09 1280.88 1272.4 1250.86 c 128,-1,43
 1264.72 1220.85 1264.72 1220.85 1263.14 1099.05 c 0,44,45
 1261.33 958.691 1261.33 958.691 1264.5 950.412 c 128,-1,46
 1267.68 942.127 1267.68 942.127 1374.32 943.762 c 2,47,-1
 1480.95 945.402 l 1,48,-1
 1480.95 1092.4 l 2,35,36
2565.44 96.666 m 0,49,50
 2377.94 130.252 2377.94 130.252 2295.05 294.93 c 0,51,52
 2269.66 345.385 2269.66 345.385 2260.9 387.402 c 0,53,54
 2252.68 426.947 2252.68 426.947 2252 509.154 c 128,-1,55
 2251.32 591.361 2251.32 591.361 2259.16 599.207 c 0,56,57
 2264.86 604.902 2264.86 604.902 2369.63 606.531 c 128,-1,58
 2474.41 608.154 2474.41 608.154 2488.47 602.764 c 0,59,60
 2497.95 599.125 2497.95 599.125 2498.22 523.264 c 128,-1,61
 2498.48 447.42 2498.48 447.42 2503.53 421.27 c 0,62,63
 2511.81 378.408 2511.81 378.408 2546.96 348.619 c 128,-1,64
 2582.12 318.83 2582.12 318.83 2624.72 318.572 c 0,65,66
 2682.29 318.221 2682.29 318.221 2717.09 358.551 c 128,-1,67
 2751.89 398.887 2751.89 398.887 2751.93 465.977 c 0,68,69
 2751.99 571.498 2751.99 571.498 2596.96 700.949 c 0,70,71
 2431.57 839.043 2431.57 839.043 2367.96 918.016 c 128,-1,72
 2304.34 996.988 2304.34 996.988 2281.63 1092.4 c 0,73,74
 2256.35 1198.63 2256.35 1198.63 2286.2 1293.4 c 0,75,76
 2343.28 1474.73 2343.28 1474.73 2524.96 1532.04 c 0,77,78
 2625.7 1563.82 2625.7 1563.82 2728.96 1531.92 c 0,79,80
 2878.38 1485.75 2878.38 1485.75 2945.22 1347.47 c 0,81,82
 2986.06 1263 2986.06 1263 2982.75 1158.4 c 2,83,-1
 2980.96 1101.4 l 1,84,-1
 2860.96 1101.4 l 1,85,-1
 2740.96 1101.4 l 1,86,-1
 2737.83 1170.54 l 2,87,88
 2734.7 1239.67 2734.7 1239.67 2718.41 1267.46 c 128,-1,89
 2702.13 1295.25 2702.13 1295.25 2676.14 1307.83 c 0,90,91
 2617.36 1336.29 2617.36 1336.29 2569.42 1303.11 c 128,-1,92
 2521.49 1269.93 2521.49 1269.93 2521.16 1200.55 c 0,93,94
 2520.72 1108.02 2520.72 1108.02 2676.02 975.104 c 0,95,96
 2819.99 851.863 2819.99 851.863 2871.07 796.838 c 128,-1,97
 2922.16 741.807 2922.16 741.807 2954.24 675.402 c 0,98,99
 2994.41 592.229 2994.41 592.229 2999.76 489.402 c 0,100,101
 3005.61 377.225 3005.61 377.225 2962.07 288.402 c 0,102,103
 2892.67 146.828 2892.67 146.828 2732.78 105.578 c 0,104,105
 2643.82 82.6152 2643.82 82.6152 2565.44 96.666 c 0,49,50
3388.96 94.2051 m 0,106,107
 3286.76 109.932 3286.76 109.932 3206.41 177.174 c 128,-1,108
 3126.06 244.41 3126.06 244.41 3096.25 339.156 c 0,109,110
 3082.96 381.402 3082.96 381.402 3082.96 819.402 c 2,111,-1
 3082.96 1257.4 l 1,112,-1
 3097.36 1301.37 l 2,113,114
 3155.47 1478.76 3155.47 1478.76 3340.96 1534.06 c 0,115,116
 3438.43 1563.12 3438.43 1563.12 3538.96 1531.94 c 0,117,118
 3710.17 1478.82 3710.17 1478.82 3774.85 1301.41 c 2,119,-1
 3790.9 1257.4 l 1,120,-1
 3792.84 1002.95 l 2,121,122
 3794.77 748.486 3794.77 748.486 3791.25 734.453 c 2,123,-1
 3787.73 720.402 l 1,124,-1
 3556.84 720.402 l 1,125,-1
 3325.96 720.402 l 1,126,-1
 3326 571.902 l 2,127,128
 3326.02 423.438 3326.02 423.438 3332.56 399.906 c 0,129,130
 3352.46 328.229 3352.46 328.229 3423.32 319.445 c 128,-1,131
 3494.19 310.662 3494.19 310.662 3531.07 375.303 c 0,132,133
 3544.83 399.402 3544.83 399.402 3547.89 483.402 c 2,134,-1
 3550.96 567.402 l 1,135,-1
 3667.53 569.037 l 2,136,137
 3784.08 570.666 3784.08 570.666 3788.93 563.037 c 0,138,139
 3795.04 553.416 3795.04 553.416 3793.5 481.135 c 128,-1,140
 3791.96 408.854 3791.96 408.854 3784.94 375.402 c 0,141,142
 3765.64 283.504 3765.64 283.504 3698.74 209.699 c 128,-1,143
 3631.84 135.889 3631.84 135.889 3542.77 108.227 c 0,144,145
 3461.6 83.0254 3461.6 83.0254 3388.96 94.2051 c 0,106,107
3544.96 1092.4 m 2,146,147
 3544.96 1239.4 3544.96 1239.4 3531.13 1263.51 c 0,148,149
 3502.05 1314.26 3502.05 1314.26 3443.13 1319.14 c 0,150,151
 3356.81 1326.3 3356.81 1326.3 3332.55 1238.9 c 0,152,153
 3327.2 1219.63 3327.2 1219.63 3326.07 1085.52 c 128,-1,154
 3324.95 951.414 3324.95 951.414 3330.09 946.27 c 0,155,156
 3334.22 942.139 3334.22 942.139 3439.59 943.768 c 2,157,-1
 3544.96 945.402 l 1,158,-1
 3544.96 1092.4 l 2,146,147
522.573 103.059 m 0,159,160
 401.148 120.314 401.148 120.314 344.301 235.791 c 0,161,162
 325.715 273.549 325.715 273.549 239.125 885.467 c 128,-1,163
 152.536 1497.4 152.536 1497.4 159.743 1504.06 c 128,-1,164
 166.961 1510.72 166.961 1510.72 265.955 1524 c 128,-1,165
 364.991 1537.3 364.991 1537.3 373.955 1539.71 c 128,-1,166
 382.95 1542.13 382.95 1542.13 390.807 1537.19 c 128,-1,167
 398.659 1532.27 398.659 1532.27 473.207 932.834 c 128,-1,168
 547.762 333.314 547.762 333.314 547.85 331.902 c 128,-1,169
 547.95 330.402 547.95 330.402 559.955 330.402 c 128,-1,170
 571.961 330.402 571.961 330.402 572.096 331.902 c 128,-1,171
 572.219 333.238 572.219 333.238 646.398 929.488 c 128,-1,172
 720.561 1525.58 720.561 1525.58 728.758 1533.33 c 128,-1,173
 736.961 1541.08 736.961 1541.08 846.186 1525.24 c 128,-1,174
 955.421 1509.4 955.421 1509.4 961.521 1503.27 c 128,-1,175
 967.621 1497.14 967.621 1497.14 880.997 886.012 c 128,-1,176
 794.377 274.879 794.377 274.879 776.618 236.939 c 128,-1,177
 758.864 199.006 758.864 199.006 731.905 172.035 c 0,178,179
 674.166 114.297 674.166 114.297 606.913 105.168 c 0,180,181
 580.896 101.635 580.896 101.635 568.955 99.9062 c 128,-1,182
 556.955 98.1719 556.955 98.1719 522.573 103.059 c 0,159,160
1842.08 118.281 m 128,-1,184
 1837.95 122.406 1837.95 122.406 1837.95 683.037 c 0,185,186
 1837.95 1150.36 1837.95 1150.36 1842.4 1224.21 c 128,-1,187
 1846.85 1298.08 1846.85 1298.08 1878.62 1358.68 c 0,188,189
 1964.88 1523.22 1964.88 1523.22 2156.55 1545.47 c 0,190,191
 2197.84 1550.27 2197.84 1550.27 2203.93 1535.67 c 128,-1,192
 2210.01 1521.08 2210.01 1521.08 2208.59 1420.74 c 2,193,-1
 2206.96 1306.76 l 1,194,-1
 2175.34 1298.68 l 2,195,196
 2121.79 1284.98 2121.79 1284.98 2098.57 1246.6 c 0,197,198
 2086.96 1227.4 2086.96 1227.4 2083.96 672.402 c 2,199,-1
 2080.96 117.402 l 1,200,-1
 1963.58 115.779 l 2,201,183
 1846.2 114.162 1846.2 114.162 1842.08 118.281 c 128,-1,184
EndSplineSet
EndChar

StartChar: plink
Encoding: 72 72 36
Width: 2048
GlyphClass: 2
Flags: W
LayerCount: 2
Fore
SplineSet
1330 1561 m 4,0,1
 1512 1561 1512 1561 1640 1433 c 4,2,3
 1769 1304 1769 1304 1769 1122 c 132,-1,4
 1769 940 1769 940 1640 811 c 6,5,-1
 1461 632 l 6,6,7
 1332 503 1332 503 1150.5 503 c 132,-1,8
 969 503 969 503 840 632 c 4,9,10
 791 681 791 681 760 741 c 5,11,-1
 803 785 l 6,12,13
 839 821 839 821 890 821 c 132,-1,14
 941 821 941 821 977 785 c 6,15,-1
 985 777 l 6,16,17
 1053 709 1053 709 1150.5 709 c 132,-1,18
 1248 709 1248 709 1316 777 c 6,19,-1
 1495 956 l 6,20,21
 1563 1024 1563 1024 1563 1122 c 132,-1,22
 1563 1220 1563 1220 1495 1288 c 132,-1,23
 1427 1356 1427 1356 1329.5 1356 c 132,-1,24
 1232 1356 1232 1356 1164 1288 c 6,25,-1
 1084 1208 l 5,26,27
 993.286 1240.14 993.286 1240.14 898.49 1240.14 c 4,28,29
 860.571 1240.14 860.571 1240.14 822 1235 c 5,30,-1
 840 1253 l 5,31,-1
 1019 1433 l 6,32,33
 1147 1561 1147 1561 1330 1561 c 4,0,1
898 1129 m 4,34,35
 1080 1129 1080 1129 1208 1001 c 4,36,37
 1256 953 1256 953 1288 891 c 5,38,-1
 1245 848 l 6,39,40
 1209 812 1209 812 1158 812 c 132,-1,41
 1107 812 1107 812 1071 848 c 6,42,-1
 1063 856 l 6,43,44
 995 924 995 924 897.5 924 c 132,-1,45
 800 924 800 924 732 856 c 6,46,-1
 553 676 l 6,47,48
 485 608 485 608 485 510.5 c 132,-1,49
 485 413 485 413 553 345 c 132,-1,50
 621 277 621 277 718.5 277 c 132,-1,51
 816 277 816 277 884 345 c 6,52,-1
 964 425 l 5,53,54
 1056.72 391.938 1056.72 391.938 1151.5 391.938 c 4,55,56
 1188.59 391.938 1188.59 391.938 1226 397 c 5,57,-1
 1208 379 l 5,58,-1
 1029 200 l 6,59,60
 900 71 900 71 718.5 71 c 132,-1,61
 537 71 537 71 408 200 c 132,-1,62
 279 329 279 329 279 510.5 c 132,-1,63
 279 692 279 692 408 821 c 6,64,-1
 587 1001 l 6,65,66
 715 1129 715 1129 898 1129 c 4,34,35
EndSplineSet
EndChar

StartChar: ptarget
Encoding: 73 73 37
Width: 2048
GlyphClass: 2
Flags: W
LayerCount: 2
Fore
SplineSet
1024 1553 m 132,-1,1
 1226 1553 1226 1553 1397.5 1453 c 132,-1,2
 1569 1353 1569 1353 1669 1181.5 c 132,-1,3
 1769 1010 1769 1010 1769 808 c 132,-1,4
 1769 606 1769 606 1669 434.5 c 132,-1,5
 1569 263 1569 263 1397.5 163 c 132,-1,6
 1226 63 1226 63 1024 63 c 132,-1,7
 822 63 822 63 650.5 163 c 132,-1,8
 479 263 479 263 379 434.5 c 132,-1,9
 279 606 279 606 279 808 c 132,-1,10
 279 1010 279 1010 379 1181.5 c 132,-1,11
 479 1353 479 1353 650.5 1453 c 132,-1,0
 822 1553 822 1553 1024 1553 c 132,-1,1
1024 1279 m 132,-1,13
 829 1279 829 1279 691 1141 c 132,-1,14
 553 1003 553 1003 553 808 c 132,-1,15
 553 613 553 613 691 475.5 c 132,-1,16
 829 338 829 338 1024 338 c 132,-1,17
 1219 338 1219 338 1357 475.5 c 132,-1,18
 1495 613 1495 613 1495 808 c 132,-1,19
 1495 1003 1495 1003 1357 1141 c 132,-1,12
 1219 1279 1219 1279 1024 1279 c 132,-1,13
1024 1005 m 132,-1,21
 1105 1005 1105 1005 1163 947 c 132,-1,22
 1221 889 1221 889 1221 808 c 132,-1,23
 1221 727 1221 727 1163 669.5 c 132,-1,24
 1105 612 1105 612 1024 612 c 132,-1,25
 943 612 943 612 885.5 669.5 c 132,-1,26
 828 727 828 727 828 808 c 132,-1,27
 828 889 828 889 885.5 947 c 132,-1,20
 943 1005 943 1005 1024 1005 c 132,-1,21
EndSplineSet
EndChar

StartChar: pseries
Encoding: 74 74 38
Width: 2048
GlyphClass: 2
Flags: W
LayerCount: 2
Fore
SplineSet
1714.01 1561 m 6,0,1
 1737.01 1561 1737.01 1561 1753.01 1542.5 c 132,-1,2
 1769.01 1524 1769.01 1524 1769.01 1498 c 6,3,-1
 1769.01 262 l 6,4,5
 1769.01 183 1769.01 183 1720.51 127 c 132,-1,6
 1672.01 71 1672.01 71 1603.01 71 c 6,7,-1
 445.01 71 l 5,8,9
 443.865 70.9824 443.865 70.9824 442.724 70.9824 c 4,10,11
 377.155 70.9824 377.155 70.9824 328.01 127.5 c 132,-1,12
 278.99 183.873 278.99 183.873 278.99 258.988 c 4,13,14
 278.99 260.49 278.99 260.49 279.01 262 c 5,15,-1
 279.01 1243 l 6,16,17
 279.01 1269 279.01 1269 295.01 1288 c 132,-1,18
 311.01 1307 311.01 1307 334.01 1307 c 6,19,-1
 1492.01 1307 l 6,20,21
 1515.01 1307 1515.01 1307 1531.51 1288.5 c 132,-1,22
 1548.01 1270 1548.01 1270 1548.01 1244 c 6,23,-1
 1548.01 262 l 6,24,25
 1548.01 236 1548.01 236 1564.01 217 c 132,-1,26
 1580.01 198 1580.01 198 1603.01 198 c 132,-1,27
 1626.01 198 1626.01 198 1642.01 217 c 132,-1,28
 1658.01 236 1658.01 236 1658.01 262 c 6,29,-1
 1658.01 1434 l 5,30,-1
 1489.01 1434 l 5,31,-1
 500.01 1434 l 5,32,-1
 500.01 1497 l 6,33,34
 500.01 1523 500.01 1523 516.51 1542 c 132,-1,35
 533.01 1561 533.01 1561 556.01 1561 c 6,36,-1
 1714.01 1561 l 6,0,1
848.01 1009 m 5,37,38
 834.01 1008 834.01 1008 825.01 997 c 132,-1,39
 816.01 986 816.01 986 816.01 970 c 6,40,-1
 816.01 408 l 6,41,42
 816.01 392 816.01 392 826.01 380.5 c 132,-1,43
 836.01 369 836.01 369 850.01 369 c 4,44,45
 863.01 369 863.01 369 873.01 381 c 6,46,-1
 1118.01 662 l 6,47,48
 1128.01 674 1128.01 674 1128.01 689 c 132,-1,49
 1128.01 704 1128.01 704 1118.01 716 c 6,50,-1
 873.01 998 l 6,51,52
 864.01 1009 864.01 1009 850.01 1009 c 6,53,-1
 848.01 1009 l 5,37,38
EndSplineSet
EndChar

StartChar: pvideo
Encoding: 75 75 39
Width: 2048
GlyphClass: 2
Flags: W
LayerCount: 2
Fore
SplineSet
334.01 1561 m 6,0,1
 1493.01 1561 l 6,2,3
 1516.01 1561 1516.01 1561 1532.01 1545 c 132,-1,4
 1548.01 1529 1548.01 1529 1548.01 1506 c 6,5,-1
 1548.01 237 l 6,6,7
 1548.01 214 1548.01 214 1564.01 198 c 132,-1,8
 1580.01 182 1580.01 182 1603.01 182 c 132,-1,9
 1626.01 182 1626.01 182 1642.01 198 c 132,-1,10
 1658.01 214 1658.01 214 1658.01 237 c 6,11,-1
 1658.01 1356 l 5,12,-1
 1714.01 1356 l 6,13,14
 1736.01 1356 1736.01 1356 1752.51 1340 c 132,-1,15
 1769.01 1324 1769.01 1324 1769.01 1301 c 6,16,-1
 1769.01 237 l 6,17,18
 1769.01 168 1769.01 168 1720.51 119.5 c 132,-1,19
 1672.01 71 1672.01 71 1603.01 71 c 6,20,-1
 445.01 71 l 5,21,22
 443.677 70.9805 443.677 70.9805 442.35 70.9805 c 4,23,24
 376.039 70.9805 376.039 70.9805 327.51 120 c 132,-1,25
 278.99 169.01 278.99 169.01 278.99 234.353 c 4,26,27
 278.99 235.673 278.99 235.673 279.01 237 c 5,28,-1
 279.01 1506 l 6,29,30
 279.01 1529 279.01 1529 295.01 1545 c 132,-1,31
 311.01 1561 311.01 1561 334.01 1561 c 6,0,1
390.01 1451 m 5,32,-1
 390.01 1249 l 5,33,-1
 591.01 1249 l 5,34,-1
 591.01 1451 l 5,35,-1
 390.01 1451 l 5,32,-1
1236.01 1451 m 5,36,-1
 1236.01 1249 l 5,37,-1
 1437.01 1249 l 5,38,-1
 1437.01 1451 l 5,39,-1
 1236.01 1451 l 5,36,-1
390.01 1095 m 5,40,-1
 390.01 894 l 5,41,-1
 591.01 894 l 5,42,-1
 591.01 1095 l 5,43,-1
 390.01 1095 l 5,40,-1
1236.01 1095 m 5,44,-1
 1236.01 894 l 5,45,-1
 1437.01 894 l 5,46,-1
 1437.01 1095 l 5,47,-1
 1236.01 1095 l 5,44,-1
390.01 739 m 5,48,-1
 390.01 538 l 5,49,-1
 591.01 538 l 5,50,-1
 591.01 739 l 5,51,-1
 390.01 739 l 5,48,-1
1236.01 739 m 5,52,-1
 1236.01 538 l 5,53,-1
 1437.01 538 l 5,54,-1
 1437.01 739 l 5,55,-1
 1236.01 739 l 5,52,-1
390.01 383 m 5,56,-1
 390.01 182 l 5,57,-1
 591.01 182 l 5,58,-1
 591.01 383 l 5,59,-1
 390.01 383 l 5,56,-1
1236.01 383 m 5,60,-1
 1236.01 182 l 5,61,-1
 1437.01 182 l 5,62,-1
 1437.01 383 l 5,63,-1
 1236.01 383 l 5,60,-1
EndSplineSet
EndChar

StartChar: pslideshow
Encoding: 76 76 40
Width: 2048
GlyphClass: 2
Flags: W
LayerCount: 2
Fore
SplineSet
777 1564 m 6,0,1
 1714 1564 l 6,2,3
 1737 1564 1737 1564 1753 1545.5 c 132,-1,4
 1769 1527 1769 1527 1769 1501 c 6,5,-1
 1769 646 l 6,6,7
 1769 620 1769 620 1753 601.5 c 132,-1,8
 1737 583 1737 583 1714 583 c 6,9,-1
 1658 583 l 5,10,-1
 1658 1437 l 5,11,-1
 722 1437 l 5,12,-1
 722 1501 l 6,13,14
 722 1527 722 1527 738 1545.5 c 132,-1,15
 754 1564 754 1564 777 1564 c 6,0,1
556 1310 m 6,16,-1
 1492 1310 l 6,17,18
 1515 1310 1515 1310 1531.5 1291.5 c 132,-1,19
 1548 1273 1548 1273 1548 1247 c 6,20,-1
 1548 392 l 6,21,22
 1548 366 1548 366 1531.5 347.5 c 132,-1,23
 1515 329 1515 329 1492 329 c 6,24,-1
 1437 329 l 5,25,-1
 1437 1183 l 5,26,-1
 501 1183 l 5,27,-1
 501 1247 l 6,28,29
 501 1273 501 1273 517 1291.5 c 132,-1,30
 533 1310 533 1310 556 1310 c 6,16,-1
335 1056 m 6,31,-1
 1271 1056 l 6,32,33
 1294 1056 1294 1056 1310 1037 c 132,-1,34
 1326 1018 1326 1018 1326 992 c 6,35,-1
 1326 138 l 6,36,37
 1326 112 1326 112 1310 93 c 132,-1,38
 1294 74 1294 74 1271 74 c 6,39,-1
 335 74 l 6,40,41
 312 74 312 74 295.5 93 c 132,-1,42
 279 112 279 112 279 138 c 6,43,-1
 279 992 l 6,44,45
 279 1018 279 1018 295.5 1037 c 132,-1,46
 312 1056 312 1056 335 1056 c 6,31,-1
390 929 m 5,47,-1
 390 310 l 5,48,-1
 1216 310 l 5,49,-1
 1216 929 l 5,50,-1
 390 929 l 5,47,-1
EndSplineSet
EndChar

StartChar: pqa
Encoding: 77 77 41
Width: 2048
GlyphClass: 2
Flags: W
LayerCount: 2
Fore
SplineSet
495.667 1498 m 4,0,1
 542.667 1498 542.667 1498 580.667 1473 c 132,-1,2
 618.667 1448 618.667 1448 648.667 1403 c 4,3,4
 679.667 1356 679.667 1356 695.667 1300 c 4,5,6
 712.667 1240 712.667 1240 712.667 1173 c 6,7,-1
 712.667 449 l 6,8,9
 712.667 398 712.667 398 703.667 353 c 4,10,11
 694.667 307 694.667 307 676.667 270 c 5,12,-1
 750.667 140 l 6,13,14
 752.667 136 752.667 136 752.667 127 c 4,15,16
 752.667 119 752.667 119 749.667 115 c 6,17,-1
 670.667 13 l 6,18,19
 665.667 8 665.667 8 662.667 8 c 4,20,21
 657.667 8 657.667 8 654.667 15 c 6,22,-1
 578.667 147 l 5,23,24
 558.667 135 558.667 135 538.667 129 c 4,25,26
 513.667 122 513.667 122 495.667 122 c 4,27,28
 451.667 122 451.667 122 411.667 148 c 132,-1,29
 371.667 174 371.667 174 342.667 218 c 4,30,31
 311.667 265 311.667 265 295.667 321 c 4,32,33
 278.667 381 278.667 381 278.667 449 c 6,34,-1
 278.667 1173 l 6,35,36
 278.667 1240 278.667 1240 295.667 1300 c 4,37,38
 311.667 1356 311.667 1356 342.667 1403 c 4,39,40
 371.667 1447 371.667 1447 411.667 1473 c 4,41,42
 449.667 1498 449.667 1498 495.667 1498 c 4,0,1
991.667 1498 m 4,43,44
 1029.67 1498 1029.67 1498 1062.67 1477 c 132,-1,45
 1095.67 1456 1095.67 1456 1120.67 1419 c 4,46,47
 1144.67 1383 1144.67 1383 1158.67 1333 c 4,48,49
 1173.67 1278 1173.67 1278 1173.67 1227 c 6,50,-1
 1173.67 1088 l 6,51,52
 1173.67 1036 1173.67 1036 1161.67 991 c 4,53,54
 1149.67 945 1149.67 945 1129.67 911 c 132,-1,55
 1109.67 877 1109.67 877 1081.67 852 c 6,56,-1
 949.667 736 l 5,57,58
 929.667 717 929.667 717 919.667 691 c 5,59,60
 907.667 663 907.667 663 907.667 627 c 6,61,-1
 907.667 431 l 6,62,63
 907.667 395 907.667 395 919.667 367 c 5,64,65
 929.667 339 929.667 339 949.667 322 c 260,66,67
 969.667 305 969.667 305 991.667 305 c 4,68,69
 1014.67 305 1014.67 305 1034.67 322 c 4,70,71
 1051.67 337 1051.67 337 1064.67 367 c 5,72,73
 1076.67 400 1076.67 400 1076.67 431 c 6,74,-1
 1076.67 712 l 6,75,76
 1076.67 719 1076.67 719 1079.67 724 c 260,77,78
 1082.67 729 1082.67 729 1087.67 729 c 6,79,-1
 1235.67 729 l 6,80,81
 1240.67 729 1240.67 729 1243.67 724 c 4,82,83
 1247.67 718 1247.67 718 1247.67 712 c 6,84,-1
 1247.67 571 l 6,85,86
 1247.67 565 1247.67 565 1243.67 559 c 4,87,88
 1240.67 554 1240.67 554 1235.67 554 c 6,89,-1
 1208.67 554 l 5,90,-1
 1208.67 449 l 6,91,92
 1208.67 381 1208.67 381 1191.67 321 c 4,93,94
 1174.67 262 1174.67 262 1145.67 218 c 132,-1,95
 1116.67 174 1116.67 174 1076.67 148 c 132,-1,96
 1036.67 122 1036.67 122 991.667 122 c 4,97,98
 947.667 122 947.667 122 907.667 148 c 132,-1,99
 867.667 174 867.667 174 838.667 218 c 132,-1,100
 809.667 262 809.667 262 792.667 321 c 4,101,102
 775.667 381 775.667 381 775.667 449 c 6,103,-1
 775.667 609 l 6,104,105
 775.667 665 775.667 665 787.667 715 c 4,106,107
 800.667 770 800.667 770 819.667 806 c 4,108,109
 841.667 849 841.667 849 867.667 876 c 5,110,111
 840.667 915 840.667 915 826.667 964 c 4,112,113
 811.667 1015 811.667 1015 811.667 1074 c 6,114,-1
 811.667 1227 l 6,115,116
 811.667 1282 811.667 1282 825.667 1333 c 4,117,118
 839.667 1383 839.667 1383 863.667 1419 c 4,119,120
 888.667 1456 888.667 1456 921.667 1477 c 132,-1,121
 954.667 1498 954.667 1498 991.667 1498 c 4,43,44
1514.67 1491 m 132,-1,123
 1548.67 1491 1548.67 1491 1576.67 1469 c 132,-1,124
 1604.67 1447 1604.67 1447 1624.67 1407 c 5,125,126
 1642.67 1367 1642.67 1367 1648.67 1320 c 5,127,-1
 1768.67 175 l 5,128,129
 1770.67 167 1770.67 167 1766.67 162 c 4,130,131
 1762.67 156 1762.67 156 1759.67 155 c 6,132,-1
 1650.67 129 l 6,133,134
 1647.67 128 1647.67 128 1642.67 133 c 5,135,136
 1638.67 139 1638.67 139 1637.67 143 c 5,137,-1
 1637.67 144 l 6,138,139
 1637.67 145 1637.67 145 1637.67 146 c 132,-1,140
 1637.67 147 1637.67 147 1637.17 149 c 132,-1,141
 1636.67 151 1636.67 151 1636.67 153.5 c 132,-1,142
 1636.67 156 1636.67 156 1636.17 159.5 c 132,-1,143
 1635.67 163 1635.67 163 1635.67 167 c 4,144,145
 1634.67 174 1634.67 174 1633.17 194.5 c 132,-1,146
 1631.67 215 1631.67 215 1629.67 228 c 4,147,148
 1624.67 286 1624.67 286 1622.67 308 c 4,149,150
 1618.67 347 1618.67 347 1613.67 390 c 4,151,152
 1611.67 404 1611.67 404 1610.17 426.5 c 132,-1,153
 1608.67 449 1608.67 449 1607.67 457 c 4,154,155
 1603.67 488 1603.67 488 1603.67 491 c 5,156,-1
 1425.67 491 l 5,157,158
 1425.67 484 1425.67 484 1422.67 457 c 4,159,160
 1421.67 450 1421.67 450 1419.67 427.5 c 132,-1,161
 1417.67 405 1417.67 405 1415.67 390 c 4,162,163
 1413.67 376 1413.67 376 1411.17 348 c 132,-1,164
 1408.67 320 1408.67 320 1407.67 308 c 4,165,166
 1406.67 297 1406.67 297 1404.17 269.5 c 132,-1,167
 1401.67 242 1401.67 242 1399.67 228 c 4,168,169
 1397.67 215 1397.67 215 1396.17 194.5 c 132,-1,170
 1394.67 174 1394.67 174 1393.67 167 c 4,171,172
 1391.67 151 1391.67 151 1391.67 143 c 5,173,174
 1390.67 139 1390.67 139 1386.67 133 c 4,175,176
 1382.67 128 1382.67 128 1378.67 129 c 6,177,-1
 1270.67 155 l 6,178,179
 1267.67 156 1267.67 156 1263.67 162 c 4,180,181
 1260.67 167 1260.67 167 1260.67 175 c 6,182,-1
 1380.67 1320 l 6,183,184
 1385.67 1365 1385.67 1365 1405.67 1407 c 5,185,186
 1426.67 1448 1426.67 1448 1452.67 1469 c 4,187,122
 1480.67 1491 1480.67 1491 1514.67 1491 c 132,-1,123
991.667 1325 m 4,188,189
 976.667 1325 976.667 1325 966.667 1315 c 5,190,191
 956.667 1308 956.667 1308 949.667 1288 c 4,192,193
 942.667 1269 942.667 1269 942.667 1251 c 6,194,-1
 942.667 1050 l 6,195,196
 942.667 1022 942.667 1022 953.667 1002 c 4,197,198
 963.667 984 963.667 984 981.667 977 c 5,199,-1
 1016.67 1006 l 6,200,201
 1025.67 1014 1025.67 1014 1034.67 1034 c 4,202,203
 1041.67 1051 1041.67 1051 1041.67 1072 c 6,204,-1
 1041.67 1251 l 6,205,206
 1041.67 1271 1041.67 1271 1035.67 1288 c 4,207,208
 1028.67 1307 1028.67 1307 1017.67 1315 c 5,209,210
 1007.67 1325 1007.67 1325 991.667 1325 c 4,188,189
495.667 1317 m 132,-1,212
 474.667 1317 474.667 1317 453.667 1299 c 4,213,214
 434.667 1283 434.667 1283 422.667 1254 c 5,215,216
 411.667 1224 411.667 1224 411.667 1190 c 6,217,-1
 411.667 431 l 6,218,219
 411.667 397 411.667 397 422.667 367 c 5,220,221
 434.667 338 434.667 338 453.667 322 c 4,222,223
 473.667 305 473.667 305 495.667 305 c 132,-1,224
 517.667 305 517.667 305 537.667 322 c 4,225,226
 558.667 340 558.667 340 568.667 367 c 4,227,228
 579.667 397 579.667 397 579.667 431 c 6,229,-1
 579.667 1190 l 6,230,231
 579.667 1224 579.667 1224 568.667 1254 c 4,232,233
 558.667 1281 558.667 1281 537.667 1299 c 132,-1,211
 516.667 1317 516.667 1317 495.667 1317 c 132,-1,212
1514.67 1303 m 132,-1,235
 1511.67 1303 1511.67 1303 1507.67 1299 c 5,236,-1
 1504.67 1291 l 5,237,-1
 1443.67 668 l 5,238,-1
 1586.67 668 l 5,239,-1
 1525.67 1291 l 5,240,241
 1523.67 1297 1523.67 1297 1521.67 1299 c 4,242,234
 1517.67 1303 1517.67 1303 1514.67 1303 c 132,-1,235
EndSplineSet
EndChar

StartChar: pplay
Encoding: 78 78 42
Width: 2048
GlyphClass: 2
Flags: W
LayerCount: 2
Fore
SplineSet
1024 1561 m 132,-1,1
 1226 1561 1226 1561 1397.5 1461 c 132,-1,2
 1569 1361 1569 1361 1669 1189.5 c 132,-1,3
 1769 1018 1769 1018 1769 816 c 132,-1,4
 1769 614 1769 614 1669 442.5 c 132,-1,5
 1569 271 1569 271 1397.5 171 c 132,-1,6
 1226 71 1226 71 1024 71 c 132,-1,7
 822 71 822 71 650.5 171 c 132,-1,8
 479 271 479 271 379 442.5 c 132,-1,9
 279 614 279 614 279 816 c 132,-1,10
 279 1018 279 1018 379 1189.5 c 132,-1,11
 479 1361 479 1361 650.5 1461 c 132,-1,0
 822 1561 822 1561 1024 1561 c 132,-1,1
1024 1410 m 4,12,13
 903 1410 903 1410 793 1363 c 132,-1,14
 683 1316 683 1316 604 1236.5 c 132,-1,15
 525 1157 525 1157 478 1047 c 132,-1,16
 431 937 431 937 431 816 c 4,17,18
 431 655 431 655 510.5 518.5 c 132,-1,19
 590 382 590 382 726.5 302.5 c 132,-1,20
 863 223 863 223 1024 223 c 4,21,22
 1145 223 1145 223 1255 270 c 132,-1,23
 1365 317 1365 317 1444.5 396 c 132,-1,24
 1524 475 1524 475 1571 585 c 132,-1,25
 1618 695 1618 695 1618 816 c 4,26,27
 1618 977 1618 977 1538.5 1114 c 132,-1,28
 1459 1251 1459 1251 1322 1330.5 c 132,-1,29
 1185 1410 1185 1410 1024 1410 c 4,12,13
950 1131 m 132,-1,31
 966 1131 966 1131 977 1120 c 6,32,-1
 1255 843 l 6,33,34
 1266 832 1266 832 1266 816 c 4,35,36
 1266 801 1266 801 1255 790 c 6,37,-1
 977 512 l 6,38,39
 966 501 966 501 950 501 c 132,-1,40
 934 501 934 501 923.5 512 c 132,-1,41
 913 523 913 523 913 539 c 6,42,-1
 913 1094 l 6,43,44
 913 1110 913 1110 923.5 1120.5 c 132,-1,30
 934 1131 934 1131 950 1131 c 132,-1,31
EndSplineSet
EndChar

StartChar: ppause
Encoding: 79 79 43
Width: 2048
GlyphClass: 2
Flags: W
LayerCount: 2
Fore
SplineSet
1024 1558 m 132,-1,1
 1226 1558 1226 1558 1397.5 1458 c 132,-1,2
 1569 1358 1569 1358 1669 1186.5 c 132,-1,3
 1769 1015 1769 1015 1769 813 c 132,-1,4
 1769 611 1769 611 1669 439.5 c 132,-1,5
 1569 268 1569 268 1397.5 168 c 132,-1,6
 1226 68 1226 68 1024 68 c 132,-1,7
 822 68 822 68 650.5 168 c 132,-1,8
 479 268 479 268 379 439.5 c 132,-1,9
 279 611 279 611 279 813 c 132,-1,10
 279 1015 279 1015 379 1186.5 c 132,-1,11
 479 1358 479 1358 650.5 1458 c 132,-1,0
 822 1558 822 1558 1024 1558 c 132,-1,1
1024 1407 m 4,12,13
 903 1407 903 1407 793 1360 c 132,-1,14
 683 1313 683 1313 604 1233.5 c 132,-1,15
 525 1154 525 1154 478 1044 c 132,-1,16
 431 934 431 934 431 813 c 4,17,18
 431 652 431 652 510.5 515.5 c 132,-1,19
 590 379 590 379 726.5 299.5 c 132,-1,20
 863 220 863 220 1024 220 c 4,21,22
 1145 220 1145 220 1255 267 c 132,-1,23
 1365 314 1365 314 1444.5 393 c 132,-1,24
 1524 472 1524 472 1571 582 c 132,-1,25
 1618 692 1618 692 1618 813 c 4,26,27
 1618 974 1618 974 1538.5 1111 c 132,-1,28
 1459 1248 1459 1248 1322 1327.5 c 132,-1,29
 1185 1407 1185 1407 1024 1407 c 4,12,13
837 1128 m 6,30,31
 948 1128 l 6,32,33
 958 1128 958 1128 964.5 1121.5 c 132,-1,34
 971 1115 971 1115 971 1105 c 6,35,-1
 971 521 l 6,36,37
 971 511 971 511 964.5 504.5 c 132,-1,38
 958 498 958 498 948 498 c 6,39,-1
 837 498 l 6,40,41
 827 498 827 498 820.5 504.5 c 132,-1,42
 814 511 814 511 814 521 c 6,43,-1
 814 1105 l 6,44,45
 814 1115 814 1115 820.5 1121.5 c 132,-1,46
 827 1128 827 1128 837 1128 c 6,30,31
1100 1128 m 6,47,-1
 1211 1128 l 6,48,49
 1221 1128 1221 1128 1228 1121.5 c 132,-1,50
 1235 1115 1235 1115 1235 1105 c 6,51,-1
 1235 521 l 6,52,53
 1235 511 1235 511 1228 504.5 c 132,-1,54
 1221 498 1221 498 1211 498 c 6,55,-1
 1100 498 l 6,56,57
 1090 498 1090 498 1083.5 504.5 c 132,-1,58
 1077 511 1077 511 1077 521 c 6,59,-1
 1077 1105 l 6,60,61
 1077 1115 1077 1115 1083.5 1121.5 c 132,-1,62
 1090 1128 1090 1128 1100 1128 c 6,47,-1
EndSplineSet
EndChar

StartChar: resume
Encoding: 80 80 44
Width: 2048
GlyphClass: 2
Flags: W
LayerCount: 2
Fore
SplineSet
661.17 48.5 m 0,0,1
 606.605 60.9688 606.605 60.9688 589.764 115.55 c 0,2,3
 587.039 124.379 587.039 124.379 587.039 826.988 c 128,-1,4
 587.039 1529.59 587.039 1529.59 589.764 1538.43 c 0,5,6
 597.002 1561.88 597.002 1561.88 614.502 1579.38 c 0,7,8
 642.074 1606.95 642.074 1606.95 681.365 1606.7 c 0,9,10
 707.059 1606.53 707.059 1606.53 728.652 1593.99 c 0,11,12
 737.068 1589.11 737.068 1589.11 1090.81 1235.53 c 2,13,-1
 1444.55 881.949 l 1,14,-1
 1450.68 869.323 l 2,15,16
 1471.24 826.988 1471.24 826.988 1450.68 784.654 c 2,17,-1
 1444.55 772.027 l 1,18,-1
 1090.81 418.447 l 2,19,20
 737.07 64.8672 737.07 64.8672 728.652 59.9805 c 0,21,22
 695.398 40.6768 695.398 40.6768 661.17 48.5 c 0,0,1
EndSplineSet
EndChar

StartChar: ppau2
Encoding: 81 81 45
Width: 2048
GlyphClass: 2
Flags: W
LayerCount: 2
Fore
SplineSet
673.021 33.876 m 0,0,1
 655.291 41.6729 655.291 41.6729 649.787 74.0703 c 0,2,3
 648.174 83.5654 648.174 83.5654 648.598 826.06 c 2,4,-1
 649.021 1568.56 l 1,5,-1
 652.437 1578.62 l 2,6,7
 658.315 1595.94 658.315 1595.94 669.756 1604.42 c 0,8,9
 673.99 1607.56 673.99 1607.56 791.256 1607.56 c 2,10,-1
 908.521 1607.56 l 1,11,-1
 913.39 1604.09 l 2,12,13
 922.314 1597.72 922.314 1597.72 929.424 1578.45 c 2,14,-1
 932.521 1570.06 l 1,15,-1
 932.937 826.06 l 2,16,17
 933.351 82.0625 933.351 82.0625 931.658 71.8291 c 0,18,19
 927.527 46.8789 927.527 46.8789 914.157 36.6797 c 2,20,-1
 908.757 32.5596 l 1,21,-1
 793.14 32.2285 l 2,22,23
 677.522 31.8965 677.522 31.8965 673.021 33.876 c 0,0,1
1140.54 34.3174 m 0,24,25
 1125.96 41.5479 1125.96 41.5479 1120.14 69.6963 c 0,26,27
 1117.77 81.1846 1117.77 81.1846 1117.8 820.371 c 0,28,29
 1117.8 878.178 1117.8 878.178 1117.8 979.433 c 0,30,31
 1117.78 1426.45 1117.78 1426.45 1118.67 1502.34 c 128,-1,32
 1119.57 1578.24 1119.57 1578.24 1124.94 1586.62 c 0,33,34
 1126.16 1588.53 1126.16 1588.53 1126.85 1589.93 c 0,35,36
 1131.45 1599.3 1131.45 1599.3 1136.87 1603.43 c 2,37,-1
 1142.29 1607.56 l 1,38,-1
 1258.77 1607.56 l 1,39,-1
 1375.25 1607.56 l 1,40,-1
 1380.48 1603.58 l 2,41,42
 1392.58 1594.35 1392.58 1594.35 1397.44 1570.06 c 0,43,44
 1399.84 1558.05 1399.84 1558.05 1399.43 814.06 c 2,45,-1
 1399.02 70.0596 l 1,46,-1
 1395.55 60.5039 l 2,47,48
 1389.03 42.5518 1389.03 42.5518 1379.98 36.0957 c 2,49,-1
 1375.02 32.5596 l 1,50,-1
 1260.27 32.2031 l 2,51,52
 1145.52 31.8477 1145.52 31.8477 1140.54 34.3174 c 0,24,25
EndSplineSet
EndChar

StartChar: pback
Encoding: 82 82 46
Width: 2048
GlyphClass: 2
Flags: W
LayerCount: 2
Fore
SplineSet
1244.44 1557 m 4,0,1
 1281.44 1557 1281.44 1557 1306.44 1550 c 6,2,-1
 1707.44 1445 l 6,3,4
 1751.44 1434 1751.44 1434 1764.94 1411.5 c 132,-1,5
 1778.44 1389 1778.44 1389 1752.44 1369 c 6,6,-1
 1039.44 812 l 5,7,-1
 1752.44 255 l 5,8,9
 1778.44 236 1778.44 236 1764.94 213 c 132,-1,10
 1751.44 190 1751.44 190 1707.44 179 c 6,11,-1
 1306.44 75 l 6,12,13
 1277.44 67 1277.44 67 1244.44 67 c 4,14,15
 1165.44 67 1165.44 67 1132.44 100 c 5,16,-1
 327.443 729 l 6,17,18
 278.443 767 278.443 767 278.443 812 c 132,-1,19
 278.443 857 278.443 857 327.443 895 c 6,20,-1
 1132.44 1525 l 5,21,22
 1164.44 1557 1164.44 1557 1244.44 1557 c 4,0,1
EndSplineSet
EndChar

StartChar: pnext
Encoding: 83 83 47
Width: 2048
GlyphClass: 2
Flags: W
LayerCount: 2
Fore
SplineSet
803.165 1556 m 4,0,1
 883.165 1556 883.165 1556 915.165 1524 c 5,2,-1
 1720.17 894 l 6,3,4
 1769.17 856 1769.17 856 1769.17 811 c 132,-1,5
 1769.17 766 1769.17 766 1720.17 728 c 6,6,-1
 915.165 99 l 5,7,8
 882.165 66 882.165 66 803.165 66 c 4,9,10
 770.165 66 770.165 66 741.165 74 c 6,11,-1
 340.165 178 l 6,12,13
 296.165 189 296.165 189 283.165 212 c 132,-1,14
 270.165 235 270.165 235 296.165 254 c 5,15,-1
 1008.17 811 l 5,16,-1
 296.165 1368 l 6,17,18
 270.165 1388 270.165 1388 283.165 1410.5 c 132,-1,19
 296.165 1433 296.165 1433 340.165 1444 c 6,20,-1
 741.165 1549 l 6,21,22
 766.165 1556 766.165 1556 803.165 1556 c 4,0,1
EndSplineSet
EndChar

StartChar: folder
Encoding: 84 84 48
Width: 2048
GlyphClass: 2
Flags: W
LayerCount: 2
Fore
SplineSet
1714.01 1564 m 6,0,1
 1737.01 1564 1737.01 1564 1753.01 1545.5 c 132,-1,2
 1769.01 1527 1769.01 1527 1769.01 1501 c 6,3,-1
 1769.01 265 l 6,4,5
 1769.01 186 1769.01 186 1720.51 130 c 132,-1,6
 1672.01 74 1672.01 74 1603.01 74 c 6,7,-1
 445.01 74 l 5,8,9
 443.865 73.9824 443.865 73.9824 442.724 73.9824 c 4,10,11
 377.155 73.9824 377.155 73.9824 328.01 130.5 c 132,-1,12
 278.99 186.873 278.99 186.873 278.99 261.988 c 4,13,14
 278.99 263.49 278.99 263.49 279.01 265 c 5,15,-1
 279.01 1246 l 6,16,17
 279.01 1272 279.01 1272 295.01 1291 c 132,-1,18
 311.01 1310 311.01 1310 334.01 1310 c 6,19,-1
 1492.01 1310 l 6,20,21
 1515.01 1310 1515.01 1310 1531.51 1291.5 c 132,-1,22
 1548.01 1273 1548.01 1273 1548.01 1247 c 6,23,-1
 1548.01 265 l 6,24,25
 1548.01 239 1548.01 239 1564.01 220 c 132,-1,26
 1580.01 201 1580.01 201 1603.01 201 c 132,-1,27
 1626.01 201 1626.01 201 1642.01 220 c 132,-1,28
 1658.01 239 1658.01 239 1658.01 265 c 6,29,-1
 1658.01 1437 l 5,30,-1
 1489.01 1437 l 5,31,-1
 500.01 1437 l 5,32,-1
 500.01 1500 l 6,33,34
 500.01 1526 500.01 1526 516.51 1545 c 132,-1,35
 533.01 1564 533.01 1564 556.01 1564 c 6,36,-1
 1714.01 1564 l 6,0,1
EndSplineSet
EndChar

StartChar: pvideo2
Encoding: 85 85 49
Width: 2048
GlyphClass: 2
Flags: W
LayerCount: 2
Fore
SplineSet
334.01 1559 m 6,0,1
 1493.01 1559 l 6,2,3
 1516.01 1559 1516.01 1559 1532.01 1543 c 132,-1,4
 1548.01 1527 1548.01 1527 1548.01 1504 c 6,5,-1
 1548.01 235 l 6,6,7
 1548.01 212 1548.01 212 1564.01 196 c 132,-1,8
 1580.01 180 1580.01 180 1603.01 180 c 132,-1,9
 1626.01 180 1626.01 180 1642.01 196 c 132,-1,10
 1658.01 212 1658.01 212 1658.01 235 c 6,11,-1
 1658.01 1354 l 5,12,-1
 1714.01 1354 l 6,13,14
 1736.01 1354 1736.01 1354 1752.51 1338 c 132,-1,15
 1769.01 1322 1769.01 1322 1769.01 1299 c 6,16,-1
 1769.01 235 l 6,17,18
 1769.01 166 1769.01 166 1720.51 117.5 c 132,-1,19
 1672.01 69 1672.01 69 1603.01 69 c 6,20,-1
 445.01 69 l 5,21,22
 443.677 68.9805 443.677 68.9805 442.35 68.9805 c 4,23,24
 376.039 68.9805 376.039 68.9805 327.51 118 c 132,-1,25
 278.99 167.01 278.99 167.01 278.99 232.353 c 4,26,27
 278.99 233.673 278.99 233.673 279.01 235 c 5,28,-1
 279.01 1504 l 6,29,30
 279.01 1527 279.01 1527 295.01 1543 c 132,-1,31
 311.01 1559 311.01 1559 334.01 1559 c 6,0,1
390.01 1449 m 5,32,-1
 390.01 1247 l 5,33,-1
 591.01 1247 l 5,34,-1
 591.01 1449 l 5,35,-1
 390.01 1449 l 5,32,-1
1236.01 1449 m 5,36,-1
 1236.01 1247 l 5,37,-1
 1437.01 1247 l 5,38,-1
 1437.01 1449 l 5,39,-1
 1236.01 1449 l 5,36,-1
390.01 1093 m 5,40,-1
 390.01 892 l 5,41,-1
 591.01 892 l 5,42,-1
 591.01 1093 l 5,43,-1
 390.01 1093 l 5,40,-1
806.01 1093 m 132,-1,45
 792.01 1093 792.01 1093 782.01 1082.5 c 132,-1,46
 772.01 1072 772.01 1072 772.01 1059 c 6,47,-1
 772.01 569 l 6,48,49
 772.01 556 772.01 556 782.01 546 c 132,-1,50
 792.01 536 792.01 536 806.01 536 c 132,-1,51
 820.01 536 820.01 536 830.01 546 c 6,52,-1
 1075.01 791 l 6,53,54
 1084.01 800 1084.01 800 1084.01 814 c 4,55,56
 1084.01 829 1084.01 829 1075.01 838 c 6,57,-1
 830.01 1083 l 6,58,44
 820.01 1093 820.01 1093 806.01 1093 c 132,-1,45
1236.01 1093 m 5,59,-1
 1236.01 892 l 5,60,-1
 1437.01 892 l 5,61,-1
 1437.01 1093 l 5,62,-1
 1236.01 1093 l 5,59,-1
390.01 737 m 5,63,-1
 390.01 536 l 5,64,-1
 591.01 536 l 5,65,-1
 591.01 737 l 5,66,-1
 390.01 737 l 5,63,-1
1236.01 737 m 5,67,-1
 1236.01 536 l 5,68,-1
 1437.01 536 l 5,69,-1
 1437.01 737 l 5,70,-1
 1236.01 737 l 5,67,-1
390.01 381 m 5,71,-1
 390.01 180 l 5,72,-1
 591.01 180 l 5,73,-1
 591.01 381 l 5,74,-1
 390.01 381 l 5,71,-1
1236.01 381 m 5,75,-1
 1236.01 180 l 5,76,-1
 1437.01 180 l 5,77,-1
 1437.01 381 l 5,78,-1
 1236.01 381 l 5,75,-1
EndSplineSet
EndChar

StartChar: pslide2
Encoding: 86 86 50
Width: 2048
GlyphClass: 2
Flags: W
LayerCount: 2
Fore
SplineSet
777 1559 m 6,0,1
 1714 1559 l 6,2,3
 1737 1559 1737 1559 1753 1540.5 c 132,-1,4
 1769 1522 1769 1522 1769 1496 c 6,5,-1
 1769 641 l 6,6,7
 1769 615 1769 615 1753 596 c 132,-1,8
 1737 577 1737 577 1714 577 c 6,9,-1
 1658 577 l 5,10,-1
 1658 1432 l 5,11,-1
 722 1432 l 5,12,-1
 722 1496 l 6,13,14
 722 1522 722 1522 738 1540.5 c 132,-1,15
 754 1559 754 1559 777 1559 c 6,0,1
556 1306 m 6,16,-1
 1493 1306 l 6,17,18
 1516 1306 1516 1306 1532 1287 c 132,-1,19
 1548 1268 1548 1268 1548 1242 c 6,20,-1
 1548 387 l 6,21,22
 1548 361 1548 361 1532 342.5 c 132,-1,23
 1516 324 1516 324 1493 324 c 6,24,-1
 1437 324 l 5,25,-1
 1437 1178 l 5,26,-1
 501 1178 l 5,27,-1
 501 1242 l 6,28,29
 501 1268 501 1268 517 1287 c 132,-1,30
 533 1306 533 1306 556 1306 c 6,16,-1
335 1051 m 6,31,-1
 1271 1051 l 6,32,33
 1294 1051 1294 1051 1310 1032 c 132,-1,34
 1326 1013 1326 1013 1326 987 c 6,35,-1
 1326 133 l 6,36,37
 1326 107 1326 107 1310 88 c 132,-1,38
 1294 69 1294 69 1271 69 c 6,39,-1
 335 69 l 6,40,41
 312 69 312 69 295.5 88 c 132,-1,42
 279 107 279 107 279 133 c 6,43,-1
 279 987 l 6,44,45
 279 1013 279 1013 295.5 1032 c 132,-1,46
 312 1051 312 1051 335 1051 c 6,31,-1
390 924 m 5,47,-1
 390 197 l 5,48,-1
 1216 197 l 5,49,-1
 1216 924 l 5,50,-1
 390 924 l 5,47,-1
EndSplineSet
EndChar

StartChar: pser2
Encoding: 87 87 51
Width: 2048
GlyphClass: 2
Flags: W
LayerCount: 2
Fore
SplineSet
1190.01 1561 m 6,0,1
 1714.01 1561 l 6,2,3
 1737.01 1561 1737.01 1561 1753.01 1542.5 c 132,-1,4
 1769.01 1524 1769.01 1524 1769.01 1498 c 6,5,-1
 1769.01 262 l 6,6,7
 1769.01 183 1769.01 183 1720.51 127 c 132,-1,8
 1672.01 71 1672.01 71 1603.01 71 c 6,9,-1
 445.01 71 l 5,10,11
 443.865 70.9824 443.865 70.9824 442.724 70.9824 c 4,12,13
 377.155 70.9824 377.155 70.9824 328.01 127.5 c 132,-1,14
 278.99 183.873 278.99 183.873 278.99 258.988 c 4,15,16
 278.99 260.49 278.99 260.49 279.01 262 c 5,17,-1
 279.01 1117 l 6,18,19
 279.01 1143 279.01 1143 295.01 1161.5 c 132,-1,20
 311.01 1180 311.01 1180 334.01 1180 c 6,21,-1
 1492.01 1180 l 6,22,23
 1515.01 1180 1515.01 1180 1531.51 1161.5 c 132,-1,24
 1548.01 1143 1548.01 1143 1548.01 1117 c 6,25,-1
 1548.01 262 l 6,26,27
 1548.01 236 1548.01 236 1564.01 217 c 132,-1,28
 1580.01 198 1580.01 198 1603.01 198 c 132,-1,29
 1626.01 198 1626.01 198 1642.01 217 c 132,-1,30
 1658.01 236 1658.01 236 1658.01 262 c 6,31,-1
 1658.01 1307 l 5,32,-1
 500.01 1307 l 5,33,-1
 500.01 1370 l 6,34,35
 500.01 1396 500.01 1396 516.51 1415 c 132,-1,36
 533.01 1434 533.01 1434 556.01 1434 c 6,37,-1
 1135.01 1434 l 5,38,-1
 1135.01 1498 l 6,39,40
 1135.01 1524 1135.01 1524 1151.01 1542.5 c 132,-1,41
 1167.01 1561 1167.01 1561 1190.01 1561 c 6,0,1
867.01 926 m 4,42,43
 854.01 926 854.01 926 845.01 915.5 c 132,-1,44
 836.01 905 836.01 905 836.01 890 c 6,45,-1
 836.01 361 l 6,46,47
 836.01 346 836.01 346 845.01 335.5 c 132,-1,48
 854.01 325 854.01 325 867.01 325 c 4,49,50
 881.01 325 881.01 325 890.01 336 c 6,51,-1
 1120.01 600 l 6,52,53
 1129.01 610 1129.01 610 1129.01 626 c 4,54,55
 1129.01 640 1129.01 640 1120.01 651 c 6,56,-1
 890.01 916 l 6,57,58
 881.01 926 881.01 926 867.01 926 c 4,42,43
EndSplineSet
EndChar

StartChar: pvid
Encoding: 88 88 52
Width: 2048
GlyphClass: 2
Flags: W
LayerCount: 2
Fore
SplineSet
343 1561 m 6,0,1
 971 1561 l 5,2,-1
 1015 1561 l 5,3,-1
 1134 1561 l 5,4,-1
 1356 1561 l 5,5,-1
 1360 1561 l 5,6,-1
 1413 1561 l 5,7,-1
 1706 1561 l 6,8,9
 1732 1561 1732 1561 1750.5 1544.5 c 132,-1,10
 1769 1528 1769 1528 1769 1505 c 6,11,-1
 1769 127 l 6,12,13
 1769 104 1769 104 1750.5 87.5 c 132,-1,14
 1732 71 1732 71 1706 71 c 6,15,-1
 1281 71 l 5,16,-1
 1224 71 l 5,17,-1
 1134 71 l 5,18,-1
 974 71 l 5,19,-1
 971 71 l 5,20,-1
 343 71 l 6,21,22
 317 71 317 71 298 87.5 c 132,-1,23
 279 104 279 104 279 127 c 6,24,-1
 279 1506 l 6,25,26
 279 1529 279 1529 298 1545 c 132,-1,27
 317 1561 317 1561 343 1561 c 6,0,1
406 1451 m 5,28,-1
 406 1249 l 5,29,-1
 637 1249 l 5,30,-1
 637 1451 l 5,31,-1
 406 1451 l 5,28,-1
1411 1451 m 5,32,-1
 1411 1249 l 5,33,-1
 1642 1249 l 5,34,-1
 1642 1451 l 5,35,-1
 1411 1451 l 5,32,-1
406 1095 m 5,36,-1
 406 894 l 5,37,-1
 637 894 l 5,38,-1
 637 1095 l 5,39,-1
 406 1095 l 5,36,-1
900 1095 m 132,-1,41
 884 1095 884 1095 873 1085 c 132,-1,42
 862 1075 862 1075 862 1061 c 6,43,-1
 862 571 l 6,44,45
 862 557 862 557 873 547.5 c 132,-1,46
 884 538 884 538 900 538 c 132,-1,47
 916 538 916 538 928 548 c 6,48,-1
 1209 793 l 6,49,50
 1220 802 1220 802 1220 816 c 4,51,52
 1220 831 1220 831 1209 840 c 6,53,-1
 928 1085 l 6,54,40
 916 1095 916 1095 900 1095 c 132,-1,41
1411 1095 m 5,55,-1
 1411 894 l 5,56,-1
 1642 894 l 5,57,-1
 1642 1095 l 5,58,-1
 1411 1095 l 5,55,-1
406 739 m 5,59,-1
 406 538 l 5,60,-1
 637 538 l 5,61,-1
 637 739 l 5,62,-1
 406 739 l 5,59,-1
1411 739 m 5,63,-1
 1411 538 l 5,64,-1
 1642 538 l 5,65,-1
 1642 739 l 5,66,-1
 1411 739 l 5,63,-1
406 383 m 5,67,-1
 406 182 l 5,68,-1
 637 182 l 5,69,-1
 637 383 l 5,70,-1
 406 383 l 5,67,-1
1411 383 m 5,71,-1
 1411 182 l 5,72,-1
 1642 182 l 5,73,-1
 1642 383 l 5,74,-1
 1411 383 l 5,71,-1
EndSplineSet
EndChar

StartChar: pshow2
Encoding: 89 89 53
Width: 2048
GlyphClass: 2
Flags: W
LayerCount: 2
Fore
SplineSet
777 1565 m 2,0,1
 1714 1565 l 2,2,3
 1737 1565 1737 1565 1753 1546.5 c 128,-1,4
 1769 1528 1769 1528 1769 1502 c 2,5,-1
 1769 647 l 2,6,7
 1769 621 1769 621 1753 602.5 c 128,-1,8
 1737 584 1737 584 1714 584 c 2,9,-1
 1658 584 l 1,10,-1
 1658 1438 l 1,11,-1
 722 1438 l 1,12,-1
 722 1502 l 2,13,14
 722 1528 722 1528 738 1546.5 c 128,-1,15
 754 1565 754 1565 777 1565 c 2,0,1
556 1311 m 2,16,-1
 1492 1311 l 2,17,18
 1515 1311 1515 1311 1531.5 1292.5 c 128,-1,19
 1548 1274 1548 1274 1548 1248 c 2,20,-1
 1548 393 l 2,21,22
 1548 367 1548 367 1531.5 348.5 c 128,-1,23
 1515 330 1515 330 1492 330 c 2,24,-1
 1437 330 l 1,25,-1
 1437 1184 l 1,26,-1
 501 1184 l 1,27,-1
 501 1248 l 2,28,29
 501 1274 501 1274 517 1292.5 c 128,-1,30
 533 1311 533 1311 556 1311 c 2,16,-1
335 1057 m 2,31,-1
 1271 1057 l 2,32,33
 1294 1057 1294 1057 1310 1038 c 128,-1,34
 1326 1019 1326 1019 1326 993 c 2,35,-1
 1326 139 l 2,36,37
 1326 113 1326 113 1310 94 c 128,-1,38
 1294 75 1294 75 1271 75 c 2,39,-1
 335 75 l 2,40,41
 312 75 312 75 295.5 94 c 128,-1,42
 279 113 279 113 279 139 c 2,43,-1
 279 993 l 2,44,45
 279 1019 279 1019 295.5 1038 c 128,-1,46
 312 1057 312 1057 335 1057 c 2,31,-1
EndSplineSet
EndChar

StartChar: pQA
Encoding: 90 90 54
Width: 2048
GlyphClass: 2
Flags: W
LayerCount: 2
Fore
SplineSet
334 1561 m 6,0,1
 1714 1561 l 6,2,3
 1737 1561 1737 1561 1753 1542 c 132,-1,4
 1769 1523 1769 1523 1769 1496 c 6,5,-1
 1769 1310 l 5,6,-1
 1769 323 l 5,7,-1
 1769 136 l 6,8,9
 1769 109 1769 109 1753 90 c 132,-1,10
 1737 71 1737 71 1714 71 c 6,11,-1
 334 71 l 6,12,13
 311 71 311 71 295 90 c 132,-1,14
 279 109 279 109 279 136 c 6,15,-1
 279 1496 l 6,16,17
 279 1523 279 1523 295 1542 c 132,-1,18
 311 1561 311 1561 334 1561 c 6,0,1
647 1227 m 132,-1,20
 612 1227 612 1227 584 1212 c 4,21,22
 555 1197 555 1197 533 1172 c 132,-1,23
 511 1147 511 1147 499 1112 c 4,24,25
 486 1075 486 1075 486 1038 c 6,26,-1
 486 619 l 6,27,28
 486 582 486 582 499 545 c 4,29,30
 511 511 511 511 533 486 c 4,31,32
 556 460 556 460 584 445 c 132,-1,33
 612 430 612 430 647 430 c 4,34,35
 659 430 659 430 679 434 c 4,36,37
 696 437 696 437 708 444 c 5,38,-1
 765 368 l 5,39,40
 766 364 766 364 771 364 c 4,41,42
 774 364 774 364 777 367 c 6,43,-1
 835 426 l 6,44,45
 838 429 838 429 838 433 c 4,46,47
 838 438 838 438 836 440 c 6,48,-1
 781 516 l 5,49,50
 793 537 793 537 801 564 c 4,51,52
 808 589 808 589 808 619 c 6,53,-1
 808 1038 l 6,54,55
 808 1075 808 1075 795 1112 c 4,56,57
 783 1147 783 1147 761 1172 c 132,-1,58
 739 1197 739 1197 710 1212 c 4,59,19
 682 1227 682 1227 647 1227 c 132,-1,20
1015 1227 m 132,-1,61
 987 1227 987 1227 963 1215 c 132,-1,62
 939 1203 939 1203 920 1181 c 132,-1,63
 901 1159 901 1159 891 1131 c 4,64,65
 881 1104 881 1104 881 1070 c 6,66,-1
 881 981 l 6,67,68
 881 949 881 949 892 918 c 4,69,70
 902 890 902 890 923 867 c 5,71,72
 903 851 903 851 887 826 c 4,73,74
 872 803 872 803 863 773 c 4,75,76
 854 744 854 744 854 712 c 6,77,-1
 854 619 l 6,78,79
 854 582 854 582 867 545 c 4,80,81
 879 511 879 511 901 486 c 132,-1,82
 923 461 923 461 953 445 c 4,83,84
 982 430 982 430 1015 430 c 4,85,86
 1050 430 1050 430 1078 445 c 132,-1,87
 1106 460 1106 460 1129 486 c 4,88,89
 1151 511 1151 511 1163 545 c 4,90,91
 1176 582 1176 582 1176 619 c 6,92,-1
 1176 680 l 5,93,-1
 1195 680 l 6,94,95
 1198 680 1198 680 1201 683 c 132,-1,96
 1204 686 1204 686 1204 690 c 6,97,-1
 1204 772 l 6,98,99
 1204 775 1204 775 1201 778 c 4,100,101
 1197 782 1197 782 1195 782 c 6,102,-1
 1086 782 l 6,103,104
 1082 782 1082 782 1080 778 c 5,105,106
 1077 775 1077 775 1077 772 c 6,107,-1
 1077 609 l 6,108,109
 1077 587 1077 587 1069 572 c 4,110,111
 1061 558 1061 558 1046 546 c 4,112,113
 1033 536 1033 536 1015 536 c 132,-1,114
 997 536 997 536 984 546 c 4,115,116
 969 558 969 558 961 572 c 4,117,118
 953 587 953 587 953 609 c 6,119,-1
 953 722 l 6,120,121
 953 745 953 745 961 760 c 4,122,123
 971 778 971 778 983 786 c 6,124,-1
 1082 853 l 6,125,126
 1102 866 1102 866 1117 887 c 132,-1,127
 1132 908 1132 908 1141 934 c 4,128,129
 1149 957 1149 957 1149 989 c 6,130,-1
 1149 1070 l 6,131,132
 1149 1104 1149 1104 1139 1131 c 4,133,134
 1129 1159 1129 1159 1110 1181 c 132,-1,135
 1091 1203 1091 1203 1067 1215 c 132,-1,60
 1043 1227 1043 1227 1015 1227 c 132,-1,61
1402 1223 m 132,-1,137
 1376 1223 1376 1223 1356 1210 c 4,138,139
 1334 1196 1334 1196 1321 1174 c 4,140,141
 1307 1151 1307 1151 1303 1124 c 6,142,-1
 1214 460 l 6,143,144
 1214 457 1214 457 1216 453 c 132,-1,145
 1218 449 1218 449 1221 449 c 6,146,-1
 1302 434 l 6,147,148
 1306 434 1306 434 1308 436 c 4,149,150
 1311 438 1311 438 1311 442 c 6,151,-1
 1313 456 l 5,152,153
 1316 487 1316 487 1317 491 c 4,154,155
 1318 498 1318 498 1323 538 c 4,156,157
 1325 555 1325 555 1329 585 c 4,158,159
 1334 619 1334 619 1334 624 c 4,160,161
 1335 630 1335 630 1336 636.5 c 132,-1,162
 1337 643 1337 643 1337 644 c 5,163,-1
 1468 644 l 5,164,165
 1468 643 1468 643 1469 636.5 c 132,-1,166
 1470 630 1470 630 1471 624 c 4,167,168
 1471 619 1471 619 1476 585 c 4,169,170
 1480 555 1480 555 1482 538 c 4,171,172
 1487 498 1487 498 1488 491 c 4,173,174
 1488 487 1488 487 1492 456 c 4,175,176
 1493 447 1493 447 1494 442 c 5,177,-1
 1497 436 l 6,178,179
 1499 434 1499 434 1503 434 c 6,180,-1
 1584 449 l 6,181,182
 1587 449 1587 449 1589 453 c 4,183,184
 1590 455 1590 455 1590 460 c 6,185,-1
 1502 1124 l 6,186,187
 1498 1151 1498 1151 1484 1174 c 4,188,189
 1471 1195 1471 1195 1448 1210 c 4,190,136
 1428 1223 1428 1223 1402 1223 c 132,-1,137
1015 1127 m 132,-1,192
 1025 1127 1025 1127 1034 1121 c 132,-1,193
 1043 1115 1043 1115 1047 1106 c 4,194,195
 1052 1094 1052 1094 1052 1084 c 6,196,-1
 1052 980 l 6,197,198
 1052 970 1052 970 1047 958 c 4,199,200
 1043 949 1043 949 1033 942 c 6,201,202
 1007 925 l 5,203,204
 994 928 994 928 987 940 c 4,205,206
 978 954 978 954 978 967 c 6,207,-1
 978 1084 l 6,208,209
 978 1094 978 1094 983 1106 c 4,210,211
 987 1115 987 1115 996 1121 c 132,-1,191
 1005 1127 1005 1127 1015 1127 c 132,-1,192
647 1122 m 132,-1,213
 663 1122 663 1122 678 1112 c 5,214,215
 692 1101 692 1101 701 1085 c 4,216,217
 709 1070 709 1070 709 1049 c 6,218,-1
 709 609 l 6,219,220
 709 587 709 587 701 572 c 4,221,222
 693 558 693 558 678 546 c 4,223,224
 665 536 665 536 647 536 c 132,-1,225
 629 536 629 536 616 546 c 4,226,227
 601 558 601 558 593 572 c 4,228,229
 584 588 584 588 584 609 c 6,230,-1
 584 1049 l 6,231,232
 584 1068 584 1068 593 1085 c 4,233,234
 602 1101 602 1101 616 1112 c 5,235,212
 631 1122 631 1122 647 1122 c 132,-1,213
1402 1114 m 132,-1,237
 1405 1114 1405 1114 1407 1112 c 4,238,239
 1410 1109 1410 1109 1410 1107 c 6,240,241
 1455 746 l 5,242,-1
 1349 746 l 5,243,-1
 1395 1107 l 6,244,245
 1395 1110 1395 1110 1397 1112 c 132,-1,236
 1399 1114 1399 1114 1402 1114 c 132,-1,237
EndSplineSet
EndChar

StartChar: pcontainer
Encoding: 49 49 55
Width: 2048
GlyphClass: 2
Flags: W
LayerCount: 2
Fore
SplineSet
1190.01 1562 m 6,0,1
 1714.01 1562 l 6,2,3
 1737.01 1562 1737.01 1562 1753.01 1543.5 c 132,-1,4
 1769.01 1525 1769.01 1525 1769.01 1499 c 6,5,-1
 1769.01 263 l 6,6,7
 1769.01 184 1769.01 184 1720.51 128 c 132,-1,8
 1672.01 72 1672.01 72 1603.01 72 c 6,9,-1
 445.01 72 l 5,10,11
 443.865 71.9824 443.865 71.9824 442.724 71.9824 c 4,12,13
 377.155 71.9824 377.155 71.9824 328.01 128.5 c 132,-1,14
 278.99 184.873 278.99 184.873 278.99 259.988 c 4,15,16
 278.99 261.49 278.99 261.49 279.01 263 c 5,17,-1
 279.01 1118 l 6,18,19
 279.01 1144 279.01 1144 295.01 1162.5 c 132,-1,20
 311.01 1181 311.01 1181 334.01 1181 c 6,21,-1
 1492.01 1181 l 6,22,23
 1515.01 1181 1515.01 1181 1531.51 1162.5 c 132,-1,24
 1548.01 1144 1548.01 1144 1548.01 1118 c 6,25,-1
 1548.01 263 l 6,26,27
 1548.01 237 1548.01 237 1564.01 218 c 132,-1,28
 1580.01 199 1580.01 199 1603.01 199 c 132,-1,29
 1626.01 199 1626.01 199 1642.01 218 c 132,-1,30
 1658.01 237 1658.01 237 1658.01 263 c 6,31,-1
 1658.01 1308 l 5,32,-1
 500.01 1308 l 5,33,-1
 500.01 1371 l 6,34,35
 500.01 1397 500.01 1397 516.51 1416 c 132,-1,36
 533.01 1435 533.01 1435 556.01 1435 c 6,37,-1
 1135.01 1435 l 5,38,-1
 1135.01 1499 l 6,39,40
 1135.01 1525 1135.01 1525 1151.01 1543.5 c 132,-1,41
 1167.01 1562 1167.01 1562 1190.01 1562 c 6,0,1
EndSplineSet
EndChar

StartChar: pl2
Encoding: 50 50 56
Width: 2048
GlyphClass: 2
Flags: W
LayerCount: 2
Fore
SplineSet
334 1555 m 6,0,1
 1714 1555 l 6,2,3
 1737 1555 1737 1555 1753 1536 c 132,-1,4
 1769 1517 1769 1517 1769 1490 c 6,5,-1
 1769 1304 l 5,6,-1
 1769 317 l 5,7,-1
 1769 130 l 6,8,9
 1769 103 1769 103 1753 84 c 132,-1,10
 1737 65 1737 65 1714 65 c 6,11,-1
 334 65 l 6,12,13
 311 65 311 65 295 84 c 132,-1,14
 279 103 279 103 279 130 c 6,15,-1
 279 1490 l 6,16,17
 279 1517 279 1517 295 1536 c 132,-1,18
 311 1555 311 1555 334 1555 c 6,0,1
390 1425 m 5,19,-1
 528 1425 l 5,20,-1
 528 1262 l 5,21,-1
 390 1262 l 5,22,-1
 390 1425 l 5,19,-1
672 1425 m 5,23,-1
 811 1425 l 5,24,-1
 811 1262 l 5,25,-1
 672 1262 l 5,26,-1
 672 1425 l 5,23,-1
955 1425 m 5,27,-1
 1094 1425 l 5,28,-1
 1094 1262 l 5,29,-1
 955 1262 l 5,30,-1
 955 1425 l 5,27,-1
1237 1425 m 5,31,-1
 1376 1425 l 5,32,-1
 1376 1262 l 5,33,-1
 1237 1262 l 5,34,-1
 1237 1425 l 5,31,-1
1520 1425 m 5,35,-1
 1658 1425 l 5,36,-1
 1658 1262 l 5,37,-1
 1520 1262 l 5,38,-1
 1520 1425 l 5,35,-1
969 1132 m 5,39,-1
 971 1132 l 6,40,41
 985 1132 985 1132 994 1121 c 6,42,-1
 1236 838 l 6,43,44
 1245 828 1245 828 1245 810 c 4,45,46
 1245 794 1245 794 1236 783 c 6,47,-1
 994 499 l 6,48,49
 985 488 985 488 971 488 c 4,50,51
 958 488 958 488 948 499.5 c 132,-1,52
 938 511 938 511 938 527 c 6,53,-1
 938 1094 l 6,54,55
 938 1110 938 1110 947 1120.5 c 132,-1,56
 956 1131 956 1131 969 1132 c 5,39,-1
390 358 m 5,57,-1
 528 358 l 5,58,-1
 528 195 l 5,59,-1
 390 195 l 5,60,-1
 390 358 l 5,57,-1
672 358 m 5,61,-1
 811 358 l 5,62,-1
 811 195 l 5,63,-1
 672 195 l 5,64,-1
 672 358 l 5,61,-1
955 358 m 5,65,-1
 1094 358 l 5,66,-1
 1094 195 l 5,67,-1
 955 195 l 5,68,-1
 955 358 l 5,65,-1
1237 358 m 5,69,-1
 1376 358 l 5,70,-1
 1376 195 l 5,71,-1
 1237 195 l 5,72,-1
 1237 358 l 5,69,-1
1520 358 m 5,73,-1
 1658 358 l 5,74,-1
 1658 195 l 5,75,-1
 1520 195 l 5,76,-1
 1520 358 l 5,73,-1
EndSplineSet
EndChar

StartChar: vid
Encoding: 51 51 57
Width: 2048
GlyphClass: 2
Flags: W
LayerCount: 2
Fore
SplineSet
334 1556 m 6,0,1
 1714 1556 l 6,2,3
 1737 1556 1737 1556 1753 1537 c 132,-1,4
 1769 1518 1769 1518 1769 1491 c 6,5,-1
 1769 1305 l 5,6,-1
 1769 318 l 5,7,-1
 1769 131 l 6,8,9
 1769 104 1769 104 1753 85 c 132,-1,10
 1737 66 1737 66 1714 66 c 6,11,-1
 334 66 l 6,12,13
 311 66 311 66 295 85 c 132,-1,14
 279 104 279 104 279 131 c 6,15,-1
 279 1491 l 6,16,17
 279 1518 279 1518 295 1537 c 132,-1,18
 311 1556 311 1556 334 1556 c 6,0,1
390 1426 m 5,19,-1
 528 1426 l 5,20,-1
 528 1263 l 5,21,-1
 390 1263 l 5,22,-1
 390 1426 l 5,19,-1
672 1426 m 5,23,-1
 811 1426 l 5,24,-1
 811 1263 l 5,25,-1
 672 1263 l 5,26,-1
 672 1426 l 5,23,-1
955 1426 m 5,27,-1
 1094 1426 l 5,28,-1
 1094 1263 l 5,29,-1
 955 1263 l 5,30,-1
 955 1426 l 5,27,-1
1237 1426 m 5,31,-1
 1376 1426 l 5,32,-1
 1376 1263 l 5,33,-1
 1237 1263 l 5,34,-1
 1237 1426 l 5,31,-1
1520 1426 m 5,35,-1
 1658 1426 l 5,36,-1
 1658 1263 l 5,37,-1
 1520 1263 l 5,38,-1
 1520 1426 l 5,35,-1
390 1133 m 5,39,-1
 955 1133 l 5,40,-1
 955 489 l 5,41,-1
 390 489 l 5,42,-1
 390 1133 l 5,39,-1
1094 1133 m 5,43,-1
 1659 1133 l 5,44,-1
 1659 489 l 5,45,-1
 1094 489 l 5,46,-1
 1094 1133 l 5,43,-1
390 359 m 5,47,-1
 528 359 l 5,48,-1
 528 196 l 5,49,-1
 390 196 l 5,50,-1
 390 359 l 5,47,-1
672 359 m 5,51,-1
 811 359 l 5,52,-1
 811 196 l 5,53,-1
 672 196 l 5,54,-1
 672 359 l 5,51,-1
955 359 m 5,55,-1
 1094 359 l 5,56,-1
 1094 196 l 5,57,-1
 955 196 l 5,58,-1
 955 359 l 5,55,-1
1237 359 m 5,59,-1
 1376 359 l 5,60,-1
 1376 196 l 5,61,-1
 1237 196 l 5,62,-1
 1237 359 l 5,59,-1
1520 359 m 5,63,-1
 1658 359 l 5,64,-1
 1658 196 l 5,65,-1
 1520 196 l 5,66,-1
 1520 359 l 5,63,-1
EndSplineSet
EndChar

StartChar: rec
Encoding: 52 52 58
Width: 2048
GlyphClass: 2
Flags: W
LayerCount: 2
Fore
SplineSet
508 1560 m 132,-1,1
 413 1560 413 1560 346 1481.5 c 132,-1,2
 279 1403 279 1403 279 1291 c 132,-1,3
 279 1179 279 1179 346 1100 c 132,-1,4
 413 1021 413 1021 508 1021 c 4,5,6
 602 1021 602 1021 669 1100 c 132,-1,7
 736 1179 736 1179 736 1291 c 132,-1,8
 736 1403 736 1403 669.5 1481.5 c 132,-1,0
 603 1560 603 1560 508 1560 c 132,-1,1
1074 1560 m 132,-1,10
 979 1560 979 1560 912.5 1481.5 c 132,-1,11
 846 1403 846 1403 846 1291 c 132,-1,12
 846 1179 846 1179 913 1100 c 132,-1,13
 980 1021 980 1021 1074 1021 c 4,14,15
 1169 1021 1169 1021 1236 1100 c 132,-1,16
 1303 1179 1303 1179 1303 1291 c 132,-1,17
 1303 1403 1303 1403 1236 1481.5 c 132,-1,9
 1169 1560 1169 1560 1074 1560 c 132,-1,10
341 891 m 6,18,19
 318 891 318 891 302 872 c 132,-1,20
 286 853 286 853 286 826 c 6,21,-1
 286 135 l 6,22,23
 286 108 286 108 302 89 c 132,-1,24
 318 70 318 70 341 70 c 6,25,-1
 1248 70 l 6,26,27
 1271 70 1271 70 1287 89 c 132,-1,28
 1303 108 1303 108 1303 135 c 6,29,-1
 1303 826 l 6,30,31
 1303 853 1303 853 1287 872 c 132,-1,32
 1271 891 1271 891 1248 891 c 6,33,-1
 341 891 l 6,18,19
1714 836 m 132,-1,35
 1691 836 1691 836 1675 817 c 6,36,-1
 1429 527 l 6,37,38
 1413 508 1413 508 1413 481 c 4,39,40
 1413 451 1413 451 1429 434 c 5,41,-1
 1675 145 l 6,42,43
 1691 126 1691 126 1714 126 c 132,-1,44
 1737 126 1737 126 1753 145 c 132,-1,45
 1769 164 1769 164 1769 191 c 6,46,-1
 1769 771 l 6,47,48
 1769 798 1769 798 1753 817 c 132,-1,34
 1737 836 1737 836 1714 836 c 132,-1,35
EndSplineSet
EndChar

StartChar: pvi
Encoding: 53 53 59
Width: 2048
GlyphClass: 2
Flags: W
LayerCount: 2
Fore
SplineSet
344 1565 m 6,0,1
 317 1565 317 1565 298 1549 c 132,-1,2
 279 1533 279 1533 279 1510 c 6,3,-1
 279 131 l 6,4,5
 279 108 279 108 298 91.5 c 132,-1,6
 317 75 317 75 344 75 c 6,7,-1
 702 75 l 5,8,-1
 702 399 l 5,9,-1
 1346 399 l 5,10,-1
 1346 75 l 5,11,-1
 1704 75 l 6,12,13
 1731 75 1731 75 1750 91.5 c 132,-1,14
 1769 108 1769 108 1769 131 c 6,15,-1
 1769 1510 l 6,16,17
 1769 1533 1769 1533 1750 1549 c 132,-1,18
 1731 1565 1731 1565 1704 1565 c 6,19,-1
 1346 1565 l 5,20,-1
 1346 1242 l 5,21,-1
 702 1242 l 5,22,-1
 702 1565 l 5,23,-1
 344 1565 l 6,0,1
409 1455 m 5,24,-1
 572 1455 l 5,25,-1
 572 1316 l 5,26,-1
 409 1316 l 5,27,-1
 409 1455 l 5,24,-1
1476 1455 m 5,28,-1
 1639 1455 l 5,29,-1
 1639 1316 l 5,30,-1
 1476 1316 l 5,31,-1
 1476 1455 l 5,28,-1
409 1172 m 5,32,-1
 572 1172 l 5,33,-1
 572 1033 l 5,34,-1
 409 1033 l 5,35,-1
 409 1172 l 5,32,-1
1476 1172 m 5,36,-1
 1639 1172 l 5,37,-1
 1639 1033 l 5,38,-1
 1476 1033 l 5,39,-1
 1476 1172 l 5,36,-1
702 1103 m 5,40,-1
 1346 1103 l 5,41,-1
 1346 538 l 5,42,-1
 702 538 l 5,43,-1
 702 1103 l 5,40,-1
409 890 m 5,44,-1
 572 890 l 5,45,-1
 572 751 l 5,46,-1
 409 751 l 5,47,-1
 409 890 l 5,44,-1
1476 890 m 5,48,-1
 1639 890 l 5,49,-1
 1639 751 l 5,50,-1
 1476 751 l 5,51,-1
 1476 890 l 5,48,-1
409 607 m 5,52,-1
 572 607 l 5,53,-1
 572 468 l 5,54,-1
 409 468 l 5,55,-1
 409 607 l 5,52,-1
1476 607 m 5,56,-1
 1639 607 l 5,57,-1
 1639 468 l 5,58,-1
 1476 468 l 5,59,-1
 1476 607 l 5,56,-1
409 325 m 5,60,-1
 572 325 l 5,61,-1
 572 186 l 5,62,-1
 409 186 l 5,63,-1
 409 325 l 5,60,-1
1476 325 m 5,64,-1
 1639 325 l 5,65,-1
 1639 186 l 5,66,-1
 1476 186 l 5,67,-1
 1476 325 l 5,64,-1
EndSplineSet
EndChar

StartChar: pic
Encoding: 54 54 60
Width: 2048
GlyphClass: 2
Flags: W
LayerCount: 2
Fore
SplineSet
808 1560 m 6,0,1
 1241 1560 l 6,2,3
 1272 1560 1272 1560 1288 1524 c 6,4,-1
 1391 1285 l 5,5,-1
 1714 1285 l 6,6,7
 1737 1285 1737 1285 1753 1263.5 c 132,-1,8
 1769 1242 1769 1242 1769 1211 c 6,9,-1
 1769 145 l 6,10,11
 1769 114 1769 114 1753 92 c 132,-1,12
 1737 70 1737 70 1714 70 c 6,13,-1
 334 70 l 6,14,15
 311 70 311 70 295 91.5 c 132,-1,16
 279 113 279 113 279 144 c 6,17,-1
 279 1211 l 6,18,19
 279 1242 279 1242 295 1263.5 c 132,-1,20
 311 1285 311 1285 334 1285 c 6,21,-1
 657 1285 l 5,22,-1
 760 1523 l 6,23,24
 777 1560 777 1560 808 1560 c 6,0,1
1534 1091 m 132,-1,26
 1567 1091 1567 1091 1590.5 1059.5 c 132,-1,27
 1614 1028 1614 1028 1614 983 c 132,-1,28
 1614 938 1614 938 1590.5 906 c 132,-1,29
 1567 874 1567 874 1534 874 c 132,-1,30
 1501 874 1501 874 1477 906 c 132,-1,31
 1453 938 1453 938 1453 983 c 132,-1,32
 1453 1028 1453 1028 1477 1059.5 c 132,-1,25
 1501 1091 1501 1091 1534 1091 c 132,-1,26
1024 1091 m 132,-1,34
 1152 1091 1152 1091 1242 970 c 132,-1,35
 1332 849 1332 849 1332 678 c 132,-1,36
 1332 507 1332 507 1242 386 c 132,-1,37
 1152 265 1152 265 1024 265 c 132,-1,38
 896 265 896 265 806 386 c 132,-1,39
 716 507 716 507 716 678 c 132,-1,40
 716 849 716 849 806 970 c 132,-1,33
 896 1091 896 1091 1024 1091 c 132,-1,34
EndSplineSet
EndChar

StartChar: pca
Encoding: 55 55 61
Width: 2048
GlyphClass: 2
Flags: W
LayerCount: 2
Fore
SplineSet
330 1559 m 5,0,-1
 335 1559 l 5,1,-1
 1714 1559 l 6,2,3
 1737 1559 1737 1559 1753 1543 c 132,-1,4
 1769 1527 1769 1527 1769 1504 c 132,-1,5
 1769 1481 1769 1481 1753 1464.5 c 132,-1,6
 1737 1448 1737 1448 1714 1448 c 6,7,-1
 335 1448 l 6,8,9
 312 1448 312 1448 295.5 1464.5 c 132,-1,10
 279 1481 279 1481 279 1504 c 4,11,12
 279 1526 279 1526 293.5 1541.5 c 132,-1,13
 308 1557 308 1557 329 1559 c 5,14,-1
 330 1559 l 5,0,-1
335 1338 m 6,15,16
 1714 1338 l 6,17,18
 1737 1338 1737 1338 1753 1321.5 c 132,-1,19
 1769 1305 1769 1305 1769 1282 c 6,20,-1
 1769 966 l 5,21,-1
 1769 803 l 5,22,-1
 1769 802 l 5,23,-1
 1769 447 l 6,24,25
 1769 424 1769 424 1752.5 408 c 132,-1,26
 1736 392 1736 392 1714 392 c 6,27,-1
 1070 392 l 5,28,-1
 1070 327 l 5,29,30
 1109 313 1109 313 1133 278.5 c 132,-1,31
 1157 244 1157 244 1157 202 c 4,32,33
 1157 147 1157 147 1118 108 c 132,-1,34
 1079 69 1079 69 1024 69 c 132,-1,35
 969 69 969 69 930 108 c 132,-1,36
 891 147 891 147 891 202 c 4,37,38
 891 245 891 245 916 279.5 c 132,-1,39
 941 314 941 314 980 328 c 5,40,-1
 980 392 l 5,41,-1
 335 392 l 6,42,43
 312 392 312 392 295.5 408 c 132,-1,44
 279 424 279 424 279 447 c 6,45,-1
 279 802 l 5,46,-1
 279 805 l 5,47,-1
 279 966 l 5,48,-1
 279 1282 l 6,49,50
 279 1305 279 1305 295.5 1321.5 c 132,-1,51
 312 1338 312 1338 335 1338 c 6,15,16
939 1118 m 4,52,53
 953 1118 953 1118 962 1109 c 6,54,-1
 1197 874 l 6,55,56
 1207 864 1207 864 1207 851 c 132,-1,57
 1207 838 1207 838 1197 828 c 6,58,-1
 962 593 l 6,59,60
 953 584 953 584 939 584 c 4,61,62
 926 584 926 584 917 593 c 132,-1,63
 908 602 908 602 908 616 c 6,64,-1
 908 1086 l 6,65,66
 908 1100 908 1100 917 1109 c 132,-1,67
 926 1118 926 1118 939 1118 c 4,52,53
1024 248 m 132,-1,69
 1043 248 1043 248 1056.5 234.5 c 132,-1,70
 1070 221 1070 221 1070 202 c 132,-1,71
 1070 183 1070 183 1056.5 169.5 c 132,-1,72
 1043 156 1043 156 1024 156 c 132,-1,73
 1005 156 1005 156 991.5 169.5 c 132,-1,74
 978 183 978 183 978 202 c 132,-1,75
 978 221 978 221 991.5 234.5 c 132,-1,68
 1005 248 1005 248 1024 248 c 132,-1,69
EndSplineSet
EndChar

StartChar: pQandA
Encoding: 56 56 62
Width: 2048
GlyphClass: 2
Flags: W
LayerCount: 2
Fore
SplineSet
781 1563 m 132,-1,1
 883 1563 883 1563 976 1523 c 132,-1,2
 1069 1483 1069 1483 1136 1416 c 132,-1,3
 1203 1349 1203 1349 1243 1256 c 132,-1,4
 1283 1163 1283 1163 1283 1061 c 4,5,6
 1283 854 1283 854 1136 707 c 6,7,-1
 781 352 l 5,8,-1
 781 560 l 5,9,10
 645 560 645 560 529 627 c 132,-1,11
 413 694 413 694 346 809.5 c 132,-1,12
 279 925 279 925 279 1061 c 4,13,14
 279 1163 279 1163 319 1256 c 132,-1,15
 359 1349 359 1349 426 1416 c 132,-1,16
 493 1483 493 1483 586 1523 c 132,-1,0
 679 1563 679 1563 781 1563 c 132,-1,1
1391 1013 m 5,17,18
 1549 1008 1549 1008 1659 895 c 132,-1,19
 1769 782 1769 782 1769 624 c 4,20,21
 1769 463 1769 463 1655 348.5 c 132,-1,22
 1541 234 1541 234 1380 234 c 5,23,-1
 1380 73 l 5,24,-1
 1104 349 l 6,25,26
 1062 391 1062 391 1033 447 c 5,27,-1
 1214 629 l 6,28,29
 1373 788 1373 788 1391 1013 c 5,17,18
EndSplineSet
EndChar

StartChar: cam
Encoding: 57 57 63
Width: 2048
GlyphClass: 2
Flags: W
LayerCount: 2
Fore
SplineSet
508 1563 m 132,-1,1
 413 1563 413 1563 346 1484.5 c 132,-1,2
 279 1406 279 1406 279 1294 c 132,-1,3
 279 1182 279 1182 346 1103 c 132,-1,4
 413 1024 413 1024 508 1024 c 4,5,6
 602 1024 602 1024 669 1103 c 132,-1,7
 736 1182 736 1182 736 1294 c 132,-1,8
 736 1406 736 1406 669.5 1484.5 c 132,-1,0
 603 1563 603 1563 508 1563 c 132,-1,1
1074 1563 m 132,-1,10
 979 1563 979 1563 912.5 1484.5 c 132,-1,11
 846 1406 846 1406 846 1294 c 132,-1,12
 846 1182 846 1182 913 1103 c 132,-1,13
 980 1024 980 1024 1074 1024 c 4,14,15
 1169 1024 1169 1024 1236 1103 c 132,-1,16
 1303 1182 1303 1182 1303 1294 c 132,-1,17
 1303 1406 1303 1406 1236 1484.5 c 132,-1,9
 1169 1563 1169 1563 1074 1563 c 132,-1,10
341 894 m 6,18,19
 318 894 318 894 302 875 c 132,-1,20
 286 856 286 856 286 829 c 6,21,-1
 286 138 l 6,22,23
 286 111 286 111 302 92 c 132,-1,24
 318 73 318 73 341 73 c 6,25,-1
 1248 73 l 6,26,27
 1271 73 1271 73 1287 92 c 132,-1,28
 1303 111 1303 111 1303 138 c 6,29,-1
 1303 829 l 6,30,31
 1303 856 1303 856 1287 875 c 132,-1,32
 1271 894 1271 894 1248 894 c 6,33,-1
 341 894 l 6,18,19
1714 839 m 132,-1,35
 1691 839 1691 839 1675 820 c 6,36,-1
 1429 530 l 6,37,38
 1413 511 1413 511 1413 484 c 4,39,40
 1413 454 1413 454 1429 437 c 5,41,-1
 1675 148 l 6,42,43
 1691 129 1691 129 1714 129 c 132,-1,44
 1737 129 1737 129 1753 148 c 132,-1,45
 1769 167 1769 167 1769 194 c 6,46,-1
 1769 774 l 6,47,48
 1769 801 1769 801 1753 820 c 132,-1,34
 1737 839 1737 839 1714 839 c 132,-1,35
1089 745 m 132,-1,50
 1117 745 1117 745 1137 721 c 132,-1,51
 1157 697 1157 697 1157 664 c 132,-1,52
 1157 631 1157 631 1137 607.5 c 132,-1,53
 1117 584 1117 584 1089 584 c 132,-1,54
 1061 584 1061 584 1041 607.5 c 132,-1,55
 1021 631 1021 631 1021 664 c 132,-1,56
 1021 697 1021 697 1041 721 c 132,-1,49
 1061 745 1061 745 1089 745 c 132,-1,50
406 737 m 5,57,-1
 909 737 l 5,58,-1
 909 216 l 5,59,-1
 406 216 l 5,60,-1
 406 737 l 5,57,-1
EndSplineSet
EndChar

StartChar: zero
Encoding: 48 48 64
Width: 2048
VWidth: 0
LayerCount: 2
Fore
SplineSet
626.627 1411.83 m 1,0,-1
 617.599 1457.71 l 1,1,-1
 1430.06 1457.71 l 1,2,-1
 1420.88 1411.83 l 1,3,-1
 1539.75 1411.83 l 1,4,-1
 1566.17 1564.39 l 1,5,-1
 481.798 1564.39 l 1,6,-1
 507.809 1411.83 l 1,7,-1
 626.627 1411.83 l 1,0,-1
634.229 1405.58 m 1,8,-1
 502.535 1405.58 l 1,9,-1
 474.396 1570.64 l 1,10,-1
 1573.6 1570.64 l 1,11,-1
 1545.01 1405.58 l 1,12,-1
 1413.26 1405.58 l 1,13,-1
 1422.43 1451.46 l 1,14,-1
 625.201 1451.46 l 1,15,-1
 634.229 1405.58 l 1,8,-1
553.297 1115.41 m 1,16,-1
 538.707 1185.99 l 1,17,-1
 1508.93 1185.99 l 1,18,-1
 1494.18 1115.41 l 1,19,-1
 1630.83 1115.41 l 1,20,-1
 1665.15 1310.3 l 1,21,-1
 382.823 1310.3 l 1,22,-1
 416.7 1115.41 l 1,23,-1
 553.297 1115.41 l 1,16,-1
560.973 1109.16 m 1,24,-1
 411.441 1109.16 l 1,25,-1
 375.396 1316.55 l 1,26,-1
 1672.6 1316.55 l 1,27,-1
 1636.08 1109.16 l 1,28,-1
 1486.49 1109.16 l 1,29,-1
 1501.24 1179.74 l 1,30,-1
 546.383 1179.74 l 1,31,-1
 560.973 1109.16 l 1,24,-1
1748.64 1003.3 m 1,32,-1
 299.322 1003.3 l 1,33,-1
 422.193 116.861 l 1,34,-1
 1622.27 116.861 l 1,35,-1
 1748.64 1003.3 l 1,32,-1
1755.85 1009.55 m 1,36,-1
 1627.69 110.611 l 1,37,-1
 416.749 110.611 l 1,38,-1
 292.149 1009.55 l 1,39,-1
 1755.85 1009.55 l 1,36,-1
454.464 868.39 m 1,40,-1
 1592.89 868.39 l 1,41,-1
 1504.98 251.778 l 1,42,-1
 539.938 251.778 l 1,43,-1
 454.464 868.39 l 1,40,-1
1585.69 862.14 m 1,44,-1
 461.642 862.14 l 1,45,-1
 545.382 258.028 l 1,46,-1
 1499.56 258.028 l 1,47,-1
 1585.69 862.14 l 1,44,-1
553.297 1115.41 m 1,48,-1
 538.707 1185.99 l 1,49,-1
 1508.93 1185.99 l 1,50,-1
 1494.18 1115.41 l 1,51,-1
 1630.83 1115.41 l 1,52,-1
 1665.15 1310.3 l 1,53,-1
 382.823 1310.3 l 1,54,-1
 416.7 1115.41 l 1,55,-1
 553.297 1115.41 l 1,48,-1
560.973 1109.16 m 1,56,-1
 411.441 1109.16 l 1,57,-1
 375.396 1316.55 l 1,58,-1
 1672.6 1316.55 l 1,59,-1
 1636.08 1109.16 l 1,60,-1
 1486.49 1109.16 l 1,61,-1
 1501.24 1179.74 l 1,62,-1
 546.383 1179.74 l 1,63,-1
 560.973 1109.16 l 1,56,-1
1748.64 1003.3 m 1,64,-1
 299.322 1003.3 l 1,65,-1
 422.193 116.861 l 1,66,-1
 1622.27 116.861 l 1,67,-1
 1748.64 1003.3 l 1,64,-1
1755.85 1009.55 m 1,68,-1
 1627.69 110.611 l 1,69,-1
 416.749 110.611 l 1,70,-1
 292.149 1009.55 l 1,71,-1
 1755.85 1009.55 l 1,68,-1
454.464 868.39 m 1,72,-1
 1592.89 868.39 l 1,73,-1
 1504.98 251.778 l 1,74,-1
 539.938 251.778 l 1,75,-1
 454.464 868.39 l 1,72,-1
1585.69 862.14 m 1,76,-1
 461.642 862.14 l 1,77,-1
 545.382 258.028 l 1,78,-1
 1499.56 258.028 l 1,79,-1
 1585.69 862.14 l 1,76,-1
1748.64 1003.3 m 1,80,-1
 299.322 1003.3 l 1,81,-1
 422.193 116.861 l 1,82,-1
 1622.27 116.861 l 1,83,-1
 1748.64 1003.3 l 1,80,-1
1755.85 1009.55 m 1,84,-1
 1627.69 110.611 l 1,85,-1
 416.749 110.611 l 1,86,-1
 292.149 1009.55 l 1,87,-1
 1755.85 1009.55 l 1,84,-1
454.464 868.39 m 1,88,-1
 1592.89 868.39 l 1,89,-1
 1504.98 251.778 l 1,90,-1
 539.938 251.778 l 1,91,-1
 454.464 868.39 l 1,88,-1
1585.69 862.14 m 1,92,-1
 461.642 862.14 l 1,93,-1
 545.382 258.028 l 1,94,-1
 1499.56 258.028 l 1,95,-1
 1585.69 862.14 l 1,92,-1
454.464 868.39 m 1,96,-1
 1592.89 868.39 l 1,97,-1
 1504.98 251.778 l 1,98,-1
 539.938 251.778 l 1,99,-1
 454.464 868.39 l 1,96,-1
1585.69 862.14 m 1,100,-1
 461.642 862.14 l 1,101,-1
 545.382 258.028 l 1,102,-1
 1499.56 258.028 l 1,103,-1
 1585.69 862.14 l 1,100,-1
630.426 1408.71 m 1,104,-1
 505.172 1408.71 l 1,105,-1
 478.097 1567.51 l 1,106,-1
 1569.89 1567.51 l 1,107,-1
 1542.38 1408.71 l 1,108,-1
 1417.07 1408.71 l 1,109,-1
 1426.25 1454.58 l 1,110,-1
 621.402 1454.58 l 1,111,-1
 630.426 1408.71 l 1,104,-1
557.14 1112.28 m 1,112,-1
 414.073 1112.28 l 1,113,-1
 379.107 1313.42 l 1,114,-1
 1668.87 1313.42 l 1,115,-1
 1633.46 1112.28 l 1,116,-1
 1490.33 1112.28 l 1,117,-1
 1505.08 1182.86 l 1,118,-1
 542.545 1182.86 l 1,119,-1
 557.14 1112.28 l 1,112,-1
1752.25 1006.42 m 1,120,-1
 1624.98 113.736 l 1,121,-1
 419.474 113.736 l 1,122,-1
 295.733 1006.42 l 1,123,-1
 1752.25 1006.42 l 1,120,-1
1589.29 865.265 m 1,124,-1
 458.053 865.265 l 1,125,-1
 542.657 254.903 l 1,126,-1
 1502.27 254.903 l 1,127,-1
 1589.29 865.265 l 1,124,-1
EndSplineSet
EndChar

StartChar: braceleft
Encoding: 123 123 65
Width: 2048
VWidth: 0
Flags: W
LayerCount: 2
Fore
SplineSet
746.526 735.296 m 2,0,-1
 469.85 1215.72 l 1,1,-1
 746.925 1216.1 l 2,2,3
 1024 1216.48 1024 1216.48 1301.08 1216.1 c 2,4,-1
 1578.15 1215.72 l 1,5,-1
 1301.47 735.296 l 2,6,7
 1024.8 254.871 1024.8 254.871 1024 254.871 c 128,-1,8
 1023.2 254.871 1023.2 254.871 746.526 735.296 c 2,0,-1
EndSplineSet
EndChar

StartChar: bracketleft
Encoding: 91 91 66
Width: 2048
VWidth: 0
LayerCount: 2
Fore
SplineSet
1278.82 60.5166 m 0,0,1
 1265.1 62.8975 1265.1 62.8975 1252.88 70.8291 c 0,2,3
 1245.19 75.8174 1245.19 75.8174 900.56 419.579 c 128,-1,4
 555.933 763.34 555.933 763.34 551.152 770.791 c 0,5,6
 540.271 787.745 540.271 787.745 540.271 815.668 c 128,-1,7
 540.271 843.59 540.271 843.59 551.152 860.547 c 0,8,9
 556.445 868.797 556.445 868.797 901.689 1212.89 c 128,-1,10
 1246.94 1556.98 1246.94 1556.98 1254.59 1561.64 c 0,11,12
 1285.9 1580.68 1285.9 1580.68 1321.08 1564.89 c 0,13,14
 1331.42 1560.24 1331.42 1560.24 1411.85 1480.15 c 128,-1,15
 1492.27 1400.06 1492.27 1400.06 1497.29 1391.86 c 0,16,17
 1516.66 1360.2 1516.66 1360.2 1500.09 1324.51 c 0,18,19
 1496.31 1316.36 1496.31 1316.36 1464.05 1283.45 c 128,-1,20
 1431.79 1250.54 1431.79 1250.54 1245.33 1064.63 c 2,21,-1
 995.625 815.668 l 1,22,-1
 1245.33 566.704 l 2,23,24
 1431.79 380.798 1431.79 380.798 1464.05 347.888 c 128,-1,25
 1496.31 314.977 1496.31 314.977 1500.09 306.827 c 0,26,27
 1516.66 271.138 1516.66 271.138 1497.29 239.472 c 0,28,29
 1492.27 231.271 1492.27 231.271 1411.84 151.183 c 128,-1,30
 1331.42 71.0928 1331.42 71.0928 1321.1 66.459 c 0,31,32
 1299.77 56.8779 1299.77 56.8779 1278.82 60.5166 c 0,0,1
EndSplineSet
EndChar

StartChar: colon
Encoding: 58 58 67
Width: 2048
VWidth: 0
LayerCount: 2
Fore
SplineSet
437.79 89.4727 m 4,0,1
 396.172 94.0625 396.172 94.0625 364.79 109.439 c 4,2,3
 306.926 137.791 306.926 137.791 288.265 221.998 c 4,4,5
 283.79 242.181 283.79 242.181 283.79 393.186 c 132,-1,6
 283.79 544.191 283.79 544.191 286.458 559.186 c 4,7,8
 306.344 671.012 306.344 671.012 405.716 696.217 c 4,9,10
 442.86 705.64 442.86 705.64 607.79 704.668 c 4,11,12
 745.789 703.856 745.789 703.856 765.653 699.404 c 4,13,14
 821.709 686.847 821.709 686.847 852.079 656.478 c 132,-1,15
 882.448 626.108 882.448 626.108 895.011 570.049 c 4,16,17
 899.463 550.187 899.463 550.187 900.288 411.186 c 4,18,19
 901.261 246.997 901.261 246.997 892.532 211.186 c 4,20,21
 884.492 178.198 884.492 178.198 865.204 149.797 c 4,22,23
 830.199 98.25 830.199 98.25 741.942 89.3809 c 4,24,25
 722.292 87.4072 722.292 87.4072 589.046 87.4473 c 132,-1,26
 455.8 87.4883 455.8 87.4883 437.79 89.4727 c 4,0,1
1301.79 89.4727 m 4,27,28
 1235.42 96.7949 1235.42 96.7949 1201.75 127.572 c 132,-1,29
 1168.16 158.273 1168.16 158.273 1155 211.059 c 4,30,31
 1146.36 245.739 1146.36 245.739 1147.3 411.186 c 4,32,33
 1148.09 550.184 1148.09 550.184 1152.56 570.049 c 4,34,35
 1165.23 626.434 1165.23 626.434 1195.73 656.738 c 132,-1,36
 1226.24 687.043 1226.24 687.043 1282.94 699.578 c 4,37,38
 1303.78 704.186 1303.78 704.186 1455.79 704.186 c 132,-1,39
 1607.79 704.186 1607.79 704.186 1628.63 699.578 c 4,40,41
 1685.34 687.042 1685.34 687.042 1715.84 656.74 c 132,-1,42
 1746.35 626.438 1746.35 626.438 1759.02 570.049 c 4,43,44
 1763.49 550.185 1763.49 550.185 1764.29 410.186 c 4,45,46
 1765.07 275.512 1765.07 275.512 1761.72 240.549 c 132,-1,47
 1758.36 205.587 1758.36 205.587 1741.38 171.234 c 4,48,49
 1712.48 112.809 1712.48 112.809 1646.79 96.3711 c 4,50,51
 1627.78 91.6133 1627.78 91.6133 1607.21 89.4023 c 4,52,53
 1588.7 87.4092 1588.7 87.4092 1454.32 87.4404 c 132,-1,54
 1319.94 87.4717 1319.94 87.4717 1301.79 89.4727 c 4,27,28
440.479 953.404 m 4,55,56
 379.394 960.645 379.394 960.645 342.306 990.1 c 4,57,58
 299.447 1024.13 299.447 1024.13 286.458 1097.19 c 4,59,60
 283.56 1113.48 283.56 1113.48 283.56 1260.19 c 132,-1,61
 283.56 1406.89 283.56 1406.89 286.458 1423.19 c 4,62,63
 297.357 1484.49 297.357 1484.49 328.489 1517.47 c 132,-1,64
 359.621 1550.46 359.621 1550.46 418.944 1563.58 c 4,65,66
 439.784 1568.19 439.784 1568.19 591.79 1568.19 c 132,-1,67
 743.794 1568.19 743.794 1568.19 764.634 1563.58 c 4,68,69
 821.634 1550.98 821.634 1550.98 852.106 1520.5 c 132,-1,70
 882.58 1490.03 882.58 1490.03 895.181 1433.03 c 4,71,72
 899.79 1412.18 899.79 1412.18 899.79 1260.19 c 132,-1,73
 899.79 1108.19 899.79 1108.19 895.181 1087.34 c 4,74,75
 882.646 1030.63 882.646 1030.63 852.351 1000.14 c 132,-1,76
 822.055 969.64 822.055 969.64 765.653 956.947 c 4,77,78
 745.791 952.477 745.791 952.477 600.79 952.033 c 132,-1,79
 455.824 951.59 455.824 951.59 440.479 953.404 c 4,55,56
1304.48 953.404 m 4,80,81
 1243.39 960.645 1243.39 960.645 1206.31 990.1 c 4,82,83
 1157.56 1028.81 1157.56 1028.81 1148.7 1114.7 c 4,84,85
 1146.48 1136.18 1146.48 1136.18 1147.28 1275.19 c 132,-1,86
 1148.09 1414.19 1148.09 1414.19 1152.56 1434.05 c 4,87,88
 1165.23 1490.43 1165.23 1490.43 1195.73 1520.74 c 132,-1,89
 1226.24 1551.04 1226.24 1551.04 1282.94 1563.58 c 4,90,91
 1303.78 1568.19 1303.78 1568.19 1455.79 1568.19 c 132,-1,92
 1607.79 1568.19 1607.79 1568.19 1628.63 1563.58 c 4,93,94
 1685.63 1550.98 1685.63 1550.98 1716.11 1520.5 c 132,-1,95
 1746.58 1490.03 1746.58 1490.03 1759.18 1433.03 c 4,96,97
 1763.79 1412.18 1763.79 1412.18 1763.79 1260.19 c 132,-1,98
 1763.79 1108.19 1763.79 1108.19 1759.18 1087.34 c 4,99,100
 1746.65 1030.63 1746.65 1030.63 1716.35 1000.14 c 132,-1,101
 1686.05 969.64 1686.05 969.64 1629.65 956.947 c 4,102,103
 1609.79 952.477 1609.79 952.477 1464.79 952.033 c 132,-1,104
 1319.82 951.59 1319.82 951.59 1304.48 953.404 c 4,80,81
EndSplineSet
EndChar

StartChar: bar
Encoding: 124 124 68
Width: 2048
VWidth: 0
Flags: W
LayerCount: 2
Fore
SplineSet
855.25 428.25 m 1,0,-1
 855.25 813 l 1,1,-1
 721.75 813 l 1,2,-1
 588.25 813 l 1,3,-1
 588.25 941.25 l 1,4,-1
 588.25 1069.5 l 1,5,-1
 721.75 1069.5 l 1,6,-1
 855.25 1069.5 l 1,7,-1
 855.26 1150.12 l 2,8,9
 855.26 1230.74 855.26 1230.74 856.83 1251.75 c 0,10,11
 871.939 1454 871.939 1454 1025.5 1556.22 c 0,12,13
 1096.24 1603.31 1096.24 1603.31 1180 1610.99 c 0,14,15
 1196.52 1612.5 1196.52 1612.5 1328.12 1612.5 c 2,16,-1
 1459.75 1612.5 l 1,17,-1
 1459.75 1475.28 l 1,18,-1
 1459.75 1338.06 l 1,19,-1
 1328.88 1337.66 l 1,20,-1
 1198 1337.25 l 1,21,-1
 1190.52 1332.85 l 2,22,23
 1172.29 1322.14 1172.29 1322.14 1160.53 1298.3 c 0,24,25
 1151.23 1279.46 1151.23 1279.46 1149.89 1265.41 c 128,-1,26
 1148.55 1251.36 1148.55 1251.36 1148.11 1168.12 c 2,27,-1
 1147.59 1069.5 l 1,28,-1
 1303.67 1069.5 l 1,29,-1
 1459.75 1069.5 l 1,30,-1
 1459.75 941.25 l 1,31,-1
 1459.75 813 l 1,32,-1
 1303.75 813 l 1,33,-1
 1147.75 813 l 1,34,-1
 1147.75 428.25 l 1,35,-1
 1147.75 43.5 l 1,36,-1
 1001.5 43.5 l 1,37,-1
 855.25 43.5 l 1,38,-1
 855.25 428.25 l 1,0,-1
EndSplineSet
EndChar

StartChar: braceright
Encoding: 125 125 69
Width: 2048
VWidth: 0
LayerCount: 2
Fore
SplineSet
445.092 210.484 m 4,0,1
 434.893 214.134 434.893 214.134 427.092 220.373 c 132,-1,2
 419.287 226.611 419.287 226.611 354.078 292.283 c 4,3,4
 299.404 347.346 299.404 347.346 290.337 359.767 c 132,-1,5
 281.27 372.188 281.27 372.188 281.322 391.953 c 4,6,7
 281.358 405.951 281.358 405.951 286.217 415.953 c 132,-1,8
 291.072 425.949 291.072 425.949 502.156 637.461 c 6,9,-1
 713.24 848.971 l 5,10,-1
 500.98 1061.46 l 6,11,12
 346.942 1215.66 346.942 1215.66 317.227 1246.45 c 132,-1,13
 287.512 1277.24 287.512 1277.24 284.305 1285.95 c 4,14,15
 279.889 1297.95 279.889 1297.95 280.906 1309.57 c 4,16,17
 282.374 1326.29 282.374 1326.29 293.623 1340.47 c 132,-1,18
 304.873 1354.65 304.873 1354.65 360.689 1410.12 c 4,19,20
 418.403 1467.48 418.403 1467.48 431.896 1477.71 c 132,-1,21
 445.391 1487.95 445.391 1487.95 463.285 1487.92 c 4,22,23
 464.888 1487.92 464.888 1487.92 467.659 1488.05 c 4,24,25
 482.538 1488.79 482.538 1488.79 516.476 1457.52 c 132,-1,26
 550.414 1426.26 550.414 1426.26 739.153 1237.95 c 4,27,28
 774.418 1202.85 774.418 1202.85 793.666 1183.56 c 4,29,30
 1088.05 889.95 1088.05 889.95 1092.67 880.953 c 132,-1,31
 1097.29 871.951 1097.29 871.951 1097.29 847.953 c 132,-1,32
 1097.29 823.953 1097.29 823.953 1092.6 814.953 c 132,-1,33
 1087.91 805.953 1087.91 805.953 793.596 511.832 c 132,-1,34
 499.285 217.713 499.285 217.713 489.57 213.084 c 4,35,36
 467.376 202.512 467.376 202.512 445.092 210.484 c 4,0,1
1111.89 211.609 m 132,-1,38
 1100.5 216.42 1100.5 216.42 1094.89 221.316 c 132,-1,39
 1089.27 226.226 1089.27 226.226 1024.12 292.082 c 132,-1,40
 958.958 357.951 958.958 357.951 955.203 365.953 c 132,-1,41
 951.45 373.953 951.45 373.953 950.645 388.557 c 4,42,43
 950.561 390.081 950.561 390.081 950.328 392.793 c 4,44,45
 948.944 408.994 948.944 408.994 972.132 435.094 c 132,-1,46
 995.32 461.193 995.32 461.193 1135.83 601.593 c 4,47,48
 1159.4 624.74 1159.4 624.74 1172.2 637.939 c 6,49,-1
 1382.27 847.928 l 5,50,-1
 1171.47 1058.94 l 6,51,52
 960.68 1269.95 960.68 1269.95 956.182 1278.95 c 4,53,54
 945.321 1300.69 945.321 1300.69 953.287 1325.19 c 4,55,56
 956.787 1335.95 956.787 1335.95 1027.87 1407.35 c 4,57,58
 1087.62 1467.36 1087.62 1467.36 1101 1477.58 c 132,-1,59
 1114.38 1487.8 1114.38 1487.8 1133.29 1487.82 c 4,60,61
 1147.29 1487.84 1147.29 1487.84 1157.29 1483.32 c 132,-1,62
 1167.28 1478.81 1167.28 1478.81 1462.71 1183.38 c 132,-1,63
 1758.14 887.952 1758.14 887.952 1762.71 877.953 c 132,-1,64
 1767.29 867.949 1767.29 867.949 1767.29 847.953 c 132,-1,65
 1767.29 827.953 1767.29 827.953 1762.71 817.953 c 132,-1,66
 1758.14 807.956 1758.14 807.956 1462.71 512.525 c 4,67,68
 1444.63 495.28 1444.63 495.28 1413.2 463.01 c 4,69,70
 1222.21 271.969 1222.21 271.969 1187.96 240.064 c 132,-1,71
 1153.71 208.16 1153.71 208.16 1139.22 207.772 c 4,72,73
 1136.79 207.708 1136.79 207.708 1135.41 207.615 c 4,74,37
 1123.28 206.797 1123.28 206.797 1111.89 211.609 c 132,-1,38
EndSplineSet
EndChar

StartChar: asciitilde
Encoding: 126 126 70
Width: 2048
VWidth: 0
LayerCount: 2
Fore
SplineSet
977.88 70.6826 m 4,0,1
 762.854 83.6572 762.854 83.6572 585.18 207.798 c 4,2,3
 481.442 280.277 481.442 280.277 405.158 387.859 c 132,-1,4
 328.873 495.44 328.873 495.44 293.251 619.492 c 4,5,6
 266.271 713.451 266.271 713.451 266.156 824.242 c 4,7,8
 266.038 940.493 266.038 940.493 297.747 1046.66 c 4,9,10
 330.775 1157.24 330.775 1157.24 396.856 1252.64 c 4,11,12
 493.747 1392.53 493.747 1392.53 638.81 1477.39 c 4,13,14
 880.556 1618.82 880.556 1618.82 1153.23 1571.87 c 4,15,16
 1343.59 1539.09 1343.59 1539.09 1501.52 1412.6 c 4,17,18
 1585.74 1345.15 1585.74 1345.15 1650.75 1248.88 c 132,-1,19
 1715.77 1152.61 1715.77 1152.61 1748.51 1046.87 c 4,20,21
 1808.22 854.067 1808.22 854.067 1760.97 653.092 c 4,22,23
 1741.18 568.912 1741.18 568.912 1698.35 484.042 c 4,24,25
 1615.17 319.183 1615.17 319.183 1463.6 210.337 c 132,-1,26
 1312.03 101.493 1312.03 101.493 1131.18 76.748 c 4,27,28
 1053.51 66.1201 1053.51 66.1201 977.88 70.6826 c 4,0,1
928.093 356.11 m 4,29,30
 1025.49 376.077 1025.49 376.077 1137.47 460.017 c 4,31,32
 1156.57 474.332 1156.57 474.332 1184.3 498.907 c 132,-1,33
 1212.03 523.482 1212.03 523.482 1212.03 526.091 c 4,34,35
 1212.03 527.199 1212.03 527.199 1197.05 545.91 c 6,36,-1
 1182.07 564.615 l 5,37,-1
 1171.33 556.832 l 6,38,39
 1130.26 527.101 1130.26 527.101 1085.58 512.129 c 4,40,41
 1059.19 503.286 1059.19 503.286 1054.49 515.652 c 4,42,43
 1050.43 526.317 1050.43 526.317 1055.68 551.501 c 132,-1,44
 1060.93 576.684 1060.93 576.684 1090.56 688.792 c 4,45,46
 1128.35 831.732 1128.35 831.732 1134.77 861.255 c 132,-1,47
 1141.19 890.778 1141.19 890.778 1141.26 921.892 c 4,48,49
 1141.32 946.028 1141.32 946.028 1136.66 956.542 c 4,50,51
 1119.58 995.077 1119.58 995.077 1060.83 982.736 c 4,52,53
 932.406 955.764 932.406 955.764 779.983 838.298 c 4,54,55
 754.286 818.496 754.286 818.496 755.003 817.169 c 132,-1,56
 755.71 815.854 755.71 815.854 767.863 795.315 c 4,57,58
 776.96 779.941 776.96 779.941 779.119 777.781 c 132,-1,59
 781.277 775.62 781.277 775.62 785.062 778.1 c 4,60,61
 807.023 792.489 807.023 792.489 850.14 810.99 c 132,-1,62
 893.258 829.492 893.258 829.492 904.831 829.492 c 4,63,64
 915.111 829.492 915.111 829.492 913.116 811.071 c 4,65,66
 911.82 799.06 911.82 799.06 878.307 663.336 c 132,-1,67
 844.792 527.6 844.792 527.6 839.52 502.624 c 4,68,69
 808.143 354.025 808.143 354.025 897.644 352.962 c 4,70,71
 911.902 352.791 911.902 352.791 928.093 356.11 c 4,29,30
1108.08 1120.18 m 4,72,73
 1140.04 1131.06 1140.04 1131.06 1161.79 1152.76 c 4,74,75
 1202.59 1193.45 1202.59 1193.45 1195.68 1249.48 c 4,76,77
 1191.44 1283.81 1191.44 1283.81 1174.21 1302.67 c 4,78,79
 1148.54 1330.75 1148.54 1330.75 1097.69 1331.39 c 132,-1,80
 1046.83 1332.04 1046.83 1332.04 1005.76 1304.81 c 4,81,82
 981.485 1288.71 981.485 1288.71 967.645 1262.09 c 4,83,84
 949.369 1226.95 949.369 1226.95 953.724 1191.65 c 4,85,86
 959.468 1145.09 959.468 1145.09 995.543 1125.86 c 4,87,88
 1020.01 1112.82 1020.01 1112.82 1062.93 1113.81 c 4,89,90
 1091.28 1114.46 1091.28 1114.46 1108.08 1120.18 c 4,72,73
EndSplineSet
EndChar

StartChar: numbersign
Encoding: 35 35 71
Width: 2048
VWidth: 0
LayerCount: 2
Fore
SplineSet
314.193 92.8887 m 4,0,1
 296.379 95.7715 296.379 95.7715 290.232 108.467 c 4,2,3
 286.193 116.811 286.193 116.811 286.193 239.549 c 132,-1,4
 286.193 362.284 286.193 362.284 290.314 370.799 c 132,-1,5
 294.435 379.311 294.435 379.311 303.814 382.93 c 132,-1,6
 313.195 386.549 313.195 386.549 1025.19 386.549 c 132,-1,7
 1737.19 386.549 1737.19 386.549 1745.06 382.549 c 132,-1,8
 1752.93 378.551 1752.93 378.551 1757.06 372.904 c 132,-1,9
 1761.19 367.257 1761.19 367.257 1761.74 242.127 c 132,-1,10
 1762.28 116.998 1762.28 116.998 1758.15 108.457 c 132,-1,11
 1754.02 99.9189 1754.02 99.9189 1746.61 96.2344 c 132,-1,12
 1739.19 92.5488 1739.19 92.5488 1029.19 92.3145 c 132,-1,13
 319.209 92.0791 319.209 92.0791 314.193 92.8887 c 4,0,1
312.197 683.742 m 4,14,15
 296.229 686.879 296.229 686.879 289.697 699.691 c 4,16,17
 286.2 706.548 286.2 706.548 286.24 829.549 c 132,-1,18
 286.292 952.568 286.292 952.568 289.984 960.701 c 132,-1,19
 293.686 968.851 293.686 968.851 301.439 972.701 c 132,-1,20
 309.194 976.549 309.194 976.549 1022.19 976.549 c 132,-1,21
 1735.19 976.549 1735.19 976.549 1744.57 972.93 c 132,-1,22
 1753.95 969.309 1753.95 969.309 1758.12 960.707 c 132,-1,23
 1762.28 952.101 1762.28 952.101 1761.74 826.971 c 132,-1,24
 1761.2 701.84 1761.2 701.84 1757.06 696.193 c 132,-1,25
 1752.93 690.543 1752.93 690.543 1745.06 686.549 c 132,-1,26
 1737.19 682.548 1737.19 682.548 1029.19 682.26 c 132,-1,27
 321.2 681.972 321.2 681.972 312.197 683.742 c 4,14,15
317.885 1273.46 m 4,28,29
 298.254 1275.49 298.254 1275.49 290.721 1286.99 c 4,30,31
 287.193 1292.37 287.193 1292.37 287.193 1420.46 c 6,32,-1
 287.193 1548.55 l 5,33,-1
 291.643 1554.79 l 6,34,35
 292.271 1555.67 292.271 1555.67 292.854 1557.24 c 4,36,37
 295.464 1564.27 295.464 1564.27 368.028 1565.43 c 132,-1,38
 440.592 1566.6 440.592 1566.6 873.314 1566.56 c 4,39,40
 971.095 1566.55 971.095 1566.55 1024.19 1566.55 c 4,41,42
 1739.2 1566.55 1739.2 1566.55 1746.96 1562.69 c 132,-1,43
 1754.73 1558.84 1754.73 1558.84 1758.51 1550.3 c 132,-1,44
 1762.28 1541.77 1762.28 1541.77 1761.74 1416.81 c 132,-1,45
 1761.2 1291.84 1761.2 1291.84 1757.06 1286.19 c 132,-1,46
 1752.93 1280.54 1752.93 1280.54 1745.06 1276.55 c 132,-1,47
 1737.19 1272.55 1737.19 1272.55 1034.19 1272.32 c 132,-1,48
 331.204 1272.08 331.204 1272.08 317.885 1273.46 c 4,28,29
EndSplineSet
EndChar

StartChar: equal
Encoding: 61 61 72
Width: 2048
VWidth: 0
LayerCount: 2
Fore
SplineSet
283 290.5 m 5,0,-1
 283 383.5 l 5,1,-1
 1024 383.5 l 5,2,-1
 1765 383.5 l 5,3,-1
 1765 290.5 l 5,4,-1
 1765 197.5 l 5,5,-1
 1024 197.5 l 5,6,-1
 283 197.5 l 5,7,-1
 283 290.5 l 5,0,-1
283 568.5 m 5,8,-1
 283 661.5 l 5,9,-1
 746 661.5 l 5,10,-1
 1209 661.5 l 5,11,-1
 1209 568.5 l 5,12,-1
 1209 475.5 l 5,13,-1
 746 475.5 l 5,14,-1
 283 475.5 l 5,15,-1
 283 568.5 l 5,8,-1
283 846.5 m 5,16,-1
 283 939.5 l 5,17,-1
 1024 939.5 l 5,18,-1
 1765 939.5 l 5,19,-1
 1765 846.5 l 5,20,-1
 1765 753.5 l 5,21,-1
 1024 753.5 l 5,22,-1
 283 753.5 l 5,23,-1
 283 846.5 l 5,16,-1
283 1124.5 m 5,24,-1
 283 1217.5 l 5,25,-1
 746 1217.5 l 5,26,-1
 1209 1217.5 l 5,27,-1
 1209 1124.5 l 5,28,-1
 1209 1031.5 l 5,29,-1
 746 1031.5 l 5,30,-1
 283 1031.5 l 5,31,-1
 283 1124.5 l 5,24,-1
283 1402.5 m 5,32,-1
 283 1495.5 l 5,33,-1
 1024 1495.5 l 5,34,-1
 1765 1495.5 l 5,35,-1
 1765 1402.5 l 5,36,-1
 1765 1309.5 l 5,37,-1
 1024 1309.5 l 5,38,-1
 283 1309.5 l 5,39,-1
 283 1402.5 l 5,32,-1
EndSplineSet
EndChar

StartChar: bracketright
Encoding: 93 93 73
Width: 2048
VWidth: 0
Flags: W
LayerCount: 2
Fore
SplineSet
917.856 126.147 m 0,0,1
 910.929 127.777 910.929 127.777 817.123 181.867 c 0,2,3
 730.179 232 730.179 232 723.751 237.757 c 0,4,5
 712.28 248.025 712.28 248.025 708.326 263.21 c 0,6,7
 704.493 277.932 704.493 277.932 709.406 292.073 c 0,8,9
 712.454 300.842 712.454 300.842 864.218 563.422 c 128,-1,10
 1015.98 825.998 1015.98 825.998 1015.98 828.698 c 128,-1,11
 1015.98 831.4 1015.98 831.4 864.218 1093.97 c 128,-1,12
 712.454 1356.55 712.454 1356.55 709.406 1365.32 c 0,13,14
 704.493 1379.46 704.493 1379.46 708.326 1394.19 c 0,15,16
 712.274 1409.35 712.274 1409.35 723.729 1419.64 c 0,17,18
 728.273 1423.73 728.273 1423.73 814.441 1474.01 c 128,-1,19
 900.609 1524.3 900.609 1524.3 910.759 1528.79 c 0,20,21
 924.276 1534.77 924.276 1534.77 940.548 1531.19 c 128,-1,22
 956.818 1527.62 956.818 1527.62 967.764 1516.26 c 0,23,24
 971.09 1512.81 971.09 1512.81 1143.51 1214.78 c 128,-1,25
 1315.92 916.742 1315.92 916.742 1324.53 899.573 c 0,26,27
 1341.35 865.988 1341.35 865.988 1341.35 828.698 c 128,-1,28
 1341.35 791.407 1341.35 791.407 1324.53 757.823 c 0,29,30
 1315.92 740.653 1315.92 740.653 1143.51 442.621 c 128,-1,31
 971.09 144.588 971.09 144.588 967.764 141.136 c 0,32,33
 946.758 119.342 946.758 119.342 917.856 126.147 c 0,0,1
EndSplineSet
EndChar

StartChar: greater
Encoding: 62 62 74
Width: 2048
VWidth: 0
Flags: W
LayerCount: 2
Fore
SplineSet
651.033 39.5146 m 0,0,1
 610.412 50.1084 610.412 50.1084 603.625 91.2119 c 0,2,3
 598.77 120.602 598.77 120.602 619.68 143.958 c 0,4,5
 627.025 152.166 627.025 152.166 950.658 488.583 c 128,-1,6
 1274.28 824.992 1274.28 824.992 1274.28 825.73 c 128,-1,7
 1274.28 826.467 1274.28 826.467 944.291 1169.4 c 0,8,9
 922.412 1192.79 922.412 1192.79 882.557 1233.55 c 0,10,11
 674.891 1449.32 674.891 1449.32 640.07 1487.27 c 128,-1,12
 605.25 1525.21 605.25 1525.21 603.998 1537.13 c 0,13,14
 603.76 1539.4 603.76 1539.4 603.535 1540.76 c 0,15,16
 600.316 1560.18 600.316 1560.18 609.896 1579.07 c 128,-1,17
 619.475 1597.96 619.475 1597.96 637.008 1606.77 c 0,18,19
 664.535 1620.61 664.535 1620.61 693.439 1606.4 c 0,20,21
 702.846 1601.77 702.846 1601.77 1067.9 1233.02 c 128,-1,22
 1432.95 864.277 1432.95 864.277 1437.62 854.759 c 0,23,24
 1455.37 818.54 1455.37 818.54 1432.05 787.719 c 0,25,26
 1426.68 780.604 1426.68 780.604 1066.75 417.143 c 128,-1,27
 706.826 53.6807 706.826 53.6807 700.938 49.416 c 0,28,29
 677.678 32.5645 677.678 32.5645 651.033 39.5146 c 0,0,1
EndSplineSet
EndChar

StartChar: less
Encoding: 60 60 75
Width: 2048
VWidth: 0
Flags: W
LayerCount: 2
Fore
SplineSet
1396.97 39.5146 m 0,0,1
 1437.59 50.1084 1437.59 50.1084 1444.38 91.2119 c 0,2,3
 1449.23 120.602 1449.23 120.602 1428.32 143.958 c 0,4,5
 1420.97 152.166 1420.97 152.166 1097.34 488.583 c 128,-1,6
 773.717 824.992 773.717 824.992 773.717 825.73 c 128,-1,7
 773.717 826.467 773.717 826.467 1103.71 1169.4 c 0,8,9
 1125.59 1192.79 1125.59 1192.79 1165.44 1233.55 c 0,10,11
 1373.11 1449.32 1373.11 1449.32 1407.93 1487.27 c 128,-1,12
 1442.75 1525.21 1442.75 1525.21 1444 1537.13 c 0,13,14
 1444.24 1539.4 1444.24 1539.4 1444.46 1540.76 c 0,15,16
 1447.68 1560.18 1447.68 1560.18 1438.1 1579.07 c 128,-1,17
 1428.53 1597.96 1428.53 1597.96 1410.99 1606.77 c 0,18,19
 1383.46 1620.61 1383.46 1620.61 1354.56 1606.4 c 0,20,21
 1345.15 1601.77 1345.15 1601.77 980.098 1233.02 c 128,-1,22
 615.047 864.277 615.047 864.277 610.381 854.759 c 0,23,24
 592.633 818.54 592.633 818.54 615.945 787.719 c 0,25,26
 621.324 780.604 621.324 780.604 981.248 417.143 c 128,-1,27
 1341.17 53.6807 1341.17 53.6807 1347.06 49.416 c 0,28,29
 1370.32 32.5645 1370.32 32.5645 1396.97 39.5146 c 0,0,1
EndSplineSet
EndChar

StartChar: plus
Encoding: 43 43 76
Width: 2048
VWidth: 0
Flags: W
LayerCount: 2
Fore
SplineSet
924.33 77.5273 m 0,0,1
 900.801 85.6533 900.801 85.6533 891.98 109.223 c 0,2,3
 888 119.858 888 119.858 888 400.787 c 2,4,-1
 888 681.711 l 1,5,-1
 607.074 681.711 l 2,6,7
 326.152 681.711 326.152 681.711 315.289 685.775 c 0,8,9
 290.508 695.05 290.508 695.05 283.15 719.828 c 0,10,11
 279.637 731.658 279.637 731.658 279.637 817.712 c 128,-1,12
 279.637 903.766 279.637 903.766 283.15 915.596 c 0,13,14
 290.508 940.378 290.508 940.378 315.289 949.648 c 0,15,16
 326.146 953.711 326.146 953.711 607.074 953.711 c 2,17,-1
 888 953.711 l 1,18,-1
 888 1234.64 l 2,19,20
 888 1515.56 888 1515.56 892.062 1526.42 c 0,21,22
 901.336 1551.2 901.336 1551.2 926.115 1558.56 c 0,23,24
 937.945 1562.07 937.945 1562.07 1024 1562.07 c 128,-1,25
 1110.05 1562.07 1110.05 1562.07 1121.88 1558.56 c 0,26,27
 1146.67 1551.2 1146.67 1551.2 1155.94 1526.42 c 0,28,29
 1160 1515.56 1160 1515.56 1160 1234.64 c 2,30,-1
 1160 953.711 l 1,31,-1
 1440.92 953.711 l 2,32,33
 1721.85 953.711 1721.85 953.711 1732.71 949.648 c 0,34,35
 1757.49 940.379 1757.49 940.379 1764.85 915.596 c 0,36,37
 1768.36 903.766 1768.36 903.766 1768.36 817.712 c 128,-1,38
 1768.36 731.658 1768.36 731.658 1764.85 719.828 c 0,39,40
 1757.49 695.049 1757.49 695.049 1732.71 685.775 c 0,41,42
 1721.85 681.711 1721.85 681.711 1440.92 681.711 c 2,43,-1
 1160 681.711 l 1,44,-1
 1160 400.787 l 2,45,46
 1160 119.864 1160 119.864 1155.94 109.002 c 0,47,48
 1146.67 84.2207 1146.67 84.2207 1121.88 76.8633 c 0,49,50
 1111.28 73.7129 1111.28 73.7129 1023.14 73.7773 c 128,-1,51
 934.998 73.8418 934.998 73.8418 924.33 77.5273 c 0,0,1
EndSplineSet
EndChar

StartChar: comma
Encoding: 44 44 77
Width: 2048
VWidth: 0
Flags: W
LayerCount: 2
Fore
SplineSet
596.032 81.416 m 0,0,1
 405.121 301.841 405.121 301.841 370.435 573.896 c 0,2,3
 360.286 653.479 360.286 653.479 369.544 726.896 c 0,4,5
 388.896 880.361 388.896 880.361 470.249 989.695 c 0,6,7
 556.088 1105.06 556.088 1105.06 682.973 1167 c 0,8,9
 833.72 1240.6 833.72 1240.6 1062.31 1240.77 c 2,10,-1
 1097.86 1240.8 l 1,11,-1
 1098.31 1428.9 l 1,12,-1
 1098.77 1617 l 1,13,-1
 1390.82 1324.95 l 1,14,-1
 1682.87 1032.89 l 1,15,-1
 1390.37 740.396 l 1,16,-1
 1097.87 447.899 l 1,17,-1
 1097.87 641.174 l 1,18,-1
 1097.87 834.447 l 1,19,-1
 1034.42 833.452 l 2,20,21
 970.979 832.46 970.979 832.46 944.872 829.723 c 0,22,23
 788.56 813.329 788.56 813.329 695.957 754.614 c 0,24,25
 584.026 683.643 584.026 683.643 542.887 583.405 c 0,26,27
 478.376 426.221 478.376 426.221 553.284 203.096 c 0,28,29
 572.543 145.731 572.543 145.731 600.222 90.1455 c 0,30,31
 604.284 81.9834 604.284 81.9834 607.698 75.041 c 128,-1,32
 611.112 68.0986 611.112 68.0986 613.052 64.0498 c 128,-1,33
 614.992 60.001 614.992 60.001 614.902 60.0029 c 0,34,35
 614.573 60.0127 614.573 60.0127 596.032 81.416 c 0,0,1
EndSplineSet
EndChar

StartChar: percent
Encoding: 37 37 78
Width: 2048
VWidth: 0
LayerCount: 2
Fore
SplineSet
1423.67 49.9004 m 4,0,1
 1363.35 56.8984 1363.35 56.8984 1308.58 93.127 c 4,2,3
 1266.58 120.903 1266.58 120.903 1236.78 168.129 c 132,-1,4
 1206.96 215.354 1206.96 215.354 1198.34 267.776 c 4,5,6
 1196.15 281.096 1196.15 281.096 1196.11 302.969 c 132,-1,7
 1196.06 324.841 1196.06 324.841 1198.21 336.403 c 4,8,9
 1200.45 348.477 1200.45 348.477 1199.86 349.039 c 132,-1,10
 1199.27 349.598 1199.27 349.598 974.401 483.74 c 6,11,-1
 749.541 617.878 l 5,12,-1
 733.829 607.422 l 6,13,14
 695.86 582.16 695.86 582.16 643.68 570.116 c 4,15,16
 599.304 559.87 599.304 559.87 554.188 567.275 c 4,17,18
 440.262 585.978 440.262 585.978 378.538 679.632 c 4,19,20
 349.622 723.509 349.622 723.509 339.217 772.329 c 4,21,22
 328.402 823.081 328.402 823.081 339.217 873.834 c 4,23,24
 355.398 949.757 355.398 949.757 410.043 1004.31 c 132,-1,25
 464.687 1058.85 464.687 1058.85 540.91 1075.17 c 4,26,27
 558.113 1078.86 558.113 1078.86 593.177 1078.82 c 132,-1,28
 628.241 1078.79 628.241 1078.79 645.311 1075.07 c 4,29,30
 695.718 1064.1 695.718 1064.1 733.829 1038.74 c 6,31,-1
 749.541 1028.29 l 5,32,-1
 974.401 1162.42 l 6,33,34
 1199.26 1296.56 1199.26 1296.56 1199.86 1297.13 c 132,-1,35
 1200.45 1297.69 1200.45 1297.69 1198.21 1309.76 c 4,36,37
 1196.06 1321.32 1196.06 1321.32 1196.11 1343.2 c 132,-1,38
 1196.15 1365.07 1196.15 1365.07 1198.34 1378.39 c 4,39,40
 1211.51 1458.45 1211.51 1458.45 1268.54 1519.25 c 4,41,42
 1314.19 1567.92 1314.19 1567.92 1383.56 1587.89 c 4,43,44
 1502.24 1622.07 1502.24 1622.07 1611.34 1544.22 c 4,45,46
 1668.8 1503.22 1668.8 1503.22 1696.69 1428.23 c 4,47,48
 1720.16 1365.14 1720.16 1365.14 1709.35 1296.85 c 4,49,50
 1703.28 1258.51 1703.28 1258.51 1681.17 1217.48 c 132,-1,51
 1659.05 1176.44 1659.05 1176.44 1630.19 1149.94 c 4,52,53
 1588.64 1111.79 1588.64 1111.79 1533.66 1093.27 c 4,54,55
 1480.07 1075.21 1480.07 1075.21 1419.05 1084.08 c 132,-1,56
 1358.03 1092.95 1358.03 1092.95 1310.09 1125.77 c 6,57,-1
 1297.7 1134.25 l 5,58,-1
 1072.73 999.943 l 6,59,60
 918.979 908.154 918.979 908.154 883.423 886.157 c 132,-1,61
 847.866 864.16 847.866 864.16 848.095 860.981 c 4,62,63
 848.432 856.282 848.432 856.282 850.229 839.706 c 132,-1,64
 852.026 823.082 852.026 823.082 850.229 806.456 c 132,-1,65
 848.432 789.875 848.432 789.875 848.095 785.229 c 4,66,67
 847.867 782.101 847.867 782.101 883.604 759.812 c 132,-1,68
 919.342 737.524 919.342 737.524 1071.01 646.187 c 4,69,70
 1294.27 511.746 1294.27 511.746 1296.63 511.615 c 132,-1,71
 1298.99 511.48 1298.99 511.48 1310.88 520.241 c 4,72,73
 1379.06 570.504 1379.06 570.504 1474.94 562.688 c 4,74,75
 1551.54 556.444 1551.54 556.444 1610.07 511.529 c 132,-1,76
 1668.59 466.614 1668.59 466.614 1697.62 391.781 c 4,77,78
 1735.76 293.5 1735.76 293.5 1686.1 193.231 c 4,79,80
 1666.78 154.226 1666.78 154.226 1638.22 125.199 c 4,81,82
 1549.74 35.2734 1549.74 35.2734 1423.67 49.9004 c 4,0,1
EndSplineSet
EndChar

StartChar: slash
Encoding: 47 47 79
Width: 2048
VWidth: 0
Flags: W
LayerCount: 2
Fore
SplineSet
416.58 113.502 m 128,-1,1
 415.819 116.017 415.819 116.017 355.129 556.269 c 128,-1,2
 294.44 996.501 294.44 996.501 293.332 1002.06 c 2,3,-1
 292.227 1007.6 l 1,4,-1
 1024 1007.6 l 1,5,-1
 1755.77 1007.6 l 1,6,-1
 1754.72 1003.06 l 2,7,8
 1753.67 998.518 1753.67 998.518 1690.58 554.758 c 2,9,-1
 1627.49 110.983 l 1,10,-1
 1022.42 110.983 l 2,11,0
 417.343 110.983 417.343 110.983 416.58 113.502 c 128,-1,1
410.609 1119.93 m 2,12,13
 408.898 1128.27 408.898 1128.27 393.035 1220.21 c 128,-1,14
 377.172 1312.15 377.172 1312.15 377.172 1313.72 c 0,15,16
 377.172 1315.87 377.172 1315.87 1023.94 1315.87 c 128,-1,17
 1670.71 1315.87 1670.71 1315.87 1670.71 1313.8 c 0,18,19
 1670.71 1308.66 1670.71 1308.66 1637.18 1120.93 c 2,20,-1
 1636.01 1114.38 l 1,21,-1
 1023.88 1114.38 l 1,22,-1
 411.744 1114.38 l 1,23,-1
 410.609 1119.93 l 2,12,13
490.199 1487.63 m 2,24,25
 477.558 1562.65 477.558 1562.65 476.506 1567.23 c 2,26,-1
 475.462 1571.76 l 1,27,-1
 1023.72 1571.76 l 2,28,29
 1249.92 1571.76 1249.92 1571.76 1410.92 1571.31 c 128,-1,30
 1571.92 1570.87 1571.92 1570.87 1571.88 1570.25 c 0,31,32
 1571.77 1568.75 1571.77 1568.75 1558.23 1491.16 c 2,33,-1
 1544.68 1413.59 l 1,34,-1
 1023.77 1413.08 l 1,35,-1
 502.851 1412.58 l 1,36,-1
 490.199 1487.63 l 2,24,25
EndSplineSet
EndChar

StartChar: at
Encoding: 64 64 80
Width: 2048
VWidth: 0
LayerCount: 2
Fore
SplineSet
956.042 78.458 m 0,0,1
 731.925 98.8105 731.925 98.8105 556.849 241.144 c 0,2,3
 506.478 282.093 506.478 282.093 462.347 333.118 c 0,4,5
 364.311 446.471 364.311 446.471 318.518 588.719 c 128,-1,6
 272.724 730.968 272.724 730.968 285.937 881.099 c 0,7,8
 306.88 1119.08 306.88 1119.08 461.372 1298.28 c 0,9,10
 506.047 1350.1 506.047 1350.1 556.849 1391.43 c 0,11,12
 680.663 1492.17 680.663 1492.17 833.834 1532.62 c 128,-1,13
 987.004 1573.07 987.004 1573.07 1146.83 1547.22 c 0,14,15
 1348.79 1514.56 1348.79 1514.56 1505.85 1379.05 c 0,16,17
 1560.44 1331.94 1560.44 1331.94 1601.55 1280.66 c 0,18,19
 1787.81 1048.31 1787.81 1048.31 1761.85 752.282 c 0,20,21
 1742.31 529.456 1742.31 529.456 1603.26 354.282 c 0,22,23
 1551.31 288.84 1551.31 288.84 1485.85 236.874 c 0,24,25
 1252.37 51.5488 1252.37 51.5488 956.042 78.458 c 0,0,1
1079.14 263.333 m 0,26,27
 1175.86 272.91 1175.86 272.91 1261.85 314.151 c 0,28,29
 1437.23 398.264 1437.23 398.264 1521.86 570.282 c 0,30,31
 1578.9 686.206 1578.9 686.206 1578.9 816.282 c 0,32,33
 1578.9 954.021 1578.9 954.021 1515.72 1075.06 c 0,34,35
 1443.55 1213.32 1443.55 1213.32 1310.41 1292.44 c 0,36,37
 1214.41 1349.49 1214.41 1349.49 1104.85 1366.66 c 0,38,39
 1079.79 1370.58 1079.79 1370.58 1023.62 1370.54 c 128,-1,40
 967.442 1370.49 967.442 1370.49 941.849 1366.53 c 0,41,42
 793.22 1343.49 793.22 1343.49 674.272 1248.73 c 0,43,44
 597.101 1187.25 597.101 1187.25 544.556 1097.79 c 128,-1,45
 492.011 1008.34 492.011 1008.34 476.054 911.284 c 0,46,47
 461.041 819.967 461.041 819.967 473.688 735.677 c 0,48,49
 491.215 618.872 491.215 618.872 553.592 519.796 c 128,-1,50
 615.968 420.72 615.968 420.72 712.849 355.804 c 0,51,52
 833.021 275.28 833.021 275.28 973.849 262.673 c 0,53,54
 987.742 261.43 987.742 261.43 1026.26 261.671 c 128,-1,55
 1064.78 261.912 1064.78 261.912 1079.14 263.333 c 0,26,27
978.849 542.144 m 0,56,57
 833.464 568.186 833.464 568.186 770.903 701.685 c 0,58,59
 728.027 793.184 728.027 793.184 757.919 896.331 c 0,60,61
 791.29 1011.49 791.29 1011.49 901.769 1065.4 c 0,62,63
 958.879 1093.27 958.879 1093.27 1023.85 1093.27 c 128,-1,64
 1088.88 1093.27 1088.88 1093.27 1145.85 1065.42 c 0,65,66
 1190.75 1043.47 1190.75 1043.47 1223.6 1009.23 c 0,67,68
 1300.83 928.771 1300.83 928.771 1300.83 816.282 c 0,69,70
 1300.83 751.311 1300.83 751.311 1272.92 694.108 c 0,71,72
 1214.14 573.669 1214.14 573.669 1080.85 544.243 c 0,73,74
 1065.55 540.865 1065.55 540.865 1029.87 540.131 c 128,-1,75
 994.185 539.396 994.185 539.396 978.849 542.144 c 0,56,57
EndSplineSet
EndChar

StartChar: question
Encoding: 63 63 81
Width: 2048
VWidth: 0
LayerCount: 2
Fore
SplineSet
689.374 217.64 m 4,0,1
 512.292 230.187 512.292 230.187 358.46 308.282 c 4,2,3
 347.029 314.084 347.029 314.084 328.619 324.441 c 132,-1,4
 310.21 334.799 310.21 334.799 296.47 343.088 c 132,-1,5
 282.729 351.378 282.729 351.378 283.343 351.849 c 132,-1,6
 283.944 352.307 283.944 352.307 298.882 350.741 c 4,7,8
 315.253 349.029 315.253 349.029 356.025 349.115 c 132,-1,9
 396.798 349.201 396.798 349.201 414.722 350.987 c 4,10,11
 469.512 356.449 469.512 356.449 515.632 369.731 c 4,12,13
 629.146 402.412 629.146 402.412 713.854 465.097 c 4,14,15
 729.371 476.576 729.371 476.576 728.372 478.194 c 132,-1,16
 727.375 479.81 727.375 479.81 706.655 481.077 c 4,17,18
 650.795 484.496 650.795 484.496 591.063 517.058 c 4,19,20
 492.689 570.681 492.689 570.681 453.321 676.253 c 6,21,-1
 448.276 689.786 l 5,22,-1
 463.731 688.208 l 6,23,24
 519.19 682.543 519.19 682.543 562.458 690.692 c 4,25,26
 581.79 694.332 581.79 694.332 581.79 695.644 c 132,-1,27
 581.79 696.954 581.79 696.954 570.341 699.515 c 4,28,29
 509.707 713.084 509.707 713.084 453.286 759.405 c 4,30,31
 373.521 824.887 373.521 824.887 350.001 922.718 c 4,32,33
 340.72 961.334 340.72 961.334 340.72 992.663 c 6,34,-1
 340.72 998.163 l 5,35,-1
 364.13 987.534 l 6,36,37
 387.544 976.903 387.544 976.903 406.466 971.784 c 4,38,39
 419.146 968.352 419.146 968.352 446.708 964.163 c 132,-1,40
 474.271 959.974 474.271 959.974 475.577 961.28 c 4,41,42
 475.763 961.465 475.763 961.465 473.95 963.131 c 132,-1,43
 472.139 964.798 472.139 964.798 468.851 967.479 c 132,-1,44
 465.562 970.158 465.562 970.158 461.595 973.196 c 4,45,46
 383.514 1033 383.514 1033 355.659 1129.13 c 4,47,48
 343.711 1170.35 343.711 1170.35 343.909 1214.59 c 4,49,50
 344.066 1250.43 344.066 1250.43 349.241 1274.36 c 4,51,52
 362.9 1337.52 362.9 1337.52 382.224 1362.66 c 6,53,-1
 385.776 1367.28 l 5,54,-1
 398.54 1351.7 l 6,55,56
 463.172 1272.81 463.172 1272.81 568.841 1199.33 c 4,57,58
 754.338 1070.32 754.338 1070.32 983.739 1051.41 c 4,59,60
 1008.31 1049.39 1008.31 1049.39 1010.51 1051.12 c 132,-1,61
 1012.7 1052.85 1012.7 1052.85 1009.14 1071.47 c 4,62,63
 1006.3 1086.31 1006.3 1086.31 1006.25 1116.48 c 132,-1,64
 1006.2 1146.65 1006.2 1146.65 1008.98 1164.78 c 4,65,66
 1023.81 1261.53 1023.81 1261.53 1092.26 1330.9 c 4,67,68
 1129.83 1368.99 1129.83 1368.99 1177.58 1392.95 c 4,69,70
 1238.38 1423.45 1238.38 1423.45 1308.99 1423.45 c 4,71,72
 1358.92 1423.45 1358.92 1423.45 1403.27 1408.63 c 4,73,74
 1472.69 1385.42 1472.69 1385.42 1520.54 1339.43 c 6,75,-1
 1531.85 1328.55 l 5,76,-1
 1549.34 1332.02 l 6,77,78
 1614.39 1344.94 1614.39 1344.94 1689.04 1382.04 c 4,79,80
 1723.4 1399.12 1723.4 1399.12 1723.36 1394.84 c 4,81,82
 1723.34 1392.88 1723.34 1392.88 1717.14 1377.79 c 4,83,84
 1682.57 1293.68 1682.57 1293.68 1605.32 1242.51 c 4,85,86
 1593.83 1234.91 1593.83 1234.91 1594.39 1234.35 c 132,-1,87
 1594.95 1233.79 1594.95 1233.79 1610.86 1235.7 c 4,88,89
 1671.55 1243 1671.55 1243 1747.18 1272.66 c 4,90,91
 1763.99 1279.26 1763.99 1279.26 1764.66 1278.58 c 132,-1,92
 1765.33 1277.91 1765.33 1277.91 1747.62 1254.22 c 4,93,94
 1692.57 1180.59 1692.57 1180.59 1628.22 1132.78 c 6,95,-1
 1616.4 1123.99 l 5,96,-1
 1615.21 1073.66 l 6,97,98
 1614.01 1023.31 1614.01 1023.31 1610.9 996.433 c 4,99,100
 1590.02 815.734 1590.02 815.734 1505.02 659.028 c 132,-1,101
 1420.03 502.322 1420.03 502.322 1286.08 397.552 c 4,102,103
 1139.72 283.066 1139.72 283.066 973.288 241.622 c 4,104,105
 835.422 207.289 835.422 207.289 689.374 217.64 c 4,0,1
EndSplineSet
EndChar

StartChar: hyphen
Encoding: 45 45 82
Width: 2048
VWidth: 0
LayerCount: 2
Fore
SplineSet
419.924 83.8691 m 4,0,1
 377.709 92.3008 377.709 92.3008 344.007 121.238 c 132,-1,2
 310.305 150.176 310.305 150.176 296.408 189.924 c 4,3,4
 288.584 212.304 288.584 212.304 287.55 283.351 c 132,-1,5
 286.516 354.396 286.516 354.396 286.516 869.615 c 4,6,7
 286.516 933 286.516 933 286.489 1042.05 c 4,8,9
 286.402 1406.84 286.402 1406.84 287.957 1468.64 c 132,-1,10
 289.513 1530.45 289.513 1530.45 298.932 1536.49 c 4,11,12
 301.749 1538.29 301.749 1538.29 303.387 1539.93 c 132,-1,13
 304.995 1541.54 304.995 1541.54 306.893 1544.32 c 4,14,15
 313.372 1553.78 313.372 1553.78 370.152 1555.35 c 132,-1,16
 426.933 1556.91 426.933 1556.91 761.144 1556.83 c 4,17,18
 859.2 1556.8 859.2 1556.8 915.805 1556.8 c 6,19,-1
 1496.37 1556.8 l 5,20,-1
 1507.67 1552.57 l 6,21,22
 1527.72 1545.07 1527.72 1545.07 1537.91 1526.41 c 4,23,24
 1541.52 1519.8 1541.52 1519.8 1542.52 876.803 c 6,25,-1
 1543.52 233.803 l 5,26,-1
 1548.12 223.803 l 6,27,28
 1561.93 193.832 1561.93 193.832 1593.32 191.314 c 4,29,30
 1630.34 188.341 1630.34 188.341 1646.53 220.045 c 6,31,-1
 1651.52 229.803 l 5,32,-1
 1652.03 791.428 l 5,33,-1
 1652.54 1353.05 l 5,34,-1
 1688.03 1352.43 l 6,35,36
 1723.51 1351.8 1723.51 1351.8 1730.88 1348.14 c 4,37,38
 1748.84 1339.21 1748.84 1339.21 1757.29 1320.94 c 6,39,-1
 1761.52 1311.8 l 5,40,-1
 1761.52 764.803 l 5,41,-1
 1761.52 217.803 l 5,42,-1
 1755.99 200.188 l 6,43,44
 1742.1 155.892 1742.1 155.892 1711.25 126.697 c 4,45,46
 1682.79 99.7676 1682.79 99.7676 1643.13 87.3262 c 6,47,-1
 1625.52 81.8027 l 5,48,-1
 1029.52 81.4785 l 6,49,50
 433.521 81.1543 433.521 81.1543 419.924 83.8691 c 4,0,1
596.035 290.303 m 5,51,-1
 595.516 389.803 l 5,52,-1
 496.016 390.32 l 5,53,-1
 396.516 390.84 l 5,54,-1
 396.516 290.82 l 5,55,-1
 396.516 190.803 l 5,56,-1
 496.535 190.803 l 5,57,-1
 596.553 190.803 l 5,58,-1
 596.035 290.303 l 5,51,-1
1434.04 290.303 m 5,59,-1
 1433.52 389.803 l 5,60,-1
 1334.02 390.32 l 5,61,-1
 1234.52 390.84 l 5,62,-1
 1234.52 290.82 l 5,63,-1
 1234.52 190.803 l 5,64,-1
 1334.54 190.803 l 5,65,-1
 1434.55 190.803 l 5,66,-1
 1434.04 290.303 l 5,59,-1
596.035 642.303 m 5,67,-1
 595.516 741.803 l 5,68,-1
 496.016 742.32 l 5,69,-1
 396.516 742.84 l 5,70,-1
 396.516 642.82 l 5,71,-1
 396.516 542.803 l 5,72,-1
 496.535 542.803 l 5,73,-1
 596.553 542.803 l 5,74,-1
 596.035 642.303 l 5,67,-1
1434.52 642.803 m 5,75,-1
 1434.52 742.803 l 5,76,-1
 1334.52 742.803 l 5,77,-1
 1234.52 742.803 l 5,78,-1
 1234.52 642.803 l 5,79,-1
 1234.52 542.803 l 5,80,-1
 1334.52 542.803 l 5,81,-1
 1434.52 542.803 l 5,82,-1
 1434.52 642.803 l 5,75,-1
596.035 995.303 m 5,83,-1
 596.553 1094.8 l 5,84,-1
 496.535 1094.8 l 5,85,-1
 396.516 1094.8 l 5,86,-1
 396.516 994.783 l 5,87,-1
 396.516 894.766 l 5,88,-1
 496.016 895.283 l 5,89,-1
 595.516 895.803 l 5,90,-1
 596.035 995.303 l 5,83,-1
1434.52 994.803 m 5,91,-1
 1434.52 1094.8 l 5,92,-1
 1334.52 1094.8 l 5,93,-1
 1234.52 1094.8 l 5,94,-1
 1234.52 994.803 l 5,95,-1
 1234.52 894.803 l 5,96,-1
 1334.52 894.803 l 5,97,-1
 1434.52 894.803 l 5,98,-1
 1434.52 994.803 l 5,91,-1
596.516 1347.8 m 5,99,-1
 596.516 1446.8 l 5,100,-1
 496.516 1446.8 l 5,101,-1
 396.516 1446.8 l 5,102,-1
 396.516 1347.8 l 5,103,-1
 396.516 1248.8 l 5,104,-1
 496.516 1248.8 l 5,105,-1
 596.516 1248.8 l 5,106,-1
 596.516 1347.8 l 5,99,-1
1434.52 1347.8 m 5,107,-1
 1434.52 1446.8 l 5,108,-1
 1334.52 1446.8 l 5,109,-1
 1234.52 1446.8 l 5,110,-1
 1234.52 1347.8 l 5,111,-1
 1234.52 1248.8 l 5,112,-1
 1334.52 1248.8 l 5,113,-1
 1434.52 1248.8 l 5,114,-1
 1434.52 1347.8 l 5,107,-1
EndSplineSet
EndChar

StartChar: backslash
Encoding: 92 92 83
Width: 2048
VWidth: 0
LayerCount: 2
Fore
SplineSet
1678.38 90.5049 m 4,0,1
 1669.37 92.9932 1669.37 92.9932 1664.38 95.54 c 132,-1,2
 1659.38 98.0938 1659.38 98.0938 1463.35 293.901 c 6,3,-1
 1267.3 489.714 l 5,4,-1
 1247.21 474.88 l 6,5,6
 1139.91 395.647 1139.91 395.647 1010.48 369.634 c 4,7,8
 945.631 356.6 945.631 356.6 874.39 358.313 c 4,9,10
 742.068 361.491 742.068 361.491 621.39 420.673 c 4,11,12
 530.421 465.281 530.421 465.281 460.3 535.515 c 4,13,14
 371.213 624.746 371.213 624.746 324.563 743.464 c 4,15,16
 283.893 846.969 283.893 846.969 283.554 961.657 c 4,17,18
 283.298 1048.44 283.298 1048.44 304.7 1124.66 c 4,19,20
 338.794 1246.05 338.794 1246.05 418.011 1345.56 c 4,21,22
 457.214 1394.81 457.214 1394.81 506.483 1434.04 c 4,23,24
 626.628 1529.67 626.628 1529.67 774.39 1558.38 c 4,25,26
 827.39 1568.68 827.39 1568.68 890.39 1568.49 c 4,27,28
 1005.08 1568.15 1005.08 1568.15 1108.58 1527.48 c 4,29,30
 1227.3 1480.83 1227.3 1480.83 1316.53 1391.75 c 4,31,32
 1386.77 1321.63 1386.77 1321.63 1431.37 1230.66 c 4,33,34
 1490.55 1109.98 1490.55 1109.98 1493.73 977.657 c 4,35,36
 1495.45 906.404 1495.45 906.404 1482.41 841.567 c 4,37,38
 1456.4 712.141 1456.4 712.141 1377.17 604.835 c 6,39,-1
 1362.33 584.743 l 5,40,-1
 1558.15 388.7 l 6,41,42
 1753.96 192.656 1753.96 192.656 1756.46 187.749 c 132,-1,43
 1758.96 182.843 1758.96 182.843 1761.65 172.749 c 4,44,45
 1771.93 134.158 1771.93 134.158 1744.44 107.004 c 132,-1,46
 1716.94 79.8506 1716.94 79.8506 1678.38 90.5049 c 4,0,1
956.39 496.7 m 4,47,48
 1085.93 516.351 1085.93 516.351 1187.51 598.731 c 4,49,50
 1275.66 670.225 1275.66 670.225 1322.07 779.512 c 132,-1,51
 1368.47 888.798 1368.47 888.798 1358.58 1001.66 c 4,52,53
 1346.46 1140.11 1346.46 1140.11 1263.78 1248.73 c 132,-1,54
 1181.11 1357.36 1181.11 1357.36 1051.39 1405.29 c 4,55,56
 972.358 1434.48 972.358 1434.48 886.39 1434.23 c 4,57,58
 778.028 1433.9 778.028 1433.9 680.458 1385.5 c 4,59,60
 537.411 1314.53 537.411 1314.53 466.683 1171.88 c 4,61,62
 418.142 1073.98 418.142 1073.98 417.819 965.657 c 4,63,64
 417.563 879.688 417.563 879.688 446.761 800.657 c 4,65,66
 518.964 605.212 518.964 605.212 711.39 526.974 c 4,67,68
 776.316 500.575 776.316 500.575 842.39 493.845 c 4,69,70
 899.348 488.047 899.348 488.047 956.39 496.7 c 4,47,48
875.077 695.741 m 4,71,72
 844.782 701.734 844.782 701.734 829.798 729.261 c 4,73,74
 820.479 746.381 820.479 746.381 820.429 831.026 c 6,75,-1
 820.39 895.396 l 5,76,-1
 745.89 896.026 l 5,77,-1
 671.39 896.657 l 5,78,-1
 660.298 901.86 l 6,79,80
 630.609 915.785 630.609 915.785 622.224 943.989 c 4,81,82
 615.859 965.403 615.859 965.403 624.392 988.208 c 4,83,84
 634.437 1015.05 634.437 1015.05 662.007 1025.97 c 4,85,86
 673.391 1030.48 673.391 1030.48 746.72 1031.24 c 6,87,-1
 820.052 1032 l 5,88,-1
 820.812 1105.33 l 6,89,90
 821.569 1178.66 821.569 1178.66 826.079 1190.04 c 4,91,92
 837.002 1217.61 837.002 1217.61 863.839 1227.66 c 4,93,94
 886.644 1236.19 886.644 1236.19 908.058 1229.82 c 4,95,96
 936.262 1221.44 936.262 1221.44 950.187 1191.75 c 6,97,-1
 955.39 1180.66 l 5,98,-1
 956.021 1106.16 l 5,99,-1
 956.651 1031.66 l 5,100,-1
 1021.02 1031.62 l 6,101,102
 1085.38 1031.58 1085.38 1031.58 1098.98 1029.61 c 4,103,104
 1133.42 1024.63 1133.42 1024.63 1149.05 995.923 c 4,105,106
 1165.62 965.482 1165.62 965.482 1151.11 934.813 c 132,-1,107
 1136.59 904.145 1136.59 904.145 1102.57 897.692 c 4,108,109
 1091.85 895.657 1091.85 895.657 1024.12 895.657 c 6,110,-1
 956.39 895.657 l 5,111,-1
 956.39 827.931 l 6,112,113
 956.39 760.195 956.39 760.195 954.354 749.478 c 4,114,115
 945.735 704.026 945.735 704.026 901.485 695.845 c 4,116,117
 887.561 693.271 887.561 693.271 875.077 695.741 c 4,71,72
EndSplineSet
EndChar
